<?xml version="1.0" encoding="UTF-8" standalone="no"?>
<!DOCTYPE svg PUBLIC "-//W3C//DTD SVG 1.1//EN" "http://www.w3.org/Graphics/SVG/1.1/DTD/svg11.dtd">
<svg width="100%" height="100%" viewBox="0 0 1080 271" version="1.1" xmlns="http://www.w3.org/2000/svg" xmlns:xlink="http://www.w3.org/1999/xlink" xml:space="preserve" xmlns:serif="http://www.serif.com/" style="fill-rule:evenodd;clip-rule:evenodd;stroke-linecap:round;stroke-linejoin:round;stroke-miterlimit:1.5;">
    <g transform="matrix(1,0,0,1,0.381782,3.96309)">
        <g transform="matrix(1,0,0,1,-49.5819,-18.5548)">
            <path id="path746" d="M288.474,80L348.474,240" style="fill:none;stroke:rgb(9,9,9);stroke-width:4px;"/>
        </g>
        <g transform="matrix(1,0,0,1,-49.5819,-18.5548)">
            <path id="path750" d="M228.474,80L228.474,240" style="fill:none;stroke:rgb(9,9,9);stroke-width:4px;"/>
        </g>
        <g transform="matrix(1,0,0,1,-49.5819,-18.5548)">
            <path id="path754" d="M288.474,80L288.474,240" style="fill:none;stroke:rgb(9,9,9);stroke-width:4px;"/>
        </g>
        <g transform="matrix(1,0,0,1,-49.5819,-18.5548)">
            <circle id="circle758" cx="228.473" cy="80" r="20" style="fill:white;stroke:rgb(9,9,9);stroke-width:4px;"/>
        </g>
        <g transform="matrix(1,0,0,1,-49.5819,-18.5548)">
            <circle id="circle762" cx="288.473" cy="80" r="20" style="fill:white;stroke:rgb(9,9,9);stroke-width:4px;"/>
        </g>
        <g transform="matrix(1,0,0,1,-49.5819,-18.5548)">
            <circle id="circle766" cx="228.473" cy="240" r="20" style="fill:white;stroke:rgb(9,9,9);stroke-width:4px;"/>
        </g>
        <g transform="matrix(1,0,0,1,-49.5819,-18.5548)">
            <circle id="circle770" cx="288.473" cy="240" r="20" style="fill:white;stroke:rgb(9,9,9);stroke-width:4px;"/>
        </g>
        <g transform="matrix(1,0,0,1,-49.5819,-18.5548)">
            <circle id="circle774" cx="348.473" cy="240" r="20" style="fill:white;stroke:rgb(9,9,9);stroke-width:4px;"/>
        </g>
        <g transform="matrix(1,0,0,1,-49.5819,-18.5548)">
            <path id="path778" d="M408.474,80L408.474,240" style="fill:none;stroke:rgb(9,9,9);stroke-width:4px;"/>
        </g>
        <g transform="matrix(1,0,0,1,-49.5819,-18.5548)">
            <path id="path782" d="M408.474,80L468.474,240" style="fill:none;stroke:rgb(9,9,9);stroke-width:4px;"/>
        </g>
        <g transform="matrix(1,0,0,1,-49.5819,-18.5548)">
            <circle id="circle786" cx="408.473" cy="80" r="20" style="fill:white;stroke:rgb(9,9,9);stroke-width:4px;"/>
        </g>
        <g transform="matrix(1,0,0,1,-49.5819,-18.5548)">
            <circle id="circle790" cx="408.473" cy="240" r="20" style="fill:white;stroke:rgb(9,9,9);stroke-width:4px;"/>
        </g>
        <g transform="matrix(1,0,0,1,-49.5819,-18.5548)">
            <circle id="circle794" cx="468.473" cy="240" r="20" style="fill:white;stroke:rgb(9,9,9);stroke-width:4px;"/>
        </g>
        <g transform="matrix(0.736937,0,0,0.736937,-15.0602,-12.771)">
            <g id="text864" transform="matrix(1,0,0,1,20,60)">
                <text x="0px" y="0px" style="font-family:'ArialMT', 'Arial', sans-serif;font-size:55.842px;">A</text>
            </g>
        </g>
        <g transform="matrix(0.736937,0,0,0.736937,457.9,-12.771)">
            <g id="text868" transform="matrix(1,0,0,1,20,60)">
                <text x="0px" y="0px" style="font-family:'ArialMT', 'Arial', sans-serif;font-size:55.842px;">B</text>
            </g>
        </g>
        <g transform="matrix(1,0,0,1,-52.7133,-18.5548)">
            <path id="path12799" d="M810,80L870,240" style="fill:none;stroke:rgb(9,9,9);stroke-width:4px;"/>
        </g>
        <g transform="matrix(1,0,0,1,-52.7133,-18.5548)">
            <path id="path12803" d="M810,80L810,240" style="fill:none;stroke:rgb(9,9,9);stroke-width:4px;"/>
        </g>
        <g transform="matrix(1,0,0,1,-52.7133,-18.5548)">
            <circle id="circle12807" cx="810" cy="80" r="20" style="fill:white;stroke:rgb(9,9,9);stroke-width:4px;"/>
        </g>
        <g transform="matrix(1,0,0,1,-52.7133,-18.5548)">
            <circle id="circle12811" cx="810" cy="240" r="20" style="fill:white;stroke:rgb(9,9,9);stroke-width:4px;"/>
        </g>
        <g transform="matrix(1,0,0,1,-52.7133,-18.5548)">
            <circle id="circle12813" cx="870" cy="240" r="20" style="fill:white;stroke:rgb(9,9,9);stroke-width:4px;"/>
        </g>
        <g transform="matrix(1,0,0,1,-52.7133,-18.5548)">
            <path id="path12815" d="M930,240L930,150" style="fill:none;stroke:rgb(9,9,9);stroke-width:4px;"/>
        </g>
        <g transform="matrix(1,0,0,1,-52.7133,-18.5548)">
            <path id="path12817" d="M930,240L990,80" style="fill:none;stroke:rgb(9,9,9);stroke-width:4px;"/>
        </g>
        <g transform="matrix(1,0,0,1,-52.7133,-18.5548)">
            <g id="circle12819" transform="matrix(1,0,0,-1,0,0)">
                <circle cx="930" cy="-240" r="20" style="stroke:rgb(9,9,9);stroke-width:4px;"/>
            </g>
        </g>
        <g transform="matrix(1,0,0,1,-52.7133,-18.5548)">
            <g id="circle12821" transform="matrix(1,0,0,-1,0,0)">
                <circle cx="930" cy="-80" r="20" style="stroke:rgb(9,9,9);stroke-width:4px;"/>
            </g>
        </g>
        <g transform="matrix(1,0,0,1,-52.7133,-18.5548)">
            <g id="circle12823" transform="matrix(1,0,0,-1,0,0)">
                <circle cx="990" cy="-80" r="20" style="stroke:rgb(9,9,9);stroke-width:4px;"/>
            </g>
        </g>
        <g transform="matrix(1,0,0,1,-52.7133,-18.5548)">
            <path id="path12840" d="M1050,80L1050,240" style="fill:none;stroke:rgb(9,9,9);stroke-width:4px;"/>
        </g>
        <g transform="matrix(1,0,0,1,-52.7133,-18.5548)">
            <path id="path12842" d="M1050,80L1110,240" style="fill:none;stroke:rgb(9,9,9);stroke-width:4px;"/>
        </g>
        <g transform="matrix(1,0,0,1,-52.7133,-18.5548)">
            <circle id="circle12844" cx="1050" cy="80" r="20" style="stroke:rgb(9,9,9);stroke-width:4px;"/>
        </g>
        <g transform="matrix(1,0,0,1,-52.7133,-18.5548)">
            <circle id="circle12846" cx="1050" cy="240" r="20" style="stroke:rgb(9,9,9);stroke-width:4px;"/>
        </g>
        <g transform="matrix(1,0,0,1,-52.7133,-18.5548)">
            <circle id="circle12848" cx="1110" cy="240" r="20" style="stroke:rgb(9,9,9);stroke-width:4px;"/>
        </g>
        <path id="path12974" d="M867.287,131.445L887.287,131.445" style="fill:none;stroke:black;stroke-width:4px;stroke-linecap:butt;stroke-linejoin:miter;"/>
        <g transform="matrix(3.87624,0,0,3.87624,-56.9914,135.162)">
            <path id="path13605" d="M147.139,-21.27C147.139,-21.47 146.999,-21.629 146.77,-21.629C146.501,-21.629 146.232,-21.37 146.232,-21.101C146.232,-20.912 146.372,-20.742 146.611,-20.742C146.84,-20.742 147.139,-20.971 147.139,-21.27ZM146.382,-17.524C146.501,-17.813 146.501,-17.833 146.601,-18.102C146.681,-18.301 146.73,-18.441 146.73,-18.63C146.73,-19.078 146.412,-19.447 145.913,-19.447C144.977,-19.447 144.598,-18.003 144.598,-17.913C144.598,-17.813 144.698,-17.813 144.718,-17.813C144.818,-17.813 144.828,-17.833 144.877,-17.993C145.146,-18.929 145.545,-19.228 145.884,-19.228C145.963,-19.228 146.133,-19.228 146.133,-18.909C146.133,-18.7 146.063,-18.491 146.023,-18.391C145.943,-18.132 145.495,-16.976 145.336,-16.548C145.236,-16.289 145.106,-15.96 145.106,-15.751C145.106,-15.283 145.445,-14.934 145.923,-14.934C146.86,-14.934 147.229,-16.379 147.229,-16.468C147.229,-16.568 147.139,-16.568 147.109,-16.568C147.009,-16.568 147.009,-16.538 146.96,-16.389C146.78,-15.761 146.451,-15.153 145.943,-15.153C145.774,-15.153 145.704,-15.253 145.704,-15.482C145.704,-15.731 145.764,-15.871 145.993,-16.478L146.382,-17.524Z"/>
        </g>
        <g transform="matrix(3.87624,0,0,3.87624,-56.9914,135.162)">
            <path id="path13607" d="M148.265,-12.698C148.216,-12.503 148.202,-12.447 147.923,-12.447C147.832,-12.447 147.735,-12.447 147.735,-12.301C147.735,-12.224 147.798,-12.196 147.832,-12.196C148.014,-12.196 148.244,-12.224 148.432,-12.224C148.669,-12.224 148.934,-12.196 149.164,-12.196C149.227,-12.196 149.304,-12.217 149.304,-12.35C149.304,-12.447 149.206,-12.447 149.123,-12.447C148.969,-12.447 148.781,-12.447 148.781,-12.531C148.781,-12.566 148.83,-12.747 148.857,-12.852C148.941,-13.221 149.039,-13.598 149.116,-13.891C149.199,-13.751 149.415,-13.48 149.834,-13.48C150.685,-13.48 151.626,-14.421 151.626,-15.46C151.626,-16.276 151.061,-16.625 150.58,-16.625C150.148,-16.625 149.778,-16.332 149.59,-16.137C149.471,-16.534 149.081,-16.625 148.871,-16.625C148.599,-16.625 148.432,-16.443 148.32,-16.255C148.181,-16.018 148.069,-15.6 148.069,-15.558C148.069,-15.467 148.167,-15.467 148.188,-15.467C148.286,-15.467 148.293,-15.488 148.341,-15.676C148.446,-16.081 148.579,-16.429 148.851,-16.429C149.032,-16.429 149.081,-16.276 149.081,-16.088C149.081,-16.011 149.067,-15.92 149.06,-15.879L148.265,-12.698ZM149.583,-15.788C149.987,-16.325 150.336,-16.429 150.559,-16.429C150.831,-16.429 151.068,-16.227 151.068,-15.753C151.068,-15.467 150.915,-14.756 150.706,-14.351C150.531,-14.01 150.19,-13.675 149.834,-13.675C149.339,-13.675 149.213,-14.212 149.213,-14.281C149.213,-14.309 149.227,-14.358 149.234,-14.386L149.583,-15.788Z"/>
        </g>
        <g transform="matrix(3.87624,0,0,3.87624,-56.9914,135.162)">
            <path id="path13609" d="M156.72,-22.137C156.77,-22.267 156.77,-22.306 156.77,-22.316C156.77,-22.426 156.68,-22.516 156.571,-22.516C156.501,-22.516 156.431,-22.486 156.402,-22.426L152.945,-12.932C152.895,-12.802 152.895,-12.762 152.895,-12.752C152.895,-12.643 152.984,-12.553 153.094,-12.553C153.224,-12.553 153.253,-12.623 153.313,-12.792L156.72,-22.137Z"/>
        </g>
        <g transform="matrix(3.87624,0,0,3.87624,-56.9914,135.162)">
            <path id="path13611" d="M158.381,-22.137C158.431,-22.267 158.431,-22.306 158.431,-22.316C158.431,-22.426 158.341,-22.516 158.231,-22.516C158.162,-22.516 158.092,-22.486 158.062,-22.426L154.605,-12.932C154.555,-12.802 154.555,-12.762 154.555,-12.752C154.555,-12.643 154.645,-12.553 154.755,-12.553C154.884,-12.553 154.914,-12.623 154.974,-12.792L158.381,-22.137Z"/>
        </g>
        <g transform="matrix(3.87624,0,0,3.87624,-56.9914,135.162)">
            <path id="path13613" d="M159.865,-15.631C159.835,-15.482 159.776,-15.253 159.776,-15.203C159.776,-15.024 159.915,-14.934 160.065,-14.934C160.184,-14.934 160.363,-15.014 160.433,-15.213C160.443,-15.233 160.563,-15.701 160.622,-15.95L160.842,-16.847C160.901,-17.066 160.961,-17.285 161.011,-17.514C161.051,-17.684 161.131,-17.973 161.141,-18.012C161.29,-18.321 161.818,-19.228 162.764,-19.228C163.213,-19.228 163.302,-18.859 163.302,-18.531C163.302,-17.913 162.814,-16.638 162.655,-16.209C162.565,-15.98 162.555,-15.861 162.555,-15.751C162.555,-15.283 162.904,-14.934 163.372,-14.934C164.309,-14.934 164.677,-16.389 164.677,-16.468C164.677,-16.568 164.588,-16.568 164.558,-16.568C164.458,-16.568 164.458,-16.538 164.408,-16.389C164.209,-15.711 163.88,-15.153 163.392,-15.153C163.223,-15.153 163.153,-15.253 163.153,-15.482C163.153,-15.731 163.243,-15.97 163.332,-16.189C163.522,-16.717 163.94,-17.813 163.94,-18.381C163.94,-19.049 163.512,-19.447 162.794,-19.447C161.898,-19.447 161.41,-18.81 161.24,-18.58C161.19,-19.138 160.782,-19.447 160.324,-19.447C159.865,-19.447 159.676,-19.059 159.576,-18.879C159.417,-18.541 159.278,-17.953 159.278,-17.913C159.278,-17.813 159.377,-17.813 159.397,-17.813C159.497,-17.813 159.507,-17.823 159.566,-18.042C159.736,-18.75 159.935,-19.228 160.294,-19.228C160.493,-19.228 160.603,-19.098 160.603,-18.77C160.603,-18.56 160.573,-18.451 160.443,-17.933L159.865,-15.631Z"/>
        </g>
        <g transform="matrix(3.87624,0,0,3.87624,-56.9914,135.162)">
            <path id="path13615" d="M165.492,-12.698C165.443,-12.503 165.429,-12.447 165.15,-12.447C165.059,-12.447 164.962,-12.447 164.962,-12.301C164.962,-12.224 165.024,-12.196 165.059,-12.196C165.241,-12.196 165.471,-12.224 165.659,-12.224C165.896,-12.224 166.161,-12.196 166.391,-12.196C166.454,-12.196 166.531,-12.217 166.531,-12.35C166.531,-12.447 166.433,-12.447 166.349,-12.447C166.196,-12.447 166.008,-12.447 166.008,-12.531C166.008,-12.566 166.056,-12.747 166.084,-12.852C166.168,-13.221 166.266,-13.598 166.342,-13.891C166.426,-13.751 166.642,-13.48 167.061,-13.48C167.912,-13.48 168.853,-14.421 168.853,-15.46C168.853,-16.276 168.288,-16.625 167.807,-16.625C167.375,-16.625 167.005,-16.332 166.817,-16.137C166.698,-16.534 166.308,-16.625 166.098,-16.625C165.826,-16.625 165.659,-16.443 165.547,-16.255C165.408,-16.018 165.296,-15.6 165.296,-15.558C165.296,-15.467 165.394,-15.467 165.415,-15.467C165.512,-15.467 165.519,-15.488 165.568,-15.676C165.673,-16.081 165.805,-16.429 166.077,-16.429C166.259,-16.429 166.308,-16.276 166.308,-16.088C166.308,-16.011 166.294,-15.92 166.287,-15.879L165.492,-12.698ZM166.81,-15.788C167.214,-16.325 167.563,-16.429 167.786,-16.429C168.058,-16.429 168.295,-16.227 168.295,-15.753C168.295,-15.467 168.142,-14.756 167.932,-14.351C167.758,-14.01 167.416,-13.675 167.061,-13.675C166.566,-13.675 166.44,-14.212 166.44,-14.281C166.44,-14.309 166.454,-14.358 166.461,-14.386L166.81,-15.788Z"/>
        </g>
        <g transform="matrix(3.87624,0,0,3.87624,-56.9914,135.162)">
            <path id="path13617" d="M179.185,-18.301C179.335,-18.301 179.524,-18.301 179.524,-18.501C179.524,-18.7 179.335,-18.7 179.195,-18.7L173.228,-18.7C173.088,-18.7 172.899,-18.7 172.899,-18.501C172.899,-18.301 173.088,-18.301 173.238,-18.301L179.185,-18.301ZM179.195,-16.369C179.335,-16.369 179.524,-16.369 179.524,-16.568C179.524,-16.767 179.335,-16.767 179.185,-16.767L173.238,-16.767C173.088,-16.767 172.899,-16.767 172.899,-16.568C172.899,-16.369 173.088,-16.369 173.228,-16.369L179.195,-16.369Z"/>
        </g>
        <g transform="matrix(3.87624,0,0,3.87624,-56.9914,135.162)">
            <path id="path13619" d="M185.746,-18.55C186.563,-18.819 187.141,-19.517 187.141,-20.304C187.141,-21.121 186.264,-21.679 185.308,-21.679C184.302,-21.679 183.544,-21.081 183.544,-20.324C183.544,-19.995 183.764,-19.806 184.053,-19.806C184.361,-19.806 184.561,-20.025 184.561,-20.314C184.561,-20.812 184.092,-20.812 183.943,-20.812C184.252,-21.3 184.909,-21.43 185.268,-21.43C185.676,-21.43 186.224,-21.21 186.224,-20.314C186.224,-20.194 186.205,-19.616 185.945,-19.178C185.647,-18.7 185.308,-18.67 185.059,-18.66C184.979,-18.65 184.74,-18.63 184.67,-18.63C184.591,-18.62 184.521,-18.61 184.521,-18.511C184.521,-18.401 184.591,-18.401 184.76,-18.401L185.198,-18.401C186.015,-18.401 186.384,-17.724 186.384,-16.747C186.384,-15.392 185.696,-15.103 185.258,-15.103C184.83,-15.103 184.082,-15.273 183.734,-15.861C184.082,-15.811 184.391,-16.03 184.391,-16.409C184.391,-16.767 184.122,-16.966 183.833,-16.966C183.594,-16.966 183.276,-16.827 183.276,-16.389C183.276,-15.482 184.202,-14.824 185.288,-14.824C186.503,-14.824 187.41,-15.731 187.41,-16.747C187.41,-17.564 186.782,-18.341 185.746,-18.55L185.746,-18.55Z"/>
        </g>
        <g transform="matrix(3.87624,0,0,3.87624,-56.9914,135.162)">
            <path id="path13621" d="M192.212,-22.137C192.262,-22.267 192.262,-22.306 192.262,-22.316C192.262,-22.426 192.172,-22.516 192.063,-22.516C191.993,-22.516 191.923,-22.486 191.893,-22.426L188.436,-12.932C188.386,-12.802 188.386,-12.762 188.386,-12.752C188.386,-12.643 188.476,-12.553 188.586,-12.553C188.715,-12.553 188.745,-12.623 188.805,-12.792L192.212,-22.137Z"/>
        </g>
        <g transform="matrix(3.87624,0,0,3.87624,-56.9914,135.162)">
            <path id="path13623" d="M193.873,-22.137C193.922,-22.267 193.922,-22.306 193.922,-22.316C193.922,-22.426 193.833,-22.516 193.723,-22.516C193.653,-22.516 193.584,-22.486 193.554,-22.426L190.097,-12.932C190.047,-12.802 190.047,-12.762 190.047,-12.752C190.047,-12.643 190.137,-12.553 190.246,-12.553C190.376,-12.553 190.406,-12.623 190.465,-12.792L193.873,-22.137Z"/>
        </g>
        <g transform="matrix(3.87624,0,0,3.87624,-56.9914,135.162)">
            <path id="path13625" d="M197.409,-16.687L197.409,-15.821C197.409,-15.462 197.389,-15.352 196.652,-15.352L196.443,-15.352L196.443,-15.044C196.851,-15.074 197.369,-15.074 197.788,-15.074C198.206,-15.074 198.734,-15.074 199.143,-15.044L199.143,-15.352L198.934,-15.352C198.196,-15.352 198.176,-15.462 198.176,-15.821L198.176,-16.687L199.173,-16.687L199.173,-16.996L198.176,-16.996L198.176,-21.529C198.176,-21.729 198.176,-21.788 198.017,-21.788C197.927,-21.788 197.897,-21.788 197.818,-21.669L194.759,-16.996L194.759,-16.687L197.409,-16.687ZM197.469,-16.996L195.038,-16.996L197.469,-20.712L197.469,-16.996Z"/>
        </g>
        <g transform="matrix(4.015,0,0,4.015,-80.4419,180.815)">
            <path id="path13649" d="M147.488,8.618C147.488,8.418 147.348,8.259 147.119,8.259C146.85,8.259 146.581,8.518 146.581,8.787C146.581,8.976 146.721,9.146 146.96,9.146C147.189,9.146 147.488,8.917 147.488,8.618ZM146.731,12.364C146.85,12.075 146.85,12.055 146.95,11.786C147.029,11.587 147.079,11.447 147.079,11.258C147.079,10.809 146.761,10.441 146.262,10.441C145.326,10.441 144.947,11.885 144.947,11.975C144.947,12.075 145.047,12.075 145.067,12.075C145.166,12.075 145.176,12.055 145.226,11.895C145.495,10.959 145.894,10.66 146.232,10.66C146.312,10.66 146.482,10.66 146.482,10.979C146.482,11.188 146.412,11.397 146.372,11.497C146.292,11.756 145.844,12.912 145.685,13.34C145.585,13.599 145.455,13.928 145.455,14.137C145.455,14.605 145.794,14.954 146.272,14.954C147.209,14.954 147.577,13.509 147.577,13.42C147.577,13.32 147.488,13.32 147.458,13.32C147.358,13.32 147.358,13.35 147.308,13.499C147.129,14.127 146.8,14.735 146.292,14.735C146.123,14.735 146.053,14.635 146.053,14.406C146.053,14.157 146.113,14.017 146.342,13.41L146.731,12.364Z"/>
        </g>
        <g transform="matrix(4.015,0,0,4.015,-80.4419,180.815)">
            <path id="path13651" d="M151.794,14.484C151.794,13.71 151.215,13.263 150.532,13.263C149.499,13.263 148.523,14.233 148.523,15.188C148.523,15.885 149.032,16.408 149.792,16.408C150.79,16.408 151.794,15.488 151.794,14.484ZM149.799,16.213C149.451,16.213 149.102,15.99 149.102,15.439C149.102,15.153 149.234,14.47 149.506,14.072C149.806,13.64 150.211,13.458 150.525,13.458C150.901,13.458 151.222,13.717 151.222,14.233C151.222,14.4 151.138,15.09 150.831,15.579C150.566,15.99 150.148,16.213 149.799,16.213Z"/>
        </g>
        <g transform="matrix(4.015,0,0,4.015,-80.4419,180.815)">
            <path id="path13653" d="M156.895,7.751C156.945,7.621 156.945,7.582 156.945,7.572C156.945,7.462 156.855,7.372 156.745,7.372C156.676,7.372 156.606,7.402 156.576,7.462L153.119,16.956C153.069,17.086 153.069,17.126 153.069,17.136C153.069,17.245 153.159,17.335 153.268,17.335C153.398,17.335 153.428,17.265 153.488,17.096L156.895,7.751Z"/>
        </g>
        <g transform="matrix(4.015,0,0,4.015,-80.4419,180.815)">
            <path id="path13655" d="M158.555,7.751C158.605,7.621 158.605,7.582 158.605,7.572C158.605,7.462 158.516,7.372 158.406,7.372C158.336,7.372 158.266,7.402 158.237,7.462L154.78,16.956C154.73,17.086 154.73,17.126 154.73,17.136C154.73,17.245 154.819,17.335 154.929,17.335C155.059,17.335 155.088,17.265 155.148,17.096L158.555,7.751Z"/>
        </g>
        <g transform="matrix(4.015,0,0,4.015,-80.4419,180.815)">
            <path id="path13657" d="M160.04,14.257C160.01,14.406 159.95,14.635 159.95,14.685C159.95,14.864 160.09,14.954 160.239,14.954C160.359,14.954 160.538,14.874 160.608,14.675C160.618,14.655 160.737,14.187 160.797,13.938L161.016,13.041C161.076,12.822 161.136,12.603 161.186,12.374C161.225,12.204 161.305,11.915 161.315,11.875C161.464,11.567 161.992,10.66 162.939,10.66C163.387,10.66 163.477,11.029 163.477,11.357C163.477,11.975 162.989,13.25 162.829,13.679C162.74,13.908 162.73,14.027 162.73,14.137C162.73,14.605 163.078,14.954 163.547,14.954C164.483,14.954 164.852,13.499 164.852,13.42C164.852,13.32 164.762,13.32 164.732,13.32C164.633,13.32 164.633,13.35 164.583,13.499C164.384,14.177 164.055,14.735 163.567,14.735C163.397,14.735 163.327,14.635 163.327,14.406C163.327,14.157 163.417,13.918 163.507,13.699C163.696,13.171 164.115,12.075 164.115,11.507C164.115,10.839 163.686,10.441 162.969,10.441C162.072,10.441 161.584,11.078 161.415,11.308C161.365,10.75 160.956,10.441 160.498,10.441C160.04,10.441 159.851,10.829 159.751,11.009C159.592,11.347 159.452,11.935 159.452,11.975C159.452,12.075 159.552,12.075 159.572,12.075C159.671,12.075 159.681,12.065 159.741,11.846C159.91,11.138 160.11,10.66 160.468,10.66C160.667,10.66 160.777,10.79 160.777,11.118C160.777,11.327 160.747,11.437 160.618,11.955L160.04,14.257Z"/>
        </g>
        <g transform="matrix(4.015,0,0,4.015,-80.4419,180.815)">
            <path id="path13659" d="M168.846,14.484C168.846,13.71 168.267,13.263 167.584,13.263C166.552,13.263 165.575,14.233 165.575,15.188C165.575,15.885 166.085,16.408 166.845,16.408C167.842,16.408 168.846,15.488 168.846,14.484ZM166.852,16.213C166.503,16.213 166.154,15.99 166.154,15.439C166.154,15.153 166.287,14.47 166.559,14.072C166.859,13.64 167.263,13.458 167.577,13.458C167.954,13.458 168.274,13.717 168.274,14.233C168.274,14.4 168.191,15.09 167.884,15.579C167.619,15.99 167.2,16.213 166.852,16.213Z"/>
        </g>
        <g transform="matrix(4.015,0,0,4.015,-80.4419,180.815)">
            <path id="path13661" d="M179.185,11.587C179.335,11.587 179.524,11.587 179.524,11.387C179.524,11.188 179.335,11.188 179.195,11.188L173.228,11.188C173.088,11.188 172.899,11.188 172.899,11.387C172.899,11.587 173.088,11.587 173.238,11.587L179.185,11.587ZM179.195,13.519C179.335,13.519 179.524,13.519 179.524,13.32C179.524,13.121 179.335,13.121 179.185,13.121L173.238,13.121C173.088,13.121 172.899,13.121 172.899,13.32C172.899,13.519 173.088,13.519 173.228,13.519L179.195,13.519Z"/>
        </g>
        <g transform="matrix(4.015,0,0,4.015,-80.4419,180.815)">
            <path id="path13663" d="M185.746,11.337C186.563,11.068 187.141,10.371 187.141,9.584C187.141,8.767 186.264,8.209 185.308,8.209C184.302,8.209 183.544,8.807 183.544,9.564C183.544,9.893 183.764,10.082 184.053,10.082C184.361,10.082 184.561,9.863 184.561,9.574C184.561,9.076 184.092,9.076 183.943,9.076C184.252,8.588 184.909,8.458 185.268,8.458C185.676,8.458 186.224,8.677 186.224,9.574C186.224,9.694 186.205,10.271 185.945,10.71C185.647,11.188 185.308,11.218 185.059,11.228C184.979,11.238 184.74,11.258 184.67,11.258C184.591,11.268 184.521,11.278 184.521,11.377C184.521,11.487 184.591,11.487 184.76,11.487L185.198,11.487C186.015,11.487 186.384,12.164 186.384,13.141C186.384,14.496 185.696,14.785 185.258,14.785C184.83,14.785 184.082,14.615 183.734,14.027C184.082,14.077 184.391,13.858 184.391,13.479C184.391,13.121 184.122,12.922 183.833,12.922C183.594,12.922 183.276,13.061 183.276,13.499C183.276,14.406 184.202,15.063 185.288,15.063C186.503,15.063 187.41,14.157 187.41,13.141C187.41,12.324 186.782,11.547 185.746,11.337L185.746,11.337Z"/>
        </g>
        <g transform="matrix(4.015,0,0,4.015,-80.4419,180.815)">
            <path id="path13665" d="M192.212,7.751C192.262,7.621 192.262,7.582 192.262,7.572C192.262,7.462 192.172,7.372 192.063,7.372C191.993,7.372 191.923,7.402 191.893,7.462L188.436,16.956C188.386,17.086 188.386,17.126 188.386,17.136C188.386,17.245 188.476,17.335 188.586,17.335C188.715,17.335 188.745,17.265 188.805,17.096L192.212,7.751Z"/>
        </g>
        <g transform="matrix(4.015,0,0,4.015,-80.4419,180.815)">
            <path id="path13667" d="M193.873,7.751C193.922,7.621 193.922,7.582 193.922,7.572C193.922,7.462 193.833,7.372 193.723,7.372C193.653,7.372 193.584,7.402 193.554,7.462L190.097,16.956C190.047,17.086 190.047,17.126 190.047,17.136C190.047,17.245 190.137,17.335 190.246,17.335C190.376,17.335 190.406,17.265 190.465,17.096L193.873,7.751Z"/>
        </g>
        <g transform="matrix(4.015,0,0,4.015,-80.4419,180.815)">
            <path id="path13669" d="M198.954,12.842C198.954,11.656 198.137,10.66 197.061,10.66C196.582,10.66 196.154,10.819 195.795,11.168L195.795,9.225C195.995,9.285 196.323,9.355 196.642,9.355C197.868,9.355 198.565,8.448 198.565,8.319C198.565,8.259 198.535,8.209 198.465,8.209C198.455,8.209 198.435,8.209 198.386,8.239C198.186,8.329 197.698,8.528 197.031,8.528C196.632,8.528 196.174,8.458 195.706,8.249C195.626,8.219 195.606,8.219 195.586,8.219C195.487,8.219 195.487,8.299 195.487,8.458L195.487,11.407C195.487,11.587 195.487,11.666 195.626,11.666C195.696,11.666 195.716,11.636 195.756,11.577C195.865,11.417 196.234,10.879 197.041,10.879C197.559,10.879 197.808,11.337 197.888,11.517C198.047,11.885 198.067,12.274 198.067,12.772C198.067,13.121 198.067,13.719 197.828,14.137C197.589,14.525 197.22,14.785 196.762,14.785C196.035,14.785 195.467,14.257 195.297,13.669C195.327,13.679 195.357,13.689 195.467,13.689C195.795,13.689 195.965,13.44 195.965,13.2C195.965,12.961 195.795,12.712 195.467,12.712C195.327,12.712 194.978,12.782 194.978,13.24C194.978,14.097 195.666,15.063 196.782,15.063C197.937,15.063 198.954,14.107 198.954,12.842L198.954,12.842Z"/>
        </g>
        <g transform="matrix(4.64016,0,0,4.64016,-666.511,146.334)">
            <g id="g14255" transform="matrix(1,0,0,1,-13.759,0)">
                <path id="path14211" d="M159.865,-15.631C159.835,-15.482 159.776,-15.253 159.776,-15.203C159.776,-15.024 159.915,-14.934 160.065,-14.934C160.184,-14.934 160.363,-15.014 160.433,-15.213C160.443,-15.233 160.563,-15.701 160.622,-15.95L160.842,-16.847C160.901,-17.066 160.961,-17.285 161.011,-17.514C161.051,-17.684 161.131,-17.973 161.141,-18.012C161.29,-18.321 161.818,-19.228 162.764,-19.228C163.213,-19.228 163.302,-18.859 163.302,-18.531C163.302,-17.913 162.814,-16.638 162.655,-16.209C162.565,-15.98 162.555,-15.861 162.555,-15.751C162.555,-15.283 162.904,-14.934 163.372,-14.934C164.309,-14.934 164.677,-16.389 164.677,-16.468C164.677,-16.568 164.588,-16.568 164.558,-16.568C164.458,-16.568 164.458,-16.538 164.408,-16.389C164.209,-15.711 163.88,-15.153 163.392,-15.153C163.223,-15.153 163.153,-15.253 163.153,-15.482C163.153,-15.731 163.243,-15.97 163.332,-16.189C163.522,-16.717 163.94,-17.813 163.94,-18.381C163.94,-19.049 163.512,-19.447 162.794,-19.447C161.898,-19.447 161.41,-18.81 161.24,-18.58C161.19,-19.138 160.782,-19.447 160.324,-19.447C159.865,-19.447 159.676,-19.059 159.576,-18.879C159.417,-18.541 159.278,-17.953 159.278,-17.913C159.278,-17.813 159.377,-17.813 159.397,-17.813C159.497,-17.813 159.507,-17.823 159.566,-18.042C159.736,-18.75 159.935,-19.228 160.294,-19.228C160.493,-19.228 160.603,-19.098 160.603,-18.77C160.603,-18.56 160.573,-18.451 160.443,-17.933L159.865,-15.631Z"/>
                <path id="path14213" d="M165.492,-12.698C165.443,-12.503 165.429,-12.447 165.15,-12.447C165.059,-12.447 164.962,-12.447 164.962,-12.301C164.962,-12.224 165.024,-12.196 165.059,-12.196C165.241,-12.196 165.471,-12.224 165.659,-12.224C165.896,-12.224 166.161,-12.196 166.391,-12.196C166.454,-12.196 166.531,-12.217 166.531,-12.35C166.531,-12.447 166.433,-12.447 166.349,-12.447C166.196,-12.447 166.008,-12.447 166.008,-12.531C166.008,-12.566 166.056,-12.747 166.084,-12.852C166.168,-13.221 166.266,-13.598 166.342,-13.891C166.426,-13.751 166.642,-13.48 167.061,-13.48C167.912,-13.48 168.853,-14.421 168.853,-15.46C168.853,-16.276 168.288,-16.625 167.807,-16.625C167.375,-16.625 167.005,-16.332 166.817,-16.137C166.698,-16.534 166.308,-16.625 166.098,-16.625C165.826,-16.625 165.659,-16.443 165.547,-16.255C165.408,-16.018 165.296,-15.6 165.296,-15.558C165.296,-15.467 165.394,-15.467 165.415,-15.467C165.512,-15.467 165.519,-15.488 165.568,-15.676C165.673,-16.081 165.805,-16.429 166.077,-16.429C166.259,-16.429 166.308,-16.276 166.308,-16.088C166.308,-16.011 166.294,-15.92 166.287,-15.879L165.492,-12.698ZM166.81,-15.788C167.214,-16.325 167.563,-16.429 167.786,-16.429C168.058,-16.429 168.295,-16.227 168.295,-15.753C168.295,-15.467 168.142,-14.756 167.932,-14.351C167.758,-14.01 167.416,-13.675 167.061,-13.675C166.566,-13.675 166.44,-14.212 166.44,-14.281C166.44,-14.309 166.454,-14.358 166.461,-14.386L166.81,-15.788Z"/>
                <path id="path14215" d="M179.185,-18.301C179.335,-18.301 179.524,-18.301 179.524,-18.501C179.524,-18.7 179.335,-18.7 179.195,-18.7L173.228,-18.7C173.088,-18.7 172.899,-18.7 172.899,-18.501C172.899,-18.301 173.088,-18.301 173.238,-18.301L179.185,-18.301ZM179.195,-16.369C179.335,-16.369 179.524,-16.369 179.524,-16.568C179.524,-16.767 179.335,-16.767 179.185,-16.767L173.238,-16.767C173.088,-16.767 172.899,-16.767 172.899,-16.568C172.899,-16.369 173.088,-16.369 173.228,-16.369L179.195,-16.369Z"/>
                <path id="path14217" d="M185.746,-18.55C186.563,-18.819 187.141,-19.517 187.141,-20.304C187.141,-21.121 186.264,-21.679 185.308,-21.679C184.302,-21.679 183.544,-21.081 183.544,-20.324C183.544,-19.995 183.764,-19.806 184.053,-19.806C184.361,-19.806 184.561,-20.025 184.561,-20.314C184.561,-20.812 184.092,-20.812 183.943,-20.812C184.252,-21.3 184.909,-21.43 185.268,-21.43C185.676,-21.43 186.224,-21.21 186.224,-20.314C186.224,-20.194 186.205,-19.616 185.945,-19.178C185.647,-18.7 185.308,-18.67 185.059,-18.66C184.979,-18.65 184.74,-18.63 184.67,-18.63C184.591,-18.62 184.521,-18.61 184.521,-18.511C184.521,-18.401 184.591,-18.401 184.76,-18.401L185.198,-18.401C186.015,-18.401 186.384,-17.724 186.384,-16.747C186.384,-15.392 185.696,-15.103 185.258,-15.103C184.83,-15.103 184.082,-15.273 183.734,-15.861C184.082,-15.811 184.391,-16.03 184.391,-16.409C184.391,-16.767 184.122,-16.966 183.833,-16.966C183.594,-16.966 183.276,-16.827 183.276,-16.389C183.276,-15.482 184.202,-14.824 185.288,-14.824C186.503,-14.824 187.41,-15.731 187.41,-16.747C187.41,-17.564 186.782,-18.341 185.746,-18.55L185.746,-18.55Z"/>
            </g>
        </g>
        <g transform="matrix(1.62009,0,0,1.62009,-108.483,-166.929)">
            <path id="path14235" d="M70.077,245.7C69.987,246.15 69.807,246.84 69.807,246.99C69.807,247.53 70.227,247.8 70.677,247.8C71.037,247.8 71.577,247.56 71.787,246.96C71.817,246.9 72.177,245.49 72.357,244.74L73.017,242.04C73.197,241.38 73.377,240.72 73.527,240.03C73.647,239.52 73.887,238.65 73.917,238.53C74.367,237.6 75.957,234.87 78.807,234.87C80.157,234.87 80.427,235.98 80.427,236.97C80.427,238.83 78.957,242.67 78.477,243.96C78.207,244.65 78.177,245.01 78.177,245.34C78.177,246.75 79.227,247.8 80.637,247.8C83.457,247.8 84.567,243.42 84.567,243.18C84.567,242.88 84.297,242.88 84.207,242.88C83.907,242.88 83.907,242.97 83.757,243.42C83.157,245.46 82.167,247.14 80.697,247.14C80.187,247.14 79.977,246.84 79.977,246.15C79.977,245.4 80.247,244.68 80.517,244.02C81.087,242.43 82.347,239.13 82.347,237.42C82.347,235.41 81.057,234.21 78.897,234.21C76.197,234.21 74.727,236.13 74.217,236.82C74.067,235.14 72.837,234.21 71.457,234.21C70.077,234.21 69.507,235.38 69.207,235.92C68.727,236.94 68.307,238.71 68.307,238.83C68.307,239.13 68.607,239.13 68.667,239.13C68.967,239.13 68.997,239.1 69.177,238.44C69.687,236.31 70.287,234.87 71.367,234.87C71.967,234.87 72.297,235.26 72.297,236.25C72.297,236.88 72.207,237.21 71.817,238.77L70.077,245.7Z"/>
        </g>
        <g transform="matrix(1.62009,0,0,1.62009,-108.483,-166.929)">
            <path id="path14237" d="M96.595,246.384C96.595,244.053 94.852,242.709 92.794,242.709C89.686,242.709 86.746,245.628 86.746,248.505C86.746,250.605 88.279,252.18 90.568,252.18C93.571,252.18 96.595,249.408 96.595,246.384ZM90.589,251.592C89.539,251.592 88.489,250.92 88.489,249.261C88.489,248.4 88.888,246.342 89.707,245.145C90.61,243.843 91.828,243.297 92.773,243.297C93.907,243.297 94.873,244.074 94.873,245.628C94.873,246.132 94.621,248.211 93.697,249.681C92.899,250.92 91.639,251.592 90.589,251.592Z"/>
        </g>
        <g transform="matrix(1.62009,0,0,1.62009,-108.483,-166.929)">
            <path id="path14239" d="M127.729,237.66C128.179,237.66 128.749,237.66 128.749,237.06C128.749,236.46 128.179,236.46 127.759,236.46L109.789,236.46C109.369,236.46 108.799,236.46 108.799,237.06C108.799,237.66 109.369,237.66 109.819,237.66L127.729,237.66ZM127.759,243.48C128.179,243.48 128.749,243.48 128.749,242.88C128.749,242.28 128.179,242.28 127.729,242.28L109.819,242.28C109.369,242.28 108.799,242.28 108.799,242.88C108.799,243.48 109.369,243.48 109.789,243.48L127.759,243.48Z"/>
        </g>
        <g transform="matrix(1.62009,0,0,1.62009,-108.483,-166.929)">
            <path id="path14247" d="M151.256,241.44C151.256,237.87 148.796,234.87 145.556,234.87C144.116,234.87 142.826,235.35 141.746,236.4L141.746,230.55C142.346,230.73 143.336,230.94 144.296,230.94C147.986,230.94 150.086,228.21 150.086,227.82C150.086,227.64 149.996,227.49 149.786,227.49C149.756,227.49 149.696,227.49 149.546,227.58C148.946,227.85 147.476,228.45 145.466,228.45C144.266,228.45 142.886,228.24 141.476,227.61C141.236,227.52 141.176,227.52 141.116,227.52C140.816,227.52 140.816,227.76 140.816,228.24L140.816,237.12C140.816,237.66 140.816,237.9 141.236,237.9C141.446,237.9 141.506,237.81 141.626,237.63C141.956,237.15 143.066,235.53 145.496,235.53C147.056,235.53 147.806,236.91 148.046,237.45C148.526,238.56 148.586,239.73 148.586,241.23C148.586,242.28 148.586,244.08 147.866,245.34C147.146,246.51 146.036,247.29 144.656,247.29C142.466,247.29 140.756,245.7 140.246,243.93C140.336,243.96 140.426,243.99 140.756,243.99C141.746,243.99 142.256,243.24 142.256,242.52C142.256,241.8 141.746,241.05 140.756,241.05C140.336,241.05 139.286,241.26 139.286,242.64C139.286,245.22 141.356,248.13 144.716,248.13C148.196,248.13 151.256,245.25 151.256,241.44L151.256,241.44Z"/>
        </g>
        <path id="path14274" d="M456.892,1.445L456.892,261.445" style="fill:none;stroke:black;stroke-width:6px;stroke-linecap:butt;stroke-linejoin:miter;stroke-dasharray:6,6;"/>
    </g>
</svg>
