<?xml version="1.0" encoding="UTF-8" standalone="no"?>
<!DOCTYPE svg PUBLIC "-//W3C//DTD SVG 1.1//EN" "http://www.w3.org/Graphics/SVG/1.1/DTD/svg11.dtd">
<svg width="100%" height="100%" viewBox="0 0 1900 300" version="1.1" xmlns="http://www.w3.org/2000/svg" xmlns:xlink="http://www.w3.org/1999/xlink" xml:space="preserve" xmlns:serif="http://www.serif.com/" style="fill-rule:evenodd;clip-rule:evenodd;stroke-linecap:round;stroke-linejoin:round;stroke-miterlimit:1.5;">
    <g transform="matrix(1,0,0,1,30,0)">
        <g transform="matrix(1,0,0,1,610,0)">
            <path d="M240,160L180,240" style="fill:none;stroke:rgb(9,9,9);stroke-width:4px;"/>
        </g>
        <g transform="matrix(1,0,0,1,610,0)">
            <path d="M180,200L180,160" style="fill:none;stroke:rgb(9,9,9);stroke-width:4px;"/>
        </g>
        <g transform="matrix(1,0,0,1,60,0)">
            <path d="M724,200L736,200" style="fill:none;stroke:rgb(9,9,9);stroke-width:4px;stroke-linecap:butt;"/>
        </g>
        <g transform="matrix(1,0,0,1,360,0)">
            <path d="M724,200L736,200" style="fill:none;stroke:rgb(9,9,9);stroke-width:4px;stroke-linecap:butt;"/>
        </g>
        <g transform="matrix(1,0,0,1,610,0)">
            <path d="M300,160L300,240" style="fill:none;stroke:rgb(9,9,9);stroke-width:4px;"/>
        </g>
        <g transform="matrix(1,0,0,1,730,0)">
            <path d="M360,240L420,160" style="fill:none;stroke:rgb(9,9,9);stroke-width:4px;"/>
        </g>
        <g transform="matrix(1,0,0,1,730,0)">
            <path d="M360,200L360,160" style="fill:none;stroke:rgb(9,9,9);stroke-width:4px;"/>
        </g>
        <g transform="matrix(1,0,0,1,730,0)">
            <path d="M360,80L360,160" style="fill:none;stroke:rgb(9,9,9);stroke-width:4px;"/>
        </g>
        <g transform="matrix(1,0,0,1,730,0)">
            <path d="M360,80L420,160" style="fill:none;stroke:rgb(9,9,9);stroke-width:4px;"/>
        </g>
        <g transform="matrix(1,0,0,1,610,0)">
            <path d="M240,80L300,160" style="fill:none;stroke:rgb(9,9,9);stroke-width:4px;"/>
        </g>
        <g transform="matrix(1,0,0,1,610,0)">
            <path d="M180,80L180,160" style="fill:none;stroke:rgb(9,9,9);stroke-width:4px;"/>
        </g>
        <g transform="matrix(1,0,0,1,610,0)">
            <path d="M240,80L240,160" style="fill:none;stroke:rgb(9,9,9);stroke-width:4px;"/>
        </g>
        <g transform="matrix(0.8,0,0,0.8,690,-44)">
            <circle cx="125" cy="155" r="25" style="fill:white;stroke:rgb(9,9,9);stroke-width:5px;"/>
        </g>
        <g transform="matrix(0.8,0,0,0.8,690,116)">
            <circle cx="125" cy="155" r="25" style="stroke:rgb(9,9,9);stroke-width:5px;"/>
        </g>
        <g transform="matrix(0.8,0,0,0.8,810,116)">
            <circle cx="125" cy="155" r="25" style="stroke:rgb(9,9,9);stroke-width:5px;"/>
        </g>
        <g transform="matrix(1,0,0,1,670,0)">
            <path d="M300,160L300,240" style="fill:none;stroke:rgb(9,9,9);stroke-width:4px;"/>
        </g>
        <g transform="matrix(0.8,0,0,0.8,870,116)">
            <circle cx="125" cy="155" r="25" style="fill:white;stroke:rgb(9,9,9);stroke-width:5px;"/>
        </g>
        <g transform="matrix(1,0,0,1,730,0)">
            <path d="M300,160L300,240" style="fill:none;stroke:rgb(9,9,9);stroke-width:4px;"/>
        </g>
        <g transform="matrix(0.8,0,0,0.8,930,116)">
            <circle cx="125" cy="155" r="25" style="fill:white;stroke:rgb(9,9,9);stroke-width:5px;"/>
        </g>
        <g transform="matrix(0.8,0,0,0.8,990,116)">
            <circle cx="125" cy="155" r="25" style="fill:rgb(9,9,9);stroke:black;stroke-width:5px;"/>
        </g>
        <g transform="matrix(0.8,0,0,0.8,750,-44)">
            <circle cx="125" cy="155" r="25" style="stroke:rgb(9,9,9);stroke-width:5px;"/>
        </g>
        <g transform="matrix(0.8,0,0,0.8,690,36)">
            <circle cx="125" cy="155" r="25" style="fill:white;stroke:rgb(9,9,9);stroke-width:5px;"/>
        </g>
        <g transform="matrix(0.8,0,0,0.8,750,36)">
            <circle cx="125" cy="155" r="25" style="stroke:rgb(9,9,9);stroke-width:5px;"/>
        </g>
        <g transform="matrix(0.8,0,0,0.8,810,36)">
            <circle cx="125" cy="155" r="25" style="stroke:rgb(9,9,9);stroke-width:5px;"/>
        </g>
        <g transform="matrix(0.8,0,0,0.8,990,-44)">
            <circle cx="125" cy="155" r="25" style="fill:rgb(9,9,9);stroke:black;stroke-width:5px;"/>
        </g>
        <g transform="matrix(0.8,0,0,0.8,990,36)">
            <circle cx="125" cy="155" r="25" style="fill:rgb(9,9,9);stroke:black;stroke-width:5px;"/>
        </g>
        <g transform="matrix(0.8,0,0,0.8,1050,36)">
            <circle cx="125" cy="155" r="25" style="fill:rgb(9,9,9);stroke:black;stroke-width:5px;"/>
        </g>
        <g transform="matrix(1,0,0,1,610,0)">
            <path d="M360,80L360,160" style="fill:none;stroke:rgb(9,9,9);stroke-width:4px;"/>
        </g>
        <g transform="matrix(1,0,0,1,610,0)">
            <path d="M360,80L420,160" style="fill:none;stroke:rgb(9,9,9);stroke-width:4px;"/>
        </g>
        <g transform="matrix(0.8,0,0,0.8,870,-44)">
            <circle cx="125" cy="155" r="25" style="fill:white;stroke:rgb(9,9,9);stroke-width:5px;"/>
        </g>
        <g transform="matrix(0.8,0,0,0.8,870,36)">
            <circle cx="125" cy="155" r="25" style="fill:white;stroke:rgb(9,9,9);stroke-width:5px;"/>
        </g>
        <g transform="matrix(0.8,0,0,0.8,930,36)">
            <circle cx="125" cy="155" r="25" style="fill:white;stroke:rgb(9,9,9);stroke-width:5px;"/>
        </g>
    </g>
    <g transform="matrix(1,0,0,1,-48.4735,0)">
        <g transform="matrix(1,0,0,1,48.4735,0)">
            <path d="M240,80L300,240" style="fill:none;stroke:rgb(9,9,9);stroke-width:4px;"/>
        </g>
        <g transform="matrix(1,0,0,2,48.4735,-80)">
            <path d="M180,80L180,160" style="fill:none;stroke:rgb(9,9,9);stroke-width:2.53px;"/>
        </g>
        <g transform="matrix(1,0,0,2,48.4735,-80)">
            <path d="M240,80L240,160" style="fill:none;stroke:rgb(9,9,9);stroke-width:2.53px;"/>
        </g>
        <g transform="matrix(0.8,0,0,0.8,128.473,-44)">
            <circle cx="125" cy="155" r="25" style="fill:white;stroke:rgb(9,9,9);stroke-width:5px;"/>
        </g>
        <g transform="matrix(0.8,0,0,0.8,188.473,-44)">
            <circle cx="125" cy="155" r="25" style="fill:white;stroke:rgb(9,9,9);stroke-width:5px;"/>
        </g>
        <g transform="matrix(0.8,0,0,0.8,128.473,116)">
            <circle cx="125" cy="155" r="25" style="fill:white;stroke:rgb(9,9,9);stroke-width:5px;"/>
        </g>
        <g transform="matrix(0.8,0,0,0.8,188.473,116)">
            <circle cx="125" cy="155" r="25" style="fill:white;stroke:rgb(9,9,9);stroke-width:5px;"/>
        </g>
        <g transform="matrix(0.8,0,0,0.8,248.473,116)">
            <circle cx="125" cy="155" r="25" style="fill:white;stroke:rgb(9,9,9);stroke-width:5px;"/>
        </g>
        <g transform="matrix(1,0,0,1,48.4735,0)">
            <path d="M360,80L360,240" style="fill:none;stroke:rgb(9,9,9);stroke-width:4px;"/>
        </g>
        <g transform="matrix(1,0,0,1,48.4735,0)">
            <path d="M360,80L420,240" style="fill:none;stroke:rgb(9,9,9);stroke-width:4px;"/>
        </g>
        <g transform="matrix(0.8,0,0,0.8,308.473,-44)">
            <circle cx="125" cy="155" r="25" style="fill:white;stroke:rgb(9,9,9);stroke-width:5px;"/>
        </g>
        <g transform="matrix(0.8,0,0,0.8,308.473,116)">
            <circle cx="125" cy="155" r="25" style="fill:white;stroke:rgb(9,9,9);stroke-width:5px;"/>
        </g>
        <g transform="matrix(0.8,0,0,0.8,368.473,116)">
            <circle cx="125" cy="155" r="25" style="fill:white;stroke:rgb(9,9,9);stroke-width:5px;"/>
        </g>
    </g>
    <g transform="matrix(1,0,0,1,-450,0)">
        <g transform="matrix(1,0,0,1,-584.652,42.9561)">
            <g transform="matrix(2.84369,0,0,2.84369,713.047,7.96219)">
                <path d="M134.781,12.572C134.751,12.722 134.691,12.951 134.691,13.001C134.691,13.18 134.831,13.27 134.98,13.27C135.1,13.27 135.279,13.19 135.349,12.991C135.359,12.971 135.478,12.503 135.538,12.254L135.757,11.357C135.817,11.138 135.877,10.919 135.927,10.689C135.967,10.52 136.046,10.231 136.056,10.191C136.206,9.882 136.734,8.976 137.68,8.976C138.129,8.976 138.218,9.344 138.218,9.673C138.218,10.291 137.73,11.566 137.571,11.995C137.481,12.224 137.471,12.343 137.471,12.453C137.471,12.921 137.82,13.27 138.288,13.27C139.224,13.27 139.593,11.815 139.593,11.736C139.593,11.636 139.503,11.636 139.473,11.636C139.374,11.636 139.374,11.666 139.324,11.815C139.125,12.493 138.796,13.051 138.308,13.051C138.138,13.051 138.069,12.951 138.069,12.722C138.069,12.473 138.158,12.234 138.248,12.014C138.437,11.486 138.856,10.391 138.856,9.823C138.856,9.155 138.427,8.757 137.71,8.757C136.813,8.757 136.325,9.394 136.156,9.623C136.106,9.066 135.698,8.757 135.239,8.757C134.781,8.757 134.592,9.145 134.492,9.325C134.333,9.663 134.193,10.251 134.193,10.291C134.193,10.391 134.293,10.391 134.313,10.391C134.412,10.391 134.422,10.381 134.482,10.161C134.652,9.454 134.851,8.976 135.209,8.976C135.409,8.976 135.518,9.105 135.518,9.434C135.518,9.643 135.488,9.753 135.359,10.271L134.781,12.572Z" style="fill-rule:nonzero;"/>
            </g>
            <g transform="matrix(2.84369,0,0,2.84369,713.047,7.96219)">
                <path d="M140.407,15.505C140.358,15.701 140.345,15.756 140.066,15.756C139.975,15.756 139.877,15.756 139.877,15.903C139.877,15.98 139.94,16.007 139.975,16.007C140.156,16.007 140.386,15.98 140.575,15.98C140.812,15.98 141.077,16.007 141.307,16.007C141.37,16.007 141.446,15.987 141.446,15.854C141.446,15.756 141.349,15.756 141.265,15.756C141.112,15.756 140.923,15.756 140.923,15.673C140.923,15.638 140.972,15.457 141,15.352C141.084,14.982 141.181,14.606 141.258,14.313C141.342,14.452 141.558,14.724 141.976,14.724C142.827,14.724 143.769,13.783 143.769,12.744C143.769,11.928 143.204,11.579 142.723,11.579C142.29,11.579 141.921,11.872 141.732,12.067C141.614,11.67 141.223,11.579 141.014,11.579C140.742,11.579 140.575,11.76 140.463,11.949C140.324,12.186 140.212,12.604 140.212,12.646C140.212,12.737 140.31,12.737 140.331,12.737C140.428,12.737 140.435,12.716 140.484,12.528C140.589,12.123 140.721,11.774 140.993,11.774C141.174,11.774 141.223,11.928 141.223,12.116C141.223,12.193 141.209,12.283 141.202,12.325L140.407,15.505ZM141.725,12.416C142.13,11.879 142.479,11.774 142.702,11.774C142.974,11.774 143.211,11.977 143.211,12.451C143.211,12.737 143.057,13.448 142.848,13.853C142.674,14.194 142.332,14.529 141.976,14.529C141.481,14.529 141.356,13.992 141.356,13.922C141.356,13.894 141.37,13.846 141.377,13.818L141.725,12.416Z" style="fill-rule:nonzero;"/>
            </g>
            <g transform="matrix(2.84369,0,0,2.84369,713.047,7.96219)">
                <path d="M154.101,9.902C154.25,9.902 154.44,9.902 154.44,9.703C154.44,9.504 154.25,9.504 154.111,9.504L148.143,9.504C148.004,9.504 147.815,9.504 147.815,9.703C147.815,9.902 148.004,9.902 148.153,9.902L154.101,9.902ZM154.111,11.835C154.25,11.835 154.44,11.835 154.44,11.636C154.44,11.437 154.25,11.437 154.101,11.437L148.153,11.437C148.004,11.437 147.815,11.437 147.815,11.636C147.815,11.835 148.004,11.835 148.143,11.835L154.111,11.835Z" style="fill-rule:nonzero;"/>
            </g>
            <g transform="matrix(2.84369,0,0,2.84369,713.047,7.96219)">
                <path d="M160.662,9.653C161.479,9.384 162.057,8.687 162.057,7.9C162.057,7.083 161.18,6.525 160.224,6.525C159.217,6.525 158.46,7.123 158.46,7.88C158.46,8.209 158.679,8.398 158.968,8.398C159.277,8.398 159.476,8.179 159.476,7.89C159.476,7.392 159.008,7.392 158.859,7.392C159.168,6.904 159.825,6.774 160.184,6.774C160.592,6.774 161.14,6.993 161.14,7.89C161.14,8.009 161.12,8.587 160.861,9.026C160.562,9.504 160.224,9.534 159.975,9.544C159.895,9.554 159.656,9.574 159.586,9.574C159.506,9.584 159.437,9.594 159.437,9.693C159.437,9.803 159.506,9.803 159.676,9.803L160.114,9.803C160.931,9.803 161.3,10.48 161.3,11.457C161.3,12.811 160.612,13.1 160.174,13.1C159.745,13.1 158.998,12.931 158.649,12.343C158.998,12.393 159.307,12.174 159.307,11.795C159.307,11.437 159.038,11.237 158.749,11.237C158.51,11.237 158.191,11.377 158.191,11.815C158.191,12.722 159.118,13.379 160.204,13.379C161.419,13.379 162.326,12.473 162.326,11.457C162.326,10.64 161.698,9.863 160.662,9.653Z" style="fill-rule:nonzero;"/>
            </g>
        </g>
        <g transform="matrix(1,0,0,1,-680,0)">
            <g transform="matrix(2.86962,0,0,2.86962,1023.51,209.511)">
                <path d="M58.606,12.572C58.576,12.722 58.517,12.951 58.517,13.001C58.517,13.18 58.656,13.27 58.805,13.27C58.925,13.27 59.104,13.19 59.174,12.991C59.184,12.971 59.304,12.503 59.363,12.254L59.583,11.357C59.642,11.138 59.702,10.919 59.752,10.689C59.792,10.52 59.871,10.231 59.881,10.191C60.031,9.882 60.559,8.976 61.505,8.976C61.954,8.976 62.043,9.344 62.043,9.673C62.043,10.291 61.555,11.566 61.396,11.995C61.306,12.224 61.296,12.343 61.296,12.453C61.296,12.921 61.645,13.27 62.113,13.27C63.05,13.27 63.418,11.815 63.418,11.736C63.418,11.636 63.329,11.636 63.299,11.636C63.199,11.636 63.199,11.666 63.149,11.815C62.95,12.493 62.621,13.051 62.133,13.051C61.964,13.051 61.894,12.951 61.894,12.722C61.894,12.473 61.984,12.234 62.073,12.014C62.262,11.486 62.681,10.391 62.681,9.823C62.681,9.155 62.253,8.757 61.535,8.757C60.639,8.757 60.15,9.394 59.981,9.623C59.931,9.066 59.523,8.757 59.064,8.757C58.606,8.757 58.417,9.145 58.317,9.325C58.158,9.663 58.018,10.251 58.018,10.291C58.018,10.391 58.118,10.391 58.138,10.391C58.238,10.391 58.248,10.381 58.307,10.161C58.477,9.454 58.676,8.976 59.035,8.976C59.234,8.976 59.343,9.105 59.343,9.434C59.343,9.643 59.314,9.753 59.184,10.271L58.606,12.572Z" style="fill-rule:nonzero;"/>
            </g>
            <g transform="matrix(2.86962,0,0,2.86962,1023.51,209.511)">
                <path d="M67.413,12.8C67.413,12.025 66.834,11.579 66.15,11.579C65.118,11.579 64.142,12.548 64.142,13.504C64.142,14.201 64.651,14.724 65.411,14.724C66.408,14.724 67.413,13.804 67.413,12.8ZM65.418,14.529C65.069,14.529 64.721,14.306 64.721,13.755C64.721,13.469 64.853,12.786 65.125,12.388C65.425,11.956 65.829,11.774 66.143,11.774C66.52,11.774 66.841,12.032 66.841,12.548C66.841,12.716 66.757,13.406 66.45,13.894C66.185,14.306 65.767,14.529 65.418,14.529Z" style="fill-rule:nonzero;"/>
            </g>
            <g transform="matrix(2.86962,0,0,2.86962,1023.51,209.511)">
                <path d="M77.752,9.902C77.901,9.902 78.09,9.902 78.09,9.703C78.09,9.504 77.901,9.504 77.762,9.504L71.794,9.504C71.655,9.504 71.465,9.504 71.465,9.703C71.465,9.902 71.655,9.902 71.804,9.902L77.752,9.902ZM77.762,11.835C77.901,11.835 78.09,11.835 78.09,11.636C78.09,11.437 77.901,11.437 77.752,11.437L71.804,11.437C71.655,11.437 71.465,11.437 71.465,11.636C71.465,11.835 71.655,11.835 71.794,11.835L77.762,11.835Z" style="fill-rule:nonzero;"/>
            </g>
            <g transform="matrix(2.86962,0,0,2.86962,1023.51,209.511)">
                <path d="M85.897,11.158C85.897,9.972 85.08,8.976 84.004,8.976C83.526,8.976 83.097,9.135 82.739,9.484L82.739,7.541C82.938,7.601 83.267,7.671 83.585,7.671C84.811,7.671 85.508,6.764 85.508,6.635C85.508,6.575 85.478,6.525 85.408,6.525C85.399,6.525 85.379,6.525 85.329,6.555C85.13,6.645 84.641,6.844 83.974,6.844C83.575,6.844 83.117,6.774 82.649,6.565C82.569,6.535 82.549,6.535 82.529,6.535C82.43,6.535 82.43,6.615 82.43,6.774L82.43,9.723C82.43,9.902 82.43,9.982 82.569,9.982C82.639,9.982 82.659,9.952 82.699,9.892C82.808,9.733 83.177,9.195 83.984,9.195C84.502,9.195 84.751,9.653 84.831,9.833C84.99,10.201 85.01,10.59 85.01,11.088C85.01,11.437 85.01,12.034 84.771,12.453C84.532,12.841 84.163,13.1 83.705,13.1C82.978,13.1 82.41,12.572 82.24,11.985C82.27,11.995 82.3,12.005 82.41,12.005C82.739,12.005 82.908,11.755 82.908,11.516C82.908,11.277 82.739,11.028 82.41,11.028C82.27,11.028 81.922,11.098 81.922,11.556C81.922,12.413 82.609,13.379 83.725,13.379C84.88,13.379 85.897,12.423 85.897,11.158Z" style="fill-rule:nonzero;"/>
            </g>
        </g>
    </g>
    <g transform="matrix(1,0,0,1,-630,0)">
        <g transform="matrix(2.8128,0,0,2.8128,1108.04,128.352)">
            <path d="M29.726,12.572C29.697,12.722 29.637,12.951 29.637,13.001C29.637,13.18 29.776,13.27 29.926,13.27C30.045,13.27 30.225,13.19 30.294,12.991C30.304,12.971 30.424,12.503 30.484,12.254L30.703,11.357C30.763,11.138 30.822,10.919 30.872,10.689C30.912,10.52 30.992,10.231 31.002,10.191C31.151,9.882 31.679,8.976 32.626,8.976C33.074,8.976 33.164,9.344 33.164,9.673C33.164,10.291 32.675,11.566 32.516,11.995C32.426,12.224 32.416,12.343 32.416,12.453C32.416,12.921 32.765,13.27 33.233,13.27C34.17,13.27 34.538,11.815 34.538,11.736C34.538,11.636 34.449,11.636 34.419,11.636C34.319,11.636 34.319,11.666 34.269,11.815C34.07,12.493 33.741,13.051 33.253,13.051C33.084,13.051 33.014,12.951 33.014,12.722C33.014,12.473 33.104,12.234 33.193,12.014C33.383,11.486 33.801,10.391 33.801,9.823C33.801,9.155 33.373,8.757 32.655,8.757C31.759,8.757 31.271,9.394 31.101,9.623C31.051,9.066 30.643,8.757 30.185,8.757C29.726,8.757 29.537,9.145 29.438,9.325C29.278,9.663 29.139,10.251 29.139,10.291C29.139,10.391 29.238,10.391 29.258,10.391C29.358,10.391 29.368,10.381 29.428,10.161C29.597,9.454 29.796,8.976 30.155,8.976C30.354,8.976 30.464,9.105 30.464,9.434C30.464,9.643 30.434,9.753 30.304,10.271L29.726,12.572Z" style="fill-rule:nonzero;"/>
        </g>
        <g transform="matrix(2.8128,0,0,2.8128,1108.04,128.352)">
            <path d="M38.54,12.081C38.568,11.977 38.568,11.942 38.568,11.935C38.568,11.781 38.442,11.712 38.331,11.712C38.17,11.712 38.038,11.844 38.01,11.977C37.891,11.788 37.654,11.579 37.291,11.579C36.42,11.579 35.506,12.514 35.506,13.511C35.506,14.229 35.994,14.655 36.566,14.655C36.887,14.655 37.194,14.494 37.438,14.278L37.284,14.906C37.208,15.199 37.159,15.387 36.894,15.624C36.587,15.882 36.287,15.882 36.113,15.882C35.792,15.882 35.701,15.861 35.576,15.833C35.75,15.749 35.799,15.582 35.799,15.484C35.799,15.317 35.667,15.226 35.527,15.226C35.332,15.226 35.13,15.387 35.13,15.652C35.13,16.07 35.729,16.077 36.12,16.077C37.215,16.077 37.682,15.519 37.78,15.122L38.54,12.081ZM37.577,13.727C37.549,13.832 37.549,13.846 37.431,13.985C37.187,14.278 36.852,14.459 36.587,14.459C36.231,14.459 36.064,14.159 36.064,13.797C36.064,13.49 36.252,12.709 36.434,12.402C36.727,11.914 37.054,11.774 37.291,11.774C37.78,11.774 37.912,12.297 37.912,12.367C37.912,12.381 37.912,12.395 37.891,12.472L37.577,13.727Z" style="fill-rule:nonzero;"/>
        </g>
        <g transform="matrix(2.8128,0,0,2.8128,1108.04,128.352)">
            <path d="M49.076,9.902C49.226,9.902 49.415,9.902 49.415,9.703C49.415,9.504 49.226,9.504 49.086,9.504L43.119,9.504C42.979,9.504 42.79,9.504 42.79,9.703C42.79,9.902 42.979,9.902 43.129,9.902L49.076,9.902ZM49.086,11.835C49.226,11.835 49.415,11.835 49.415,11.636C49.415,11.437 49.226,11.437 49.076,11.437L43.129,11.437C42.979,11.437 42.79,11.437 42.79,11.636C42.79,11.835 42.979,11.835 43.119,11.835L49.086,11.835Z" style="fill-rule:nonzero;"/>
        </g>
        <g transform="matrix(2.8128,0,0,2.8128,1108.04,128.352)">
            <path d="M57.49,7.093C57.58,6.973 57.58,6.953 57.58,6.744L55.159,6.744C53.944,6.744 53.924,6.615 53.884,6.425L53.635,6.425L53.306,8.478L53.555,8.478C53.585,8.318 53.675,7.691 53.804,7.571C53.874,7.511 54.651,7.511 54.781,7.511L56.843,7.511C56.733,7.671 55.946,8.757 55.727,9.085C54.83,10.43 54.502,11.815 54.502,12.831C54.502,12.931 54.502,13.379 54.96,13.379C55.418,13.379 55.418,12.931 55.418,12.831L55.418,12.323C55.418,11.775 55.448,11.227 55.528,10.689C55.568,10.46 55.707,9.604 56.145,8.986L57.49,7.093Z" style="fill-rule:nonzero;"/>
        </g>
    </g>
    <g transform="matrix(1,0,0,1,-180,0)">
        <path d="M680,40L680,260" style="fill:none;stroke:rgb(9,9,9);stroke-width:2px;stroke-linecap:butt;stroke-dasharray:2,10,0,0;"/>
    </g>
    <g transform="matrix(1,0,0,1,600,0)">
        <path d="M680,40L680,260" style="fill:none;stroke:rgb(9,9,9);stroke-width:2px;stroke-linecap:butt;stroke-dasharray:2,10,0,0;"/>
    </g>
    <g transform="matrix(1,0,0,1,2.67212,0)">
        <text x="20px" y="60px" style="font-family:'ArialMT', 'Arial', sans-serif;font-size:55.842px;">A</text>
    </g>
    <g transform="matrix(1,0,0,1,495.91,0)">
        <text x="20px" y="60px" style="font-family:'ArialMT', 'Arial', sans-serif;font-size:55.842px;">B</text>
    </g>
    <g transform="matrix(0.836498,0,0,0.836498,-4.0783,16.239)">
        <g transform="matrix(3.13946,0,0,3.13946,554.079,60)">
            <path d="M40.845,1.245C40.845,1.046 40.705,0.887 40.476,0.887C40.207,0.887 39.938,1.146 39.938,1.415C39.938,1.604 40.077,1.773 40.317,1.773C40.546,1.773 40.845,1.544 40.845,1.245ZM40.087,4.991C40.207,4.702 40.207,4.682 40.307,4.413C40.386,4.214 40.436,4.075 40.436,3.885C40.436,3.437 40.117,3.068 39.619,3.068C38.683,3.068 38.304,4.513 38.304,4.603C38.304,4.702 38.404,4.702 38.424,4.702C38.523,4.702 38.533,4.682 38.583,4.523C38.852,3.587 39.251,3.288 39.589,3.288C39.669,3.288 39.838,3.288 39.838,3.606C39.838,3.816 39.769,4.025 39.729,4.125C39.649,4.384 39.201,5.539 39.041,5.968C38.942,6.227 38.812,6.555 38.812,6.765C38.812,7.233 39.151,7.582 39.629,7.582C40.566,7.582 40.934,6.137 40.934,6.047C40.934,5.948 40.845,5.948 40.815,5.948C40.715,5.948 40.715,5.978 40.665,6.127C40.486,6.755 40.157,7.362 39.649,7.362C39.48,7.362 39.41,7.263 39.41,7.034C39.41,6.785 39.47,6.645 39.699,6.037L40.087,4.991Z" style="fill-rule:nonzero;"/>
        </g>
        <g transform="matrix(3.13946,0,0,3.13946,554.079,60)">
            <path d="M41.97,9.817C41.922,10.012 41.908,10.068 41.629,10.068C41.538,10.068 41.44,10.068 41.44,10.215C41.44,10.291 41.503,10.319 41.538,10.319C41.719,10.319 41.95,10.291 42.138,10.291C42.375,10.291 42.64,10.319 42.87,10.319C42.933,10.319 43.01,10.298 43.01,10.166C43.01,10.068 42.912,10.068 42.828,10.068C42.675,10.068 42.487,10.068 42.487,9.985C42.487,9.95 42.535,9.768 42.563,9.664C42.647,9.294 42.745,8.918 42.821,8.625C42.905,8.764 43.121,9.036 43.54,9.036C44.39,9.036 45.332,8.095 45.332,7.056C45.332,6.24 44.767,5.891 44.286,5.891C43.853,5.891 43.484,6.184 43.295,6.379C43.177,5.982 42.786,5.891 42.577,5.891C42.305,5.891 42.138,6.072 42.026,6.261C41.887,6.498 41.775,6.916 41.775,6.958C41.775,7.049 41.873,7.049 41.894,7.049C41.991,7.049 41.998,7.028 42.047,6.839C42.152,6.435 42.284,6.086 42.556,6.086C42.738,6.086 42.786,6.24 42.786,6.428C42.786,6.505 42.772,6.595 42.765,6.637L41.97,9.817ZM43.289,6.728C43.693,6.191 44.042,6.086 44.265,6.086C44.537,6.086 44.774,6.288 44.774,6.763C44.774,7.049 44.621,7.76 44.411,8.164C44.237,8.506 43.895,8.841 43.54,8.841C43.044,8.841 42.919,8.304 42.919,8.234C42.919,8.206 42.933,8.157 42.94,8.129L43.289,6.728Z" style="fill-rule:nonzero;"/>
        </g>
        <g transform="matrix(3.13946,0,0,3.13946,554.079,60)">
            <path d="M50.426,0.379C50.476,0.249 50.476,0.209 50.476,0.199C50.476,0.09 50.386,0 50.277,0C50.207,0 50.137,0.03 50.107,0.09L46.65,9.584C46.6,9.714 46.6,9.753 46.6,9.763C46.6,9.873 46.69,9.963 46.8,9.963C46.929,9.963 46.959,9.893 47.019,9.724L50.426,0.379Z" style="fill-rule:nonzero;"/>
        </g>
        <g transform="matrix(3.13946,0,0,3.13946,554.079,60)">
            <path d="M52.087,0.379C52.136,0.249 52.136,0.209 52.136,0.199C52.136,0.09 52.047,0 51.937,0C51.867,0 51.798,0.03 51.768,0.09L48.311,9.584C48.261,9.714 48.261,9.753 48.261,9.763C48.261,9.873 48.351,9.963 48.46,9.963C48.59,9.963 48.62,9.893 48.679,9.724L52.087,0.379Z" style="fill-rule:nonzero;"/>
        </g>
        <g transform="matrix(3.13946,0,0,3.13946,554.079,60)">
            <path d="M53.571,6.884C53.541,7.034 53.481,7.263 53.481,7.313C53.481,7.492 53.621,7.582 53.77,7.582C53.89,7.582 54.069,7.502 54.139,7.303C54.149,7.283 54.268,6.814 54.328,6.565L54.547,5.669C54.607,5.45 54.667,5.23 54.717,5.001C54.757,4.832 54.836,4.543 54.846,4.503C54.996,4.194 55.524,3.288 56.47,3.288C56.919,3.288 57.008,3.656 57.008,3.985C57.008,4.603 56.52,5.878 56.361,6.306C56.271,6.535 56.261,6.655 56.261,6.765C56.261,7.233 56.61,7.582 57.078,7.582C58.014,7.582 58.383,6.127 58.383,6.047C58.383,5.948 58.293,5.948 58.263,5.948C58.164,5.948 58.164,5.978 58.114,6.127C57.915,6.804 57.586,7.362 57.098,7.362C56.928,7.362 56.859,7.263 56.859,7.034C56.859,6.785 56.948,6.545 57.038,6.326C57.227,5.798 57.646,4.702 57.646,4.134C57.646,3.467 57.217,3.068 56.5,3.068C55.603,3.068 55.115,3.706 54.946,3.935C54.896,3.377 54.488,3.068 54.029,3.068C53.571,3.068 53.382,3.457 53.282,3.636C53.123,3.975 52.983,4.563 52.983,4.603C52.983,4.702 53.083,4.702 53.103,4.702C53.202,4.702 53.212,4.692 53.272,4.473C53.442,3.766 53.641,3.288 53.999,3.288C54.199,3.288 54.308,3.417 54.308,3.746C54.308,3.955 54.278,4.065 54.149,4.583L53.571,6.884Z" style="fill-rule:nonzero;"/>
        </g>
        <g transform="matrix(3.13946,0,0,3.13946,554.079,60)">
            <path d="M59.197,9.817C59.149,10.012 59.135,10.068 58.856,10.068C58.765,10.068 58.667,10.068 58.667,10.215C58.667,10.291 58.73,10.319 58.765,10.319C58.946,10.319 59.176,10.291 59.365,10.291C59.602,10.291 59.867,10.319 60.097,10.319C60.16,10.319 60.236,10.298 60.236,10.166C60.236,10.068 60.139,10.068 60.055,10.068C59.902,10.068 59.713,10.068 59.713,9.985C59.713,9.95 59.762,9.768 59.79,9.664C59.874,9.294 59.971,8.918 60.048,8.625C60.132,8.764 60.348,9.036 60.766,9.036C61.617,9.036 62.559,8.095 62.559,7.056C62.559,6.24 61.994,5.891 61.513,5.891C61.08,5.891 60.711,6.184 60.522,6.379C60.404,5.982 60.013,5.891 59.804,5.891C59.532,5.891 59.365,6.072 59.253,6.261C59.114,6.498 59.002,6.916 59.002,6.958C59.002,7.049 59.1,7.049 59.121,7.049C59.218,7.049 59.225,7.028 59.274,6.839C59.379,6.435 59.511,6.086 59.783,6.086C59.964,6.086 60.013,6.24 60.013,6.428C60.013,6.505 59.999,6.595 59.992,6.637L59.197,9.817ZM60.515,6.728C60.92,6.191 61.269,6.086 61.492,6.086C61.764,6.086 62.001,6.288 62.001,6.763C62.001,7.049 61.847,7.76 61.638,8.164C61.464,8.506 61.122,8.841 60.766,8.841C60.271,8.841 60.146,8.304 60.146,8.234C60.146,8.206 60.16,8.157 60.167,8.129L60.515,6.728Z" style="fill-rule:nonzero;"/>
        </g>
        <g transform="matrix(3.13946,0,0,3.13946,554.079,60)">
            <path d="M72.891,4.214C73.04,4.214 73.23,4.214 73.23,4.015C73.23,3.816 73.04,3.816 72.901,3.816L66.933,3.816C66.794,3.816 66.605,3.816 66.605,4.015C66.605,4.214 66.794,4.214 66.943,4.214L72.891,4.214ZM72.901,6.147C73.04,6.147 73.23,6.147 73.23,5.948C73.23,5.748 73.04,5.748 72.891,5.748L66.943,5.748C66.794,5.748 66.605,5.748 66.605,5.948C66.605,6.147 66.794,6.147 66.933,6.147L72.901,6.147Z" style="fill-rule:nonzero;"/>
        </g>
        <g transform="matrix(3.13946,0,0,3.13946,554.079,60)">
            <path d="M77.828,6.705L78.884,5.679C80.438,4.304 81.036,3.766 81.036,2.77C81.036,1.634 80.139,0.837 78.924,0.837C77.798,0.837 77.061,1.753 77.061,2.64C77.061,3.198 77.559,3.198 77.589,3.198C77.758,3.198 78.107,3.078 78.107,2.67C78.107,2.411 77.928,2.152 77.579,2.152C77.499,2.152 77.479,2.152 77.449,2.162C77.679,1.514 78.217,1.146 78.794,1.146C79.701,1.146 80.129,1.953 80.129,2.77C80.129,3.567 79.631,4.354 79.083,4.971L77.171,7.103C77.061,7.213 77.061,7.233 77.061,7.472L80.757,7.472L81.036,5.738L80.787,5.738C80.737,6.037 80.667,6.476 80.568,6.625C80.498,6.705 79.84,6.705 79.621,6.705L77.828,6.705Z" style="fill-rule:nonzero;"/>
        </g>
        <g transform="matrix(3.13946,0,0,3.13946,554.079,60)">
            <path d="M85.918,0.379C85.968,0.249 85.968,0.209 85.968,0.199C85.968,0.09 85.878,0 85.768,0C85.699,0 85.629,0.03 85.599,0.09L82.142,9.584C82.092,9.714 82.092,9.753 82.092,9.763C82.092,9.873 82.182,9.963 82.291,9.963C82.421,9.963 82.451,9.893 82.51,9.724L85.918,0.379Z" style="fill-rule:nonzero;"/>
        </g>
        <g transform="matrix(3.13946,0,0,3.13946,554.079,60)">
            <path d="M87.578,0.379C87.628,0.249 87.628,0.209 87.628,0.199C87.628,0.09 87.538,0 87.429,0C87.359,0 87.289,0.03 87.259,0.09L83.802,9.584C83.753,9.714 83.753,9.753 83.753,9.763C83.753,9.873 83.842,9.963 83.952,9.963C84.081,9.963 84.111,9.893 84.171,9.724L87.578,0.379Z" style="fill-rule:nonzero;"/>
        </g>
        <g transform="matrix(3.13946,0,0,3.13946,554.079,60)">
            <path d="M91.115,5.828L91.115,6.695C91.115,7.054 91.095,7.163 90.358,7.163L90.149,7.163L90.149,7.472C90.557,7.442 91.075,7.442 91.494,7.442C91.912,7.442 92.44,7.442 92.849,7.472L92.849,7.163L92.639,7.163C91.902,7.163 91.882,7.054 91.882,6.695L91.882,5.828L92.878,5.828L92.878,5.519L91.882,5.519L91.882,0.986C91.882,0.787 91.882,0.727 91.723,0.727C91.633,0.727 91.603,0.727 91.523,0.847L88.465,5.519L88.465,5.828L91.115,5.828ZM91.175,5.519L88.744,5.519L91.175,1.803L91.175,5.519Z" style="fill-rule:nonzero;"/>
        </g>
    </g>
    <g transform="matrix(2.72016,0,0,2.72016,-1843.34,162.143)">
        <g transform="matrix(1,0,0,1,854.36,0)">
            <path d="M31.709,24.23C31.709,24.03 31.57,23.871 31.341,23.871C31.072,23.871 30.803,24.13 30.803,24.399C30.803,24.588 30.942,24.758 31.181,24.758C31.41,24.758 31.709,24.529 31.709,24.23ZM30.952,27.976C31.072,27.687 31.072,27.667 31.171,27.398C31.251,27.199 31.301,27.059 31.301,26.87C31.301,26.422 30.982,26.053 30.484,26.053C29.547,26.053 29.169,27.497 29.169,27.587C29.169,27.687 29.268,27.687 29.288,27.687C29.388,27.687 29.398,27.667 29.448,27.507C29.717,26.571 30.115,26.272 30.454,26.272C30.534,26.272 30.703,26.272 30.703,26.591C30.703,26.8 30.633,27.009 30.593,27.109C30.514,27.368 30.065,28.524 29.906,28.952C29.806,29.211 29.677,29.54 29.677,29.749C29.677,30.217 30.015,30.566 30.494,30.566C31.43,30.566 31.799,29.121 31.799,29.032C31.799,28.932 31.709,28.932 31.679,28.932C31.58,28.932 31.58,28.962 31.53,29.111C31.35,29.739 31.022,30.347 30.514,30.347C30.344,30.347 30.275,30.247 30.275,30.018C30.275,29.769 30.334,29.629 30.563,29.022L30.952,27.976Z" style="fill-rule:nonzero;"/>
        </g>
        <g transform="matrix(1,0,0,1,854.36,0)">
            <path d="M36.015,30.096C36.015,29.322 35.436,28.875 34.753,28.875C33.721,28.875 32.744,29.845 32.744,30.8C32.744,31.497 33.253,32.021 34.014,32.021C35.011,32.021 36.015,31.1 36.015,30.096ZM34.021,31.825C33.672,31.825 33.323,31.602 33.323,31.051C33.323,30.765 33.456,30.082 33.728,29.684C34.028,29.252 34.432,29.071 34.746,29.071C35.122,29.071 35.443,29.329 35.443,29.845C35.443,30.012 35.36,30.702 35.053,31.191C34.788,31.602 34.369,31.825 34.021,31.825Z" style="fill-rule:nonzero;"/>
        </g>
        <g transform="matrix(1,0,0,1,854.36,0)">
            <path d="M41.116,23.363C41.166,23.233 41.166,23.194 41.166,23.184C41.166,23.074 41.076,22.984 40.967,22.984C40.897,22.984 40.827,23.014 40.797,23.074L37.34,32.568C37.291,32.698 37.291,32.738 37.291,32.748C37.291,32.857 37.38,32.947 37.49,32.947C37.619,32.947 37.649,32.877 37.709,32.708L41.116,23.363Z" style="fill-rule:nonzero;"/>
        </g>
        <g transform="matrix(1,0,0,1,854.36,0)">
            <path d="M42.777,23.363C42.827,23.233 42.827,23.194 42.827,23.184C42.827,23.074 42.737,22.984 42.627,22.984C42.558,22.984 42.488,23.014 42.458,23.074L39.001,32.568C38.951,32.698 38.951,32.738 38.951,32.748C38.951,32.857 39.041,32.947 39.15,32.947C39.28,32.947 39.31,32.877 39.37,32.708L42.777,23.363Z" style="fill-rule:nonzero;"/>
        </g>
        <g transform="matrix(1,0,0,1,854.36,0)">
            <path d="M44.261,29.869C44.231,30.018 44.172,30.247 44.172,30.297C44.172,30.476 44.311,30.566 44.46,30.566C44.58,30.566 44.759,30.486 44.829,30.287C44.839,30.267 44.959,29.799 45.018,29.55L45.238,28.653C45.297,28.434 45.357,28.215 45.407,27.986C45.447,27.816 45.526,27.527 45.536,27.488C45.686,27.179 46.214,26.272 47.16,26.272C47.609,26.272 47.698,26.641 47.698,26.969C47.698,27.587 47.21,28.862 47.051,29.291C46.961,29.52 46.951,29.639 46.951,29.749C46.951,30.217 47.3,30.566 47.768,30.566C48.705,30.566 49.073,29.111 49.073,29.032C49.073,28.932 48.983,28.932 48.954,28.932C48.854,28.932 48.854,28.962 48.804,29.111C48.605,29.789 48.276,30.347 47.788,30.347C47.619,30.347 47.549,30.247 47.549,30.018C47.549,29.769 47.639,29.53 47.728,29.311C47.917,28.783 48.336,27.687 48.336,27.119C48.336,26.451 47.908,26.053 47.19,26.053C46.294,26.053 45.805,26.691 45.636,26.92C45.586,26.362 45.178,26.053 44.719,26.053C44.261,26.053 44.072,26.441 43.972,26.621C43.813,26.96 43.673,27.547 43.673,27.587C43.673,27.687 43.773,27.687 43.793,27.687C43.893,27.687 43.903,27.677 43.962,27.458C44.132,26.75 44.331,26.272 44.69,26.272C44.889,26.272 44.998,26.402 44.998,26.73C44.998,26.94 44.969,27.049 44.839,27.567L44.261,29.869Z" style="fill-rule:nonzero;"/>
        </g>
        <g transform="matrix(1,0,0,1,854.36,0)">
            <path d="M53.068,30.096C53.068,29.322 52.489,28.875 51.805,28.875C50.773,28.875 49.797,29.845 49.797,30.8C49.797,31.497 50.306,32.021 51.066,32.021C52.063,32.021 53.068,31.1 53.068,30.096ZM51.073,31.825C50.724,31.825 50.376,31.602 50.376,31.051C50.376,30.765 50.508,30.082 50.78,29.684C51.08,29.252 51.484,29.071 51.798,29.071C52.175,29.071 52.496,29.329 52.496,29.845C52.496,30.012 52.412,30.702 52.105,31.191C51.84,31.602 51.422,31.825 51.073,31.825Z" style="fill-rule:nonzero;"/>
        </g>
        <g transform="matrix(1,0,0,1,854.36,0)">
            <path d="M63.407,27.199C63.556,27.199 63.745,27.199 63.745,26.999C63.745,26.8 63.556,26.8 63.417,26.8L57.449,26.8C57.31,26.8 57.12,26.8 57.12,26.999C57.12,27.199 57.31,27.199 57.459,27.199L63.407,27.199ZM63.417,29.131C63.556,29.131 63.745,29.131 63.745,28.932C63.745,28.733 63.556,28.733 63.407,28.733L57.459,28.733C57.31,28.733 57.12,28.733 57.12,28.932C57.12,29.131 57.31,29.131 57.449,29.131L63.417,29.131Z" style="fill-rule:nonzero;"/>
        </g>
        <g transform="matrix(1,0,0,1,854.36,0)">
            <path d="M69.968,26.95C70.785,26.681 71.362,25.983 71.362,25.196C71.362,24.379 70.486,23.821 69.529,23.821C68.523,23.821 67.766,24.419 67.766,25.176C67.766,25.505 67.985,25.694 68.274,25.694C68.583,25.694 68.782,25.475 68.782,25.186C68.782,24.688 68.314,24.688 68.164,24.688C68.473,24.2 69.131,24.07 69.489,24.07C69.898,24.07 70.446,24.29 70.446,25.186C70.446,25.306 70.426,25.884 70.167,26.322C69.868,26.8 69.529,26.83 69.28,26.84C69.2,26.85 68.961,26.87 68.892,26.87C68.812,26.88 68.742,26.89 68.742,26.989C68.742,27.099 68.812,27.099 68.981,27.099L69.42,27.099C70.237,27.099 70.605,27.776 70.605,28.753C70.605,30.108 69.918,30.397 69.479,30.397C69.051,30.397 68.304,30.227 67.955,29.639C68.304,29.689 68.613,29.47 68.613,29.092C68.613,28.733 68.344,28.534 68.055,28.534C67.816,28.534 67.497,28.673 67.497,29.111C67.497,30.018 68.423,30.676 69.509,30.676C70.725,30.676 71.631,29.769 71.631,28.753C71.631,27.936 71.004,27.159 69.968,26.95Z" style="fill-rule:nonzero;"/>
        </g>
        <g transform="matrix(1,0,0,1,854.36,0)">
            <path d="M76.433,23.363C76.483,23.233 76.483,23.194 76.483,23.184C76.483,23.074 76.394,22.984 76.284,22.984C76.214,22.984 76.144,23.014 76.115,23.074L72.658,32.568C72.608,32.698 72.608,32.738 72.608,32.748C72.608,32.857 72.697,32.947 72.807,32.947C72.936,32.947 72.966,32.877 73.026,32.708L76.433,23.363Z" style="fill-rule:nonzero;"/>
        </g>
        <g transform="matrix(1,0,0,1,854.36,0)">
            <path d="M78.094,23.363C78.144,23.233 78.144,23.194 78.144,23.184C78.144,23.074 78.054,22.984 77.944,22.984C77.875,22.984 77.805,23.014 77.775,23.074L74.318,32.568C74.268,32.698 74.268,32.738 74.268,32.748C74.268,32.857 74.358,32.947 74.468,32.947C74.597,32.947 74.627,32.877 74.687,32.708L78.094,23.363Z" style="fill-rule:nonzero;"/>
        </g>
        <g transform="matrix(1,0,0,1,854.36,0)">
            <path d="M83.175,28.454C83.175,27.268 82.358,26.272 81.282,26.272C80.804,26.272 80.375,26.431 80.017,26.78L80.017,24.837C80.216,24.897 80.545,24.967 80.864,24.967C82.089,24.967 82.786,24.06 82.786,23.931C82.786,23.871 82.756,23.821 82.687,23.821C82.677,23.821 82.657,23.821 82.607,23.851C82.408,23.941 81.92,24.14 81.252,24.14C80.854,24.14 80.395,24.07 79.927,23.861C79.847,23.831 79.827,23.831 79.808,23.831C79.708,23.831 79.708,23.911 79.708,24.07L79.708,27.019C79.708,27.199 79.708,27.278 79.847,27.278C79.917,27.278 79.937,27.248 79.977,27.189C80.086,27.029 80.455,26.491 81.262,26.491C81.78,26.491 82.029,26.95 82.109,27.129C82.268,27.497 82.288,27.886 82.288,28.384C82.288,28.733 82.288,29.331 82.049,29.749C81.81,30.138 81.441,30.397 80.983,30.397C80.256,30.397 79.688,29.869 79.519,29.281C79.548,29.291 79.578,29.301 79.688,29.301C80.017,29.301 80.186,29.052 80.186,28.813C80.186,28.573 80.017,28.324 79.688,28.324C79.548,28.324 79.2,28.394 79.2,28.852C79.2,29.709 79.887,30.676 81.003,30.676C82.159,30.676 83.175,29.719 83.175,28.454Z" style="fill-rule:nonzero;"/>
        </g>
    </g>
    <g transform="matrix(1,0,0,1,830,0)">
        <g transform="matrix(1,0,0,1,610,0)">
            <path d="M240,160L180,240" style="fill:none;stroke:rgb(9,9,9);stroke-width:4px;"/>
        </g>
        <g transform="matrix(1,0,0,1,610,0)">
            <path d="M180,200L180,160" style="fill:none;stroke:rgb(9,9,9);stroke-width:4px;"/>
        </g>
        <g transform="matrix(1,0,0,1,60,0)">
            <path d="M724,200L736,200" style="fill:none;stroke:rgb(9,9,9);stroke-width:4px;stroke-linecap:butt;"/>
        </g>
        <g transform="matrix(1,0,0,1,610,0)">
            <path d="M300,160L240,240" style="fill:none;stroke:rgb(9,9,9);stroke-width:4px;"/>
        </g>
        <g transform="matrix(0.8,0,0,0.8,690,-44)">
            <circle cx="125" cy="155" r="25" style="fill:white;stroke:rgb(9,9,9);stroke-width:5px;"/>
        </g>
        <g transform="matrix(0.8,0,0,0.8,690,116)">
            <circle cx="125" cy="155" r="25" style="stroke:rgb(9,9,9);stroke-width:5px;"/>
        </g>
        <g transform="matrix(1,0,0,1,670,0)">
            <path d="M300,160L240,240" style="fill:none;stroke:rgb(9,9,9);stroke-width:4px;"/>
        </g>
        <g transform="matrix(0.8,0,0,0.8,810,116)">
            <circle cx="125" cy="155" r="25" style="fill:white;stroke:rgb(9,9,9);stroke-width:5px;"/>
        </g>
        <g transform="matrix(0.8,0,0,0.8,750,116)">
            <circle cx="125" cy="155" r="25" style="fill:rgb(9,9,9);stroke:black;stroke-width:5px;"/>
        </g>
        <g transform="matrix(0.8,0,0,0.8,750,-44)">
            <circle cx="125" cy="155" r="25" style="stroke:rgb(9,9,9);stroke-width:5px;"/>
        </g>
        <g transform="matrix(0.8,0,0,0.8,690,36)">
            <circle cx="125" cy="155" r="25" style="fill:white;stroke:rgb(9,9,9);stroke-width:5px;"/>
        </g>
        <g transform="matrix(0.8,0,0,0.8,750,36)">
            <circle cx="125" cy="155" r="25" style="stroke:rgb(9,9,9);stroke-width:5px;"/>
        </g>
        <g transform="matrix(0.8,0,0,0.8,810,36)">
            <circle cx="125" cy="155" r="25" style="stroke:rgb(9,9,9);stroke-width:5px;"/>
        </g>
        <g transform="matrix(0.8,0,0,0.8,870,-44)">
            <circle cx="125" cy="155" r="25" style="fill:rgb(9,9,9);stroke:black;stroke-width:5px;"/>
        </g>
        <g transform="matrix(0.8,0,0,0.8,930,-44)">
            <circle cx="125" cy="155" r="25" style="fill:rgb(9,9,9);stroke:black;stroke-width:5px;"/>
        </g>
        <g transform="matrix(0.8,0,0,0.8,810,-44)">
            <circle cx="125" cy="155" r="25" style="fill:white;stroke:rgb(9,9,9);stroke-width:5px;"/>
        </g>
        <g transform="matrix(0.8,0,0,0.8,870,36)">
            <circle cx="125" cy="155" r="25" style="fill:white;stroke:rgb(9,9,9);stroke-width:5px;"/>
        </g>
    </g>
    <g transform="matrix(1,0,0,1,1270.82,0)">
        <text x="20px" y="60px" style="font-family:'ArialMT', 'Arial', sans-serif;font-size:55.842px;">C</text>
    </g>
    <g transform="matrix(0.815685,0,0,0.815685,-426.062,5.27365)">
        <g transform="matrix(3.21957,0,0,3.21957,2066.68,-160.352)">
            <path d="M40.845,74.346C40.845,74.147 40.705,73.987 40.476,73.987C40.207,73.987 39.938,74.246 39.938,74.515C39.938,74.704 40.077,74.874 40.317,74.874C40.546,74.874 40.845,74.645 40.845,74.346ZM40.087,78.092C40.207,77.803 40.207,77.783 40.307,77.514C40.386,77.315 40.436,77.175 40.436,76.986C40.436,76.538 40.117,76.169 39.619,76.169C38.683,76.169 38.304,77.614 38.304,77.703C38.304,77.803 38.404,77.803 38.424,77.803C38.523,77.803 38.533,77.783 38.583,77.623C38.852,76.687 39.251,76.388 39.589,76.388C39.669,76.388 39.838,76.388 39.838,76.707C39.838,76.916 39.769,77.125 39.729,77.225C39.649,77.484 39.201,78.64 39.041,79.068C38.942,79.327 38.812,79.656 38.812,79.865C38.812,80.333 39.151,80.682 39.629,80.682C40.566,80.682 40.934,79.237 40.934,79.148C40.934,79.048 40.845,79.048 40.815,79.048C40.715,79.048 40.715,79.078 40.665,79.227C40.486,79.855 40.157,80.463 39.649,80.463C39.48,80.463 39.41,80.363 39.41,80.134C39.41,79.885 39.47,79.746 39.699,79.138L40.087,78.092Z" style="fill-rule:nonzero;"/>
        </g>
        <g transform="matrix(3.21957,0,0,3.21957,2066.68,-160.352)">
            <path d="M41.97,82.918C41.922,83.113 41.908,83.169 41.629,83.169C41.538,83.169 41.44,83.169 41.44,83.315C41.44,83.392 41.503,83.42 41.538,83.42C41.719,83.42 41.95,83.392 42.138,83.392C42.375,83.392 42.64,83.42 42.87,83.42C42.933,83.42 43.01,83.399 43.01,83.266C43.01,83.169 42.912,83.169 42.828,83.169C42.675,83.169 42.487,83.169 42.487,83.085C42.487,83.05 42.535,82.869 42.563,82.764C42.647,82.395 42.745,82.018 42.821,81.725C42.905,81.865 43.121,82.137 43.54,82.137C44.39,82.137 45.332,81.195 45.332,80.156C45.332,79.34 44.767,78.991 44.286,78.991C43.853,78.991 43.484,79.284 43.295,79.479C43.177,79.082 42.786,78.991 42.577,78.991C42.305,78.991 42.138,79.173 42.026,79.361C41.887,79.598 41.775,80.016 41.775,80.058C41.775,80.149 41.873,80.149 41.894,80.149C41.991,80.149 41.998,80.128 42.047,79.94C42.152,79.535 42.284,79.187 42.556,79.187C42.738,79.187 42.786,79.34 42.786,79.528C42.786,79.605 42.772,79.696 42.765,79.738L41.97,82.918ZM43.289,79.828C43.693,79.291 44.042,79.187 44.265,79.187C44.537,79.187 44.774,79.389 44.774,79.863C44.774,80.149 44.621,80.86 44.411,81.265C44.237,81.607 43.895,81.941 43.54,81.941C43.044,81.941 42.919,81.404 42.919,81.335C42.919,81.307 42.933,81.258 42.94,81.23L43.289,79.828Z" style="fill-rule:nonzero;"/>
        </g>
        <g transform="matrix(3.21957,0,0,3.21957,2066.68,-160.352)">
            <path d="M50.426,73.479C50.476,73.349 50.476,73.31 50.476,73.3C50.476,73.19 50.386,73.1 50.277,73.1C50.207,73.1 50.137,73.13 50.107,73.19L46.65,82.684C46.6,82.814 46.6,82.854 46.6,82.864C46.6,82.973 46.69,83.063 46.8,83.063C46.929,83.063 46.959,82.993 47.019,82.824L50.426,73.479Z" style="fill-rule:nonzero;"/>
        </g>
        <g transform="matrix(3.21957,0,0,3.21957,2066.68,-160.352)">
            <path d="M52.087,73.479C52.136,73.349 52.136,73.31 52.136,73.3C52.136,73.19 52.047,73.1 51.937,73.1C51.867,73.1 51.798,73.13 51.768,73.19L48.311,82.684C48.261,82.814 48.261,82.854 48.261,82.864C48.261,82.973 48.351,83.063 48.46,83.063C48.59,83.063 48.62,82.993 48.679,82.824L52.087,73.479Z" style="fill-rule:nonzero;"/>
        </g>
        <g transform="matrix(3.21957,0,0,3.21957,2066.68,-160.352)">
            <path d="M53.571,79.985C53.541,80.134 53.481,80.363 53.481,80.413C53.481,80.592 53.621,80.682 53.77,80.682C53.89,80.682 54.069,80.602 54.139,80.403C54.149,80.383 54.268,79.915 54.328,79.666L54.547,78.769C54.607,78.55 54.667,78.331 54.717,78.102C54.757,77.932 54.836,77.643 54.846,77.604C54.996,77.295 55.524,76.388 56.47,76.388C56.919,76.388 57.008,76.757 57.008,77.085C57.008,77.703 56.52,78.978 56.361,79.407C56.271,79.636 56.261,79.755 56.261,79.865C56.261,80.333 56.61,80.682 57.078,80.682C58.014,80.682 58.383,79.227 58.383,79.148C58.383,79.048 58.293,79.048 58.263,79.048C58.164,79.048 58.164,79.078 58.114,79.227C57.915,79.905 57.586,80.463 57.098,80.463C56.928,80.463 56.859,80.363 56.859,80.134C56.859,79.885 56.948,79.646 57.038,79.427C57.227,78.899 57.646,77.803 57.646,77.235C57.646,76.567 57.217,76.169 56.5,76.169C55.603,76.169 55.115,76.807 54.946,77.036C54.896,76.478 54.488,76.169 54.029,76.169C53.571,76.169 53.382,76.557 53.282,76.737C53.123,77.076 52.983,77.663 52.983,77.703C52.983,77.803 53.083,77.803 53.103,77.803C53.202,77.803 53.212,77.793 53.272,77.574C53.442,76.866 53.641,76.388 53.999,76.388C54.199,76.388 54.308,76.518 54.308,76.846C54.308,77.056 54.278,77.165 54.149,77.683L53.571,79.985Z" style="fill-rule:nonzero;"/>
        </g>
        <g transform="matrix(3.21957,0,0,3.21957,2066.68,-160.352)">
            <path d="M59.197,82.918C59.149,83.113 59.135,83.169 58.856,83.169C58.765,83.169 58.667,83.169 58.667,83.315C58.667,83.392 58.73,83.42 58.765,83.42C58.946,83.42 59.176,83.392 59.365,83.392C59.602,83.392 59.867,83.42 60.097,83.42C60.16,83.42 60.236,83.399 60.236,83.266C60.236,83.169 60.139,83.169 60.055,83.169C59.902,83.169 59.713,83.169 59.713,83.085C59.713,83.05 59.762,82.869 59.79,82.764C59.874,82.395 59.971,82.018 60.048,81.725C60.132,81.865 60.348,82.137 60.766,82.137C61.617,82.137 62.559,81.195 62.559,80.156C62.559,79.34 61.994,78.991 61.513,78.991C61.08,78.991 60.711,79.284 60.522,79.479C60.404,79.082 60.013,78.991 59.804,78.991C59.532,78.991 59.365,79.173 59.253,79.361C59.114,79.598 59.002,80.016 59.002,80.058C59.002,80.149 59.1,80.149 59.121,80.149C59.218,80.149 59.225,80.128 59.274,79.94C59.379,79.535 59.511,79.187 59.783,79.187C59.964,79.187 60.013,79.34 60.013,79.528C60.013,79.605 59.999,79.696 59.992,79.738L59.197,82.918ZM60.515,79.828C60.92,79.291 61.269,79.187 61.492,79.187C61.764,79.187 62.001,79.389 62.001,79.863C62.001,80.149 61.847,80.86 61.638,81.265C61.464,81.607 61.122,81.941 60.766,81.941C60.271,81.941 60.146,81.404 60.146,81.335C60.146,81.307 60.16,81.258 60.167,81.23L60.515,79.828Z" style="fill-rule:nonzero;"/>
        </g>
        <g transform="matrix(3.21957,0,0,3.21957,2066.68,-160.352)">
            <path d="M72.891,77.315C73.04,77.315 73.23,77.315 73.23,77.115C73.23,76.916 73.04,76.916 72.901,76.916L66.933,76.916C66.794,76.916 66.605,76.916 66.605,77.115C66.605,77.315 66.794,77.315 66.943,77.315L72.891,77.315ZM72.901,79.247C73.04,79.247 73.23,79.247 73.23,79.048C73.23,78.849 73.04,78.849 72.891,78.849L66.943,78.849C66.794,78.849 66.605,78.849 66.605,79.048C66.605,79.247 66.794,79.247 66.933,79.247L72.901,79.247Z" style="fill-rule:nonzero;"/>
        </g>
        <g transform="matrix(3.21957,0,0,3.21957,2066.68,-160.352)">
            <path d="M79.452,77.066C80.269,76.797 80.847,76.099 80.847,75.312C80.847,74.495 79.97,73.937 79.014,73.937C78.007,73.937 77.25,74.535 77.25,75.292C77.25,75.621 77.469,75.81 77.758,75.81C78.067,75.81 78.266,75.591 78.266,75.302C78.266,74.804 77.798,74.804 77.649,74.804C77.958,74.316 78.615,74.186 78.974,74.186C79.382,74.186 79.93,74.406 79.93,75.302C79.93,75.422 79.91,76 79.651,76.438C79.352,76.916 79.014,76.946 78.765,76.956C78.685,76.966 78.446,76.986 78.376,76.986C78.296,76.996 78.227,77.006 78.227,77.105C78.227,77.215 78.296,77.215 78.466,77.215L78.904,77.215C79.721,77.215 80.09,77.892 80.09,78.869C80.09,80.224 79.402,80.513 78.964,80.513C78.535,80.513 77.788,80.343 77.439,79.755C77.788,79.805 78.097,79.586 78.097,79.208C78.097,78.849 77.828,78.65 77.539,78.65C77.3,78.65 76.981,78.789 76.981,79.227C76.981,80.134 77.908,80.792 78.994,80.792C80.209,80.792 81.116,79.885 81.116,78.869C81.116,78.052 80.488,77.275 79.452,77.066Z" style="fill-rule:nonzero;"/>
        </g>
        <g transform="matrix(3.21957,0,0,3.21957,2066.68,-160.352)">
            <path d="M85.918,73.479C85.968,73.349 85.968,73.31 85.968,73.3C85.968,73.19 85.878,73.1 85.768,73.1C85.699,73.1 85.629,73.13 85.599,73.19L82.142,82.684C82.092,82.814 82.092,82.854 82.092,82.864C82.092,82.973 82.182,83.063 82.291,83.063C82.421,83.063 82.451,82.993 82.51,82.824L85.918,73.479Z" style="fill-rule:nonzero;"/>
        </g>
        <g transform="matrix(3.21957,0,0,3.21957,2066.68,-160.352)">
            <path d="M87.578,73.479C87.628,73.349 87.628,73.31 87.628,73.3C87.628,73.19 87.538,73.1 87.429,73.1C87.359,73.1 87.289,73.13 87.259,73.19L83.802,82.684C83.753,82.814 83.753,82.854 83.753,82.864C83.753,82.973 83.842,83.063 83.952,83.063C84.081,83.063 84.111,82.993 84.171,82.824L87.578,73.479Z" style="fill-rule:nonzero;"/>
        </g>
        <g transform="matrix(3.21957,0,0,3.21957,2066.68,-160.352)">
            <path d="M92.659,78.57C92.659,77.384 91.842,76.388 90.766,76.388C90.288,76.388 89.86,76.548 89.501,76.896L89.501,74.953C89.7,75.013 90.029,75.083 90.348,75.083C91.573,75.083 92.271,74.176 92.271,74.047C92.271,73.987 92.241,73.937 92.171,73.937C92.161,73.937 92.141,73.937 92.091,73.967C91.892,74.057 91.404,74.256 90.736,74.256C90.338,74.256 89.88,74.186 89.411,73.977C89.332,73.947 89.312,73.947 89.292,73.947C89.192,73.947 89.192,74.027 89.192,74.186L89.192,77.135C89.192,77.315 89.192,77.394 89.332,77.394C89.401,77.394 89.421,77.364 89.461,77.305C89.571,77.145 89.939,76.607 90.746,76.607C91.264,76.607 91.514,77.066 91.593,77.245C91.753,77.614 91.773,78.002 91.773,78.5C91.773,78.849 91.773,79.447 91.533,79.865C91.294,80.254 90.926,80.513 90.467,80.513C89.74,80.513 89.172,79.985 89.003,79.397C89.033,79.407 89.063,79.417 89.172,79.417C89.501,79.417 89.67,79.168 89.67,78.929C89.67,78.689 89.501,78.44 89.172,78.44C89.033,78.44 88.684,78.51 88.684,78.968C88.684,79.825 89.372,80.792 90.487,80.792C91.643,80.792 92.659,79.835 92.659,78.57Z" style="fill-rule:nonzero;"/>
        </g>
    </g>
    <g transform="matrix(0.844885,0,0,0.844885,-491.497,34.3036)">
        <g transform="matrix(3.21957,0,0,3.21957,2066.68,-160.352)">
            <path d="M41.391,92.279C41.391,92.079 41.252,91.92 41.022,91.92C40.753,91.92 40.484,92.179 40.484,92.448C40.484,92.637 40.624,92.807 40.863,92.807C41.092,92.807 41.391,92.577 41.391,92.279ZM40.634,96.024C40.753,95.736 40.753,95.716 40.853,95.447C40.933,95.247 40.983,95.108 40.983,94.919C40.983,94.47 40.664,94.102 40.166,94.102C39.229,94.102 38.851,95.546 38.851,95.636C38.851,95.736 38.95,95.736 38.97,95.736C39.07,95.736 39.08,95.716 39.13,95.556C39.399,94.62 39.797,94.321 40.136,94.321C40.216,94.321 40.385,94.321 40.385,94.64C40.385,94.849 40.315,95.058 40.275,95.158C40.196,95.417 39.747,96.572 39.588,97.001C39.488,97.26 39.359,97.589 39.359,97.798C39.359,98.266 39.697,98.615 40.176,98.615C41.112,98.615 41.481,97.17 41.481,97.081C41.481,96.981 41.391,96.981 41.361,96.981C41.262,96.981 41.262,97.011 41.212,97.16C41.032,97.788 40.704,98.396 40.196,98.396C40.026,98.396 39.956,98.296 39.956,98.067C39.956,97.818 40.016,97.678 40.245,97.071L40.634,96.024Z" style="fill-rule:nonzero;"/>
        </g>
        <g transform="matrix(3.21957,0,0,3.21957,2066.68,-160.352)">
            <path d="M45.049,97.329C44.797,97.37 44.693,97.566 44.693,97.719C44.693,97.907 44.839,97.977 44.965,97.977C45.118,97.977 45.362,97.866 45.362,97.531C45.362,97.057 44.818,96.924 44.442,96.924C43.396,96.924 42.426,97.886 42.426,98.856C42.426,99.456 42.845,100.069 43.717,100.069C44.895,100.069 45.446,99.379 45.446,99.281C45.446,99.239 45.383,99.163 45.327,99.163C45.286,99.163 45.272,99.177 45.216,99.232C44.672,99.874 43.856,99.874 43.73,99.874C43.228,99.874 43.005,99.532 43.005,99.1C43.005,98.898 43.103,98.138 43.465,97.656C43.73,97.315 44.093,97.119 44.442,97.119C44.539,97.119 44.874,97.133 45.049,97.329Z" style="fill-rule:nonzero;"/>
        </g>
        <g transform="matrix(3.21957,0,0,3.21957,2066.68,-160.352)">
            <path d="M50.426,91.412C50.476,91.282 50.476,91.242 50.476,91.232C50.476,91.123 50.386,91.033 50.277,91.033C50.207,91.033 50.137,91.063 50.107,91.123L46.65,100.617C46.6,100.747 46.6,100.787 46.6,100.797C46.6,100.906 46.69,100.996 46.8,100.996C46.929,100.996 46.959,100.926 47.019,100.757L50.426,91.412Z" style="fill-rule:nonzero;"/>
        </g>
        <g transform="matrix(3.21957,0,0,3.21957,2066.68,-160.352)">
            <path d="M52.087,91.412C52.136,91.282 52.136,91.242 52.136,91.232C52.136,91.123 52.047,91.033 51.937,91.033C51.867,91.033 51.798,91.063 51.768,91.123L48.311,100.617C48.261,100.747 48.261,100.787 48.261,100.797C48.261,100.906 48.351,100.996 48.46,100.996C48.59,100.996 48.62,100.926 48.679,100.757L52.087,91.412Z" style="fill-rule:nonzero;"/>
        </g>
        <g transform="matrix(3.21957,0,0,3.21957,2066.68,-160.352)">
            <path d="M53.571,97.917C53.541,98.067 53.481,98.296 53.481,98.346C53.481,98.525 53.621,98.615 53.77,98.615C53.89,98.615 54.069,98.535 54.139,98.336C54.149,98.316 54.268,97.848 54.328,97.599L54.547,96.702C54.607,96.483 54.667,96.264 54.717,96.034C54.757,95.865 54.836,95.576 54.846,95.536C54.996,95.227 55.524,94.321 56.47,94.321C56.919,94.321 57.008,94.689 57.008,95.018C57.008,95.636 56.52,96.911 56.361,97.34C56.271,97.569 56.261,97.688 56.261,97.798C56.261,98.266 56.61,98.615 57.078,98.615C58.014,98.615 58.383,97.16 58.383,97.081C58.383,96.981 58.293,96.981 58.263,96.981C58.164,96.981 58.164,97.011 58.114,97.16C57.915,97.838 57.586,98.396 57.098,98.396C56.928,98.396 56.859,98.296 56.859,98.067C56.859,97.818 56.948,97.579 57.038,97.359C57.227,96.831 57.646,95.736 57.646,95.168C57.646,94.5 57.217,94.102 56.5,94.102C55.603,94.102 55.115,94.739 54.946,94.968C54.896,94.411 54.488,94.102 54.029,94.102C53.571,94.102 53.382,94.49 53.282,94.67C53.123,95.008 52.983,95.596 52.983,95.636C52.983,95.736 53.083,95.736 53.103,95.736C53.202,95.736 53.212,95.726 53.272,95.506C53.442,94.799 53.641,94.321 53.999,94.321C54.199,94.321 54.308,94.45 54.308,94.779C54.308,94.988 54.278,95.098 54.149,95.616L53.571,97.917Z" style="fill-rule:nonzero;"/>
        </g>
        <g transform="matrix(3.21957,0,0,3.21957,2066.68,-160.352)">
            <path d="M61.729,97.329C61.478,97.37 61.373,97.566 61.373,97.719C61.373,97.907 61.52,97.977 61.645,97.977C61.799,97.977 62.043,97.866 62.043,97.531C62.043,97.057 61.499,96.924 61.122,96.924C60.076,96.924 59.107,97.886 59.107,98.856C59.107,99.456 59.525,100.069 60.397,100.069C61.575,100.069 62.126,99.379 62.126,99.281C62.126,99.239 62.064,99.163 62.008,99.163C61.966,99.163 61.952,99.177 61.896,99.232C61.352,99.874 60.536,99.874 60.411,99.874C59.909,99.874 59.686,99.532 59.686,99.1C59.686,98.898 59.783,98.138 60.146,97.656C60.411,97.315 60.773,97.119 61.122,97.119C61.22,97.119 61.554,97.133 61.729,97.329Z" style="fill-rule:nonzero;"/>
        </g>
        <g transform="matrix(3.21957,0,0,3.21957,2066.68,-160.352)">
            <path d="M72.344,95.247C72.494,95.247 72.683,95.247 72.683,95.048C72.683,94.849 72.494,94.849 72.354,94.849L66.387,94.849C66.247,94.849 66.058,94.849 66.058,95.048C66.058,95.247 66.247,95.247 66.397,95.247L72.344,95.247ZM72.354,97.18C72.494,97.18 72.683,97.18 72.683,96.981C72.683,96.782 72.494,96.782 72.344,96.782L66.397,96.782C66.247,96.782 66.058,96.782 66.058,96.981C66.058,97.18 66.247,97.18 66.387,97.18L72.354,97.18Z" style="fill-rule:nonzero;"/>
        </g>
        <g transform="matrix(3.21957,0,0,3.21957,2066.68,-160.352)">
            <path d="M77.281,97.738L78.338,96.712C79.892,95.337 80.489,94.799 80.489,93.803C80.489,92.667 79.593,91.87 78.377,91.87C77.252,91.87 76.514,92.787 76.514,93.673C76.514,94.231 77.012,94.231 77.042,94.231C77.212,94.231 77.56,94.112 77.56,93.703C77.56,93.444 77.381,93.185 77.032,93.185C76.953,93.185 76.933,93.185 76.903,93.195C77.132,92.548 77.67,92.179 78.248,92.179C79.154,92.179 79.583,92.986 79.583,93.803C79.583,94.6 79.085,95.387 78.537,96.005L76.624,98.137C76.514,98.246 76.514,98.266 76.514,98.505L80.211,98.505L80.489,96.772L80.24,96.772C80.191,97.071 80.121,97.509 80.021,97.658C79.951,97.738 79.294,97.738 79.075,97.738L77.281,97.738Z" style="fill-rule:nonzero;"/>
        </g>
        <g transform="matrix(3.21957,0,0,3.21957,2066.68,-160.352)">
            <path d="M85.371,91.412C85.421,91.282 85.421,91.242 85.421,91.232C85.421,91.123 85.331,91.033 85.222,91.033C85.152,91.033 85.082,91.063 85.052,91.123L81.595,100.617C81.546,100.747 81.546,100.787 81.546,100.797C81.546,100.906 81.635,100.996 81.745,100.996C81.874,100.996 81.904,100.926 81.964,100.757L85.371,91.412Z" style="fill-rule:nonzero;"/>
        </g>
        <g transform="matrix(3.21957,0,0,3.21957,2066.68,-160.352)">
            <path d="M87.032,91.412C87.082,91.282 87.082,91.242 87.082,91.232C87.082,91.123 86.992,91.033 86.882,91.033C86.813,91.033 86.743,91.063 86.713,91.123L83.256,100.617C83.206,100.747 83.206,100.787 83.206,100.797C83.206,100.906 83.296,100.996 83.405,100.996C83.535,100.996 83.565,100.926 83.624,100.757L87.032,91.412Z" style="fill-rule:nonzero;"/>
        </g>
        <g transform="matrix(3.21957,0,0,3.21957,2066.68,-160.352)">
            <path d="M90.568,96.861L90.568,97.728C90.568,98.087 90.549,98.196 89.811,98.196L89.602,98.196L89.602,98.505C90.011,98.475 90.529,98.475 90.947,98.475C91.365,98.475 91.894,98.475 92.302,98.505L92.302,98.196L92.093,98.196C91.356,98.196 91.336,98.087 91.336,97.728L91.336,96.861L92.332,96.861L92.332,96.552L91.336,96.552L91.336,92.019C91.336,91.82 91.336,91.76 91.176,91.76C91.087,91.76 91.057,91.76 90.977,91.88L87.918,96.552L87.918,96.861L90.568,96.861ZM90.628,96.552L88.197,96.552L90.628,92.836L90.628,96.552Z" style="fill-rule:nonzero;"/>
        </g>
    </g>
    <g transform="matrix(0.844885,0,0,0.844885,-490.485,65.5236)">
        <g transform="matrix(3.21957,0,0,3.21957,2066.68,-160.352)">
            <path d="M41.019,110.211C41.019,110.012 40.88,109.853 40.65,109.853C40.381,109.853 40.112,110.112 40.112,110.381C40.112,110.57 40.252,110.739 40.491,110.739C40.72,110.739 41.019,110.51 41.019,110.211ZM40.262,113.957C40.381,113.668 40.381,113.648 40.481,113.379C40.561,113.18 40.611,113.041 40.611,112.851C40.611,112.403 40.292,112.034 39.794,112.034C38.857,112.034 38.479,113.479 38.479,113.569C38.479,113.668 38.578,113.668 38.598,113.668C38.698,113.668 38.708,113.648 38.757,113.489C39.026,112.552 39.425,112.254 39.764,112.254C39.843,112.254 40.013,112.254 40.013,112.572C40.013,112.782 39.943,112.991 39.903,113.09C39.824,113.349 39.375,114.505 39.216,114.934C39.116,115.193 38.987,115.521 38.987,115.731C38.987,116.199 39.325,116.548 39.804,116.548C40.74,116.548 41.109,115.103 41.109,115.013C41.109,114.914 41.019,114.914 40.989,114.914C40.89,114.914 40.89,114.944 40.84,115.093C40.66,115.721 40.332,116.328 39.824,116.328C39.654,116.328 39.584,116.229 39.584,116C39.584,115.75 39.644,115.611 39.873,115.003L40.262,113.957Z" style="fill-rule:nonzero;"/>
        </g>
        <g transform="matrix(3.21957,0,0,3.21957,2066.68,-160.352)">
            <path d="M45.325,116.077C45.325,115.303 44.746,114.857 44.063,114.857C43.031,114.857 42.054,115.826 42.054,116.782C42.054,117.479 42.563,118.002 43.324,118.002C44.321,118.002 45.325,117.081 45.325,116.077ZM43.33,117.807C42.982,117.807 42.633,117.584 42.633,117.033C42.633,116.747 42.766,116.063 43.038,115.666C43.337,115.233 43.742,115.052 44.056,115.052C44.432,115.052 44.753,115.31 44.753,115.826C44.753,115.994 44.669,116.684 44.363,117.172C44.098,117.584 43.679,117.807 43.33,117.807Z" style="fill-rule:nonzero;"/>
        </g>
        <g transform="matrix(3.21957,0,0,3.21957,2066.68,-160.352)">
            <path d="M50.426,109.345C50.476,109.215 50.476,109.175 50.476,109.165C50.476,109.056 50.386,108.966 50.277,108.966C50.207,108.966 50.137,108.996 50.107,109.056L46.65,118.55C46.6,118.68 46.6,118.719 46.6,118.729C46.6,118.839 46.69,118.929 46.8,118.929C46.929,118.929 46.959,118.859 47.019,118.689L50.426,109.345Z" style="fill-rule:nonzero;"/>
        </g>
        <g transform="matrix(3.21957,0,0,3.21957,2066.68,-160.352)">
            <path d="M52.087,109.345C52.136,109.215 52.136,109.175 52.136,109.165C52.136,109.056 52.047,108.966 51.937,108.966C51.867,108.966 51.798,108.996 51.768,109.056L48.311,118.55C48.261,118.68 48.261,118.719 48.261,118.729C48.261,118.839 48.351,118.929 48.46,118.929C48.59,118.929 48.62,118.859 48.679,118.689L52.087,109.345Z" style="fill-rule:nonzero;"/>
        </g>
        <g transform="matrix(3.21957,0,0,3.21957,2066.68,-160.352)">
            <path d="M53.571,115.85C53.541,116 53.481,116.229 53.481,116.279C53.481,116.458 53.621,116.548 53.77,116.548C53.89,116.548 54.069,116.468 54.139,116.269C54.149,116.249 54.268,115.78 54.328,115.531L54.547,114.635C54.607,114.415 54.667,114.196 54.717,113.967C54.757,113.798 54.836,113.509 54.846,113.469C54.996,113.16 55.524,112.254 56.47,112.254C56.919,112.254 57.008,112.622 57.008,112.951C57.008,113.569 56.52,114.844 56.361,115.272C56.271,115.501 56.261,115.621 56.261,115.731C56.261,116.199 56.61,116.548 57.078,116.548C58.014,116.548 58.383,115.093 58.383,115.013C58.383,114.914 58.293,114.914 58.263,114.914C58.164,114.914 58.164,114.944 58.114,115.093C57.915,115.77 57.586,116.328 57.098,116.328C56.928,116.328 56.859,116.229 56.859,116C56.859,115.75 56.948,115.511 57.038,115.292C57.227,114.764 57.646,113.668 57.646,113.1C57.646,112.433 57.217,112.034 56.5,112.034C55.603,112.034 55.115,112.672 54.946,112.901C54.896,112.343 54.488,112.034 54.029,112.034C53.571,112.034 53.382,112.423 53.282,112.602C53.123,112.941 52.983,113.529 52.983,113.569C52.983,113.668 53.083,113.668 53.103,113.668C53.202,113.668 53.212,113.658 53.272,113.439C53.442,112.732 53.641,112.254 53.999,112.254C54.199,112.254 54.308,112.383 54.308,112.712C54.308,112.921 54.278,113.031 54.149,113.549L53.571,115.85Z" style="fill-rule:nonzero;"/>
        </g>
        <g transform="matrix(3.21957,0,0,3.21957,2066.68,-160.352)">
            <path d="M62.377,116.077C62.377,115.303 61.799,114.857 61.115,114.857C60.083,114.857 59.107,115.826 59.107,116.782C59.107,117.479 59.616,118.002 60.376,118.002C61.373,118.002 62.377,117.081 62.377,116.077ZM60.383,117.807C60.034,117.807 59.686,117.584 59.686,117.033C59.686,116.747 59.818,116.063 60.09,115.666C60.39,115.233 60.794,115.052 61.108,115.052C61.485,115.052 61.806,115.31 61.806,115.826C61.806,115.994 61.722,116.684 61.415,117.172C61.15,117.584 60.732,117.807 60.383,117.807Z" style="fill-rule:nonzero;"/>
        </g>
        <g transform="matrix(3.21957,0,0,3.21957,2066.68,-160.352)">
            <path d="M72.717,113.18C72.866,113.18 73.055,113.18 73.055,112.981C73.055,112.782 72.866,112.782 72.727,112.782L66.759,112.782C66.619,112.782 66.43,112.782 66.43,112.981C66.43,113.18 66.619,113.18 66.769,113.18L72.717,113.18ZM72.727,115.113C72.866,115.113 73.055,115.113 73.055,114.914C73.055,114.714 72.866,114.714 72.717,114.714L66.769,114.714C66.619,114.714 66.43,114.714 66.43,114.914C66.43,115.113 66.619,115.113 66.759,115.113L72.727,115.113Z" style="fill-rule:nonzero;"/>
        </g>
        <g transform="matrix(3.21957,0,0,3.21957,2066.68,-160.352)">
            <path d="M77.654,115.671L78.71,114.645C80.264,113.27 80.862,112.732 80.862,111.736C80.862,110.6 79.965,109.803 78.749,109.803C77.624,109.803 76.886,110.719 76.886,111.606C76.886,112.164 77.385,112.164 77.414,112.164C77.584,112.164 77.933,112.044 77.933,111.636C77.933,111.377 77.753,111.118 77.405,111.118C77.325,111.118 77.305,111.118 77.275,111.128C77.504,110.48 78.042,110.112 78.62,110.112C79.527,110.112 79.955,110.919 79.955,111.736C79.955,112.533 79.457,113.32 78.909,113.937L76.996,116.069C76.886,116.179 76.886,116.199 76.886,116.438L80.583,116.438L80.862,114.704L80.612,114.704C80.563,115.003 80.493,115.442 80.393,115.591C80.324,115.671 79.666,115.671 79.447,115.671L77.654,115.671Z" style="fill-rule:nonzero;"/>
        </g>
        <g transform="matrix(3.21957,0,0,3.21957,2066.68,-160.352)">
            <path d="M85.743,109.345C85.793,109.215 85.793,109.175 85.793,109.165C85.793,109.056 85.703,108.966 85.594,108.966C85.524,108.966 85.454,108.996 85.424,109.056L81.967,118.55C81.918,118.68 81.918,118.719 81.918,118.729C81.918,118.839 82.007,118.929 82.117,118.929C82.246,118.929 82.276,118.859 82.336,118.689L85.743,109.345Z" style="fill-rule:nonzero;"/>
        </g>
        <g transform="matrix(3.21957,0,0,3.21957,2066.68,-160.352)">
            <path d="M87.404,109.345C87.454,109.215 87.454,109.175 87.454,109.165C87.454,109.056 87.364,108.966 87.254,108.966C87.185,108.966 87.115,108.996 87.085,109.056L83.628,118.55C83.578,118.68 83.578,118.719 83.578,118.729C83.578,118.839 83.668,118.929 83.777,118.929C83.907,118.929 83.937,118.859 83.997,118.689L87.404,109.345Z" style="fill-rule:nonzero;"/>
        </g>
        <g transform="matrix(3.21957,0,0,3.21957,2066.68,-160.352)">
            <path d="M90.901,112.931C91.718,112.662 92.295,111.965 92.295,111.178C92.295,110.361 91.419,109.803 90.462,109.803C89.456,109.803 88.699,110.401 88.699,111.158C88.699,111.486 88.918,111.676 89.207,111.676C89.516,111.676 89.715,111.457 89.715,111.168C89.715,110.67 89.247,110.67 89.097,110.67C89.406,110.181 90.064,110.052 90.422,110.052C90.831,110.052 91.379,110.271 91.379,111.168C91.379,111.287 91.359,111.865 91.1,112.303C90.801,112.782 90.462,112.812 90.213,112.821C90.134,112.831 89.894,112.851 89.825,112.851C89.745,112.861 89.675,112.871 89.675,112.971C89.675,113.081 89.745,113.081 89.914,113.081L90.353,113.081C91.17,113.081 91.538,113.758 91.538,114.734C91.538,116.089 90.851,116.378 90.413,116.378C89.984,116.378 89.237,116.209 88.888,115.621C89.237,115.671 89.546,115.452 89.546,115.073C89.546,114.714 89.277,114.515 88.988,114.515C88.749,114.515 88.43,114.655 88.43,115.093C88.43,116 89.356,116.657 90.442,116.657C91.658,116.657 92.564,115.75 92.564,114.734C92.564,113.917 91.937,113.14 90.901,112.931Z" style="fill-rule:nonzero;"/>
        </g>
    </g>
</svg>
