<?xml version="1.0" encoding="UTF-8" standalone="no"?>
<svg
   xmlns:dc="http://purl.org/dc/elements/1.1/"
   xmlns:cc="http://creativecommons.org/ns#"
   xmlns:rdf="http://www.w3.org/1999/02/22-rdf-syntax-ns#"
   xmlns:svg="http://www.w3.org/2000/svg"
   xmlns="http://www.w3.org/2000/svg"
   xmlns:sodipodi="http://sodipodi.sourceforge.net/DTD/sodipodi-0.dtd"
   xmlns:inkscape="http://www.inkscape.org/namespaces/inkscape"
   width="1706.3911"
   height="261.44522"
   viewBox="0 0 1706.3911 261.44522"
   version="1.1"
   xml:space="preserve"
   style="clip-rule:evenodd;fill-rule:evenodd;stroke-linecap:round;stroke-linejoin:round;stroke-miterlimit:1.5"
   id="svg1176"
   sodipodi:docname="schematic.svg"
   inkscape:version="0.92.4 (5da689c313, 2019-01-14)"><metadata
   id="metadata1182"><rdf:RDF><cc:Work
       rdf:about=""><dc:format>image/svg+xml</dc:format><dc:type
         rdf:resource="http://purl.org/dc/dcmitype/StillImage" /><dc:title></dc:title></cc:Work></rdf:RDF></metadata><defs
   id="defs1180">
            
        
            
        
            
        
            
        
            
        
            
        
            
        
            
        
            
        
            
        
            
        
            
        
            
        
        
        
        
        
        
        
        
        
        
        
        
        
        
    </defs><sodipodi:namedview
   pagecolor="#ffffff"
   bordercolor="#666666"
   borderopacity="1"
   objecttolerance="10"
   gridtolerance="10"
   guidetolerance="10"
   inkscape:pageopacity="0"
   inkscape:pageshadow="2"
   inkscape:window-width="1530"
   inkscape:window-height="1171"
   id="namedview1178"
   showgrid="true"
   showguides="false"
   inkscape:zoom="0.47052632"
   inkscape:cx="1096.5098"
   inkscape:cy="-175.58324"
   inkscape:window-x="0"
   inkscape:window-y="23"
   inkscape:window-maximized="0"
   inkscape:current-layer="svg1176"
   fit-margin-top="0"
   fit-margin-left="0"
   fit-margin-right="0"
   fit-margin-bottom="0"><inkscape:grid
     type="xygrid"
     id="grid12730"
     originx="-23.108385"
     originy="-20" /></sodipodi:namedview>
    
    
    
    
    
    
    <g
   transform="translate(-71.581886,-18.554766)"
   id="g798">
        <path
   inkscape:connector-curvature="0"
   id="path746"
   style="fill:none;stroke:#090909;stroke-width:4px"
   d="m 288.4735,80 60,160" />
        <path
   inkscape:connector-curvature="0"
   id="path750"
   style="fill:none;stroke:#090909;stroke-width:4;stroke-miterlimit:1.5;stroke-dasharray:none"
   d="M 228.4735,80 V 240" />
        <path
   inkscape:connector-curvature="0"
   id="path754"
   style="fill:none;stroke:#090909;stroke-width:4;stroke-miterlimit:1.5;stroke-dasharray:none"
   d="M 288.4735,80 V 240" />
        <circle
   id="circle758"
   style="fill:#ffffff;stroke:#090909;stroke-width:4px"
   r="20"
   cy="80"
   cx="228.47301" />
        <circle
   id="circle762"
   style="fill:#ffffff;stroke:#090909;stroke-width:4px"
   r="20"
   cy="80"
   cx="288.47299" />
        <circle
   id="circle766"
   style="fill:#ffffff;stroke:#090909;stroke-width:4px"
   r="20"
   cy="240"
   cx="228.47301" />
        <circle
   id="circle770"
   style="fill:#ffffff;stroke:#090909;stroke-width:4px"
   r="20"
   cy="240"
   cx="288.47299" />
        <circle
   id="circle774"
   style="fill:#ffffff;stroke:#090909;stroke-width:4px"
   r="20"
   cy="240"
   cx="348.47299" />
        <path
   inkscape:connector-curvature="0"
   id="path778"
   style="fill:none;stroke:#090909;stroke-width:4;stroke-miterlimit:1.5;stroke-dasharray:none"
   d="M 408.4735,80 V 240" />
        <path
   inkscape:connector-curvature="0"
   id="path782"
   style="fill:none;stroke:#090909;stroke-width:4;stroke-miterlimit:1.5;stroke-dasharray:none"
   d="m 408.4735,80 60,160" />
        <circle
   id="circle786"
   style="fill:#ffffff;stroke:#090909;stroke-width:4px"
   r="20"
   cy="80"
   cx="408.47299" />
        <circle
   id="circle790"
   style="fill:#ffffff;stroke:#090909;stroke-width:4px"
   r="20"
   cy="240"
   cx="408.47299" />
        <circle
   id="circle794"
   style="fill:#ffffff;stroke:#090909;stroke-width:4px"
   r="20"
   cy="240"
   cx="468.47299" />
    </g><g
   transform="translate(-473.10839,-18.554766)"
   id="g836">
        
        
    </g><g
   transform="translate(-20.436266,-18.554766)"
   id="g866">
        <text
   x="20"
   y="60"
   style="font-size:55.84199905px;font-family:ArialMT, Arial, sans-serif"
   id="text864">A</text>

    </g>
    
    
    
    
    
    
    
    
<g
   transform="translate(1108.2116,-18.554766)"
   id="g1036">
        <text
   x="20"
   y="60"
   style="font-size:55.84199905px;font-family:ArialMT, Arial, sans-serif"
   id="text1034">C</text>

    </g><g
   id="g12962"
   transform="translate(-170.60839,-18.554766)"><path
     style="fill:none;stroke:#000000;stroke-width:4;stroke-linecap:butt;stroke-linejoin:miter;stroke-miterlimit:1.5;stroke-dasharray:none;stroke-opacity:1"
     d="M 1620,240 V 160 L 1560,80"
     id="path12911"
     inkscape:connector-curvature="0" /><path
     inkscape:connector-curvature="0"
     id="path12873"
     style="fill:none;stroke:#090909;stroke-width:4;stroke-miterlimit:1.5;stroke-dasharray:none"
     d="M 1560,80 V 240" /><circle
     id="circle12875"
     style="fill:#ffffff;stroke:#090909;stroke-width:4px"
     r="20"
     cy="80"
     cx="1559.9995" /><circle
     id="circle12877"
     style="fill:#ffffff;stroke:#090909;stroke-width:4px"
     r="20"
     cy="240"
     cx="1559.9995" /><circle
     id="circle12879"
     style="fill:#ffffff;stroke:#090909;stroke-width:4px"
     r="20"
     cy="240"
     cx="1619.9995" /><circle
     cx="1559.9995"
     cy="158.89699"
     r="20"
     style="fill:#ffffff;stroke:#090909;stroke-width:4px"
     id="circle12907" /><circle
     id="circle12909"
     style="fill:#ffffff;stroke:#090909;stroke-width:4px"
     r="20"
     cy="158.89699"
     cx="1619.9995" /></g><g
   id="g12972"
   transform="translate(-173.10839,-18.554766)"><path
     sodipodi:nodetypes="cc"
     inkscape:connector-curvature="0"
     id="path12883"
     style="fill:none;stroke:#090909;stroke-width:4;stroke-miterlimit:1.5;stroke-dasharray:none"
     d="M 1680,157.11409 V 80" /><path
     sodipodi:nodetypes="ccc"
     inkscape:connector-curvature="0"
     id="path12885"
     style="fill:none;stroke:#090909;stroke-width:4;stroke-miterlimit:1.5;stroke-dasharray:none"
     d="m 1680,240 60,-80 V 80" /><circle
     id="circle12887"
     style="fill:#000000;fill-opacity:1;stroke:#090909;stroke-width:4px"
     r="20"
     cy="-240"
     cx="1679.9995"
     transform="scale(1,-1)" /><circle
     id="circle12889"
     style="fill:#000000;fill-opacity:1;stroke:#090909;stroke-width:4px"
     r="20"
     cy="-80"
     cx="1679.9995"
     transform="scale(1,-1)" /><circle
     id="circle12891"
     style="fill:#000000;fill-opacity:1;stroke:#090909;stroke-width:4px"
     r="20"
     cy="-80"
     cx="1739.9995"
     transform="scale(1,-1)" /><circle
     transform="scale(1,-1)"
     cx="1679.9995"
     cy="-158.89699"
     r="20"
     style="fill:#000000;fill-opacity:1;stroke:#090909;stroke-width:4px"
     id="circle12913" /><circle
     id="circle12928"
     style="fill:#000000;fill-opacity:1;stroke:#090909;stroke-width:4px"
     r="20"
     cy="-158.89699"
     cx="1739.9995"
     transform="scale(1,-1)" /><path
     inkscape:connector-curvature="0"
     id="path12930"
     d="m 1680,240 v -45 h -10 20"
     style="fill:none;stroke:#000000;stroke-width:4;stroke-linecap:butt;stroke-linejoin:miter;stroke-miterlimit:1.5;stroke-dasharray:none;stroke-opacity:1" /></g><g
   id="g12953"
   transform="translate(-170.60839,-18.554766)"><path
     inkscape:connector-curvature="0"
     id="path12932"
     d="M 1855,240 V 160 L 1795,80"
     style="fill:none;stroke:#000000;stroke-width:4;stroke-linecap:butt;stroke-linejoin:miter;stroke-miterlimit:1.5;stroke-dasharray:none;stroke-opacity:1" /><path
     d="M 1795,80 V 240"
     style="fill:none;stroke:#090909;stroke-width:4;stroke-miterlimit:1.5;stroke-dasharray:none"
     id="path12934"
     inkscape:connector-curvature="0" /><circle
     cx="1794.9995"
     cy="80"
     r="20"
     style="fill:#000000;fill-opacity:1;stroke:#090909;stroke-width:4px"
     id="circle12936" /><circle
     cx="1794.9995"
     cy="240"
     r="20"
     style="fill:#000000;fill-opacity:1;stroke:#090909;stroke-width:4px"
     id="circle12938" /><circle
     cx="1854.9995"
     cy="240"
     r="20"
     style="fill:#000000;fill-opacity:1;stroke:#090909;stroke-width:4px"
     id="circle12940" /><circle
     id="circle12942"
     style="fill:#000000;fill-opacity:1;stroke:#090909;stroke-width:4px"
     r="20"
     cy="158.89699"
     cx="1794.9995" /><circle
     cx="1854.9995"
     cy="158.89699"
     r="20"
     style="fill:#000000;fill-opacity:1;stroke:#090909;stroke-width:4px"
     id="circle12944" /></g><g
   transform="translate(463.1967,-18.554766)"
   id="g870">
        <text
   x="20"
   y="60"
   style="font-size:55.84199905px;font-family:ArialMT, Arial, sans-serif"
   id="text868">B</text>

    </g><g
   id="g12869"
   transform="translate(-52.713301,-18.554766)"><path
     d="m 810,80 60,160"
     style="fill:none;stroke:#090909;stroke-width:4px"
     id="path12799"
     inkscape:connector-curvature="0" /><path
     d="M 810,80 V 240"
     style="fill:none;stroke:#090909;stroke-width:4;stroke-miterlimit:1.5;stroke-dasharray:none"
     id="path12803"
     inkscape:connector-curvature="0" /><circle
     cx="809.99951"
     cy="80"
     r="20"
     style="fill:#ffffff;stroke:#090909;stroke-width:4px"
     id="circle12807" /><circle
     cx="809.99951"
     cy="240"
     r="20"
     style="fill:#ffffff;stroke:#090909;stroke-width:4px"
     id="circle12811" /><circle
     cx="869.99951"
     cy="240"
     r="20"
     style="fill:#ffffff;stroke:#090909;stroke-width:4px"
     id="circle12813" /></g><g
   id="g12862"
   transform="translate(-52.713301,-18.554766)"><path
     d="M 930,240 V 150"
     style="fill:none;stroke:#090909;stroke-width:4;stroke-miterlimit:1.5;stroke-dasharray:none"
     id="path12815"
     inkscape:connector-curvature="0"
     sodipodi:nodetypes="cc" /><path
     d="M 930,240 990,80"
     style="fill:none;stroke:#090909;stroke-width:4;stroke-miterlimit:1.5;stroke-dasharray:none"
     id="path12817"
     inkscape:connector-curvature="0" /><circle
     transform="scale(1,-1)"
     cx="929.99951"
     cy="-240"
     r="20"
     style="fill:#000000;fill-opacity:1;stroke:#090909;stroke-width:4px"
     id="circle12819" /><circle
     transform="scale(1,-1)"
     cx="929.99951"
     cy="-80"
     r="20"
     style="fill:#000000;fill-opacity:1;stroke:#090909;stroke-width:4px"
     id="circle12821" /><circle
     transform="scale(1,-1)"
     cx="989.99951"
     cy="-80"
     r="20"
     style="fill:#000000;fill-opacity:1;stroke:#090909;stroke-width:4px"
     id="circle12823" /></g><g
   id="g12855"
   style="fill:#000000;fill-opacity:1"
   transform="translate(-52.713301,-18.554766)"><path
     inkscape:connector-curvature="0"
     id="path12840"
     style="fill:#000000;fill-opacity:1;stroke:#090909;stroke-width:4;stroke-miterlimit:1.5;stroke-dasharray:none"
     d="M 1050,80 V 240" /><path
     inkscape:connector-curvature="0"
     id="path12842"
     style="fill:#000000;fill-opacity:1;stroke:#090909;stroke-width:4;stroke-miterlimit:1.5;stroke-dasharray:none"
     d="m 1050,80 60,160" /><circle
     id="circle12844"
     style="fill:#000000;fill-opacity:1;stroke:#090909;stroke-width:4px"
     r="20"
     cy="80"
     cx="1049.9995" /><circle
     id="circle12846"
     style="fill:#000000;fill-opacity:1;stroke:#090909;stroke-width:4px"
     r="20"
     cy="240"
     cx="1049.9995" /><circle
     id="circle12848"
     style="fill:#000000;fill-opacity:1;stroke:#090909;stroke-width:4px"
     r="20"
     cy="240"
     cx="1109.9995" /></g><path
   style="fill:none;stroke:#000000;stroke-width:4;stroke-linecap:butt;stroke-linejoin:miter;stroke-miterlimit:1.5;stroke-dasharray:none;stroke-opacity:1"
   d="m 867.28669,131.44523 h 20"
   id="path12974"
   inkscape:connector-curvature="0" /><g
   transform="matrix(2.9071776,0,0,2.9071776,123.133,109.34331)"
   id="g13732"><path
     d="m 147.13885,-21.270273 c 0,-0.199253 -0.13948,-0.358655 -0.36862,-0.358655 -0.26899,0 -0.53798,0.259029 -0.53798,0.52802 0,0.18929 0.13947,0.358655 0.37858,0.358655 0.22914,0 0.52802,-0.229141 0.52802,-0.52802 z m -0.75717,3.745953 c 0.11956,-0.288917 0.11956,-0.308842 0.21918,-0.577834 0.0797,-0.199252 0.12952,-0.338729 0.12952,-0.528019 0,-0.448319 -0.31881,-0.816937 -0.81694,-0.816937 -0.93649,0 -1.31507,1.444583 -1.31507,1.534247 0,0.09963 0.0996,0.09963 0.11955,0.09963 0.0996,0 0.10959,-0.01993 0.15941,-0.179328 0.26899,-0.936488 0.66749,-1.235367 1.00622,-1.235367 0.0797,0 0.24907,0 0.24907,0.318805 0,0.209215 -0.0697,0.41843 -0.10959,0.518057 -0.0797,0.259029 -0.52802,1.414695 -0.68742,1.843088 -0.0996,0.259029 -0.22914,0.587796 -0.22914,0.797012 0,0.468244 0.33873,0.816936 0.81693,0.816936 0.93649,0 1.30511,-1.444583 1.30511,-1.534247 0,-0.09963 -0.0897,-0.09963 -0.11955,-0.09963 -0.0996,0 -0.0996,0.02989 -0.14944,0.179328 -0.17933,0.627646 -0.5081,1.235367 -1.01619,1.235367 -0.16937,0 -0.2391,-0.09963 -0.2391,-0.328767 0,-0.249066 0.0598,-0.388543 0.28891,-0.996264 z"
     id="path13605"
     inkscape:connector-curvature="0" /><path
     d="m 148.26475,-12.698433 c -0.0488,0.195268 -0.0628,0.251059 -0.34172,0.251059 -0.0907,0 -0.18829,0 -0.18829,0.146451 0,0.07671 0.0628,0.104607 0.0976,0.104607 0.18132,0 0.41146,-0.0279 0.59976,-0.0279 0.23711,0 0.50211,0.0279 0.73225,0.0279 0.0628,0 0.13948,-0.02092 0.13948,-0.153424 0,-0.09763 -0.0976,-0.09763 -0.18132,-0.09763 -0.15343,0 -0.34172,0 -0.34172,-0.08369 0,-0.03487 0.0488,-0.21619 0.0767,-0.320797 0.0837,-0.369614 0.18132,-0.746202 0.25803,-1.039104 0.0837,0.139477 0.29988,0.411457 0.71831,0.411457 0.85081,0 1.79228,-0.941469 1.79228,-1.980573 0,-0.81594 -0.56488,-1.164632 -1.04608,-1.164632 -0.43238,0 -0.80199,0.292901 -0.99029,0.488169 -0.11855,-0.397509 -0.50909,-0.488169 -0.7183,-0.488169 -0.27198,0 -0.43935,0.18132 -0.55094,0.369614 -0.13947,0.237111 -0.25106,0.655541 -0.25106,0.697385 0,0.09066 0.0976,0.09066 0.11856,0.09066 0.0976,0 0.10461,-0.02092 0.15342,-0.209216 0.10461,-0.404483 0.23712,-0.753175 0.5091,-0.753175 0.18132,0 0.23013,0.153424 0.23013,0.341718 0,0.07671 -0.0139,0.167372 -0.0209,0.209216 z m 1.31806,-3.089414 c 0.40448,-0.536987 0.75318,-0.641594 0.97634,-0.641594 0.27198,0 0.50909,0.202241 0.50909,0.676463 0,0.285928 -0.15343,0.99726 -0.36264,1.401743 -0.17435,0.341719 -0.51607,0.676464 -0.87173,0.676464 -0.49514,0 -0.62067,-0.536987 -0.62067,-0.606725 0,-0.0279 0.0139,-0.07671 0.0209,-0.104608 z"
     id="path13607"
     inkscape:connector-curvature="0" /><path
     d="m 156.72039,-22.137023 c 0.0498,-0.129514 0.0498,-0.169365 0.0498,-0.179327 0,-0.109589 -0.0897,-0.199253 -0.19925,-0.199253 -0.0697,0 -0.13948,0.02989 -0.16937,0.08966 l -3.45703,9.494396 c -0.0498,0.129514 -0.0498,0.169365 -0.0498,0.179327 0,0.109589 0.0897,0.199253 0.19925,0.199253 0.12951,0 0.1594,-0.06974 0.21918,-0.239103 z"
     id="path13609"
     inkscape:connector-curvature="0" /><path
     d="m 158.38093,-22.137023 c 0.0498,-0.129514 0.0498,-0.169365 0.0498,-0.179327 0,-0.109589 -0.0897,-0.199253 -0.19925,-0.199253 -0.0697,0 -0.13948,0.02989 -0.16937,0.08966 l -3.45703,9.494396 c -0.0498,0.129514 -0.0498,0.169365 -0.0498,0.179327 0,0.109589 0.0897,0.199253 0.19925,0.199253 0.12951,0 0.1594,-0.06974 0.21918,-0.239103 z"
     id="path13611"
     inkscape:connector-curvature="0" /><path
     d="m 159.86538,-15.631419 c -0.0299,0.14944 -0.0897,0.378581 -0.0897,0.428394 0,0.179327 0.13947,0.268991 0.28891,0.268991 0.11956,0 0.29888,-0.0797 0.36862,-0.278954 0.01,-0.01993 0.12952,-0.488169 0.18929,-0.737235 l 0.21918,-0.896638 c 0.0598,-0.219178 0.11955,-0.438356 0.16936,-0.667497 0.0399,-0.169365 0.11956,-0.458281 0.12952,-0.498132 0.14944,-0.308842 0.67746,-1.215442 1.62391,-1.215442 0.44832,0 0.53798,0.368618 0.53798,0.697385 0,0.617684 -0.48817,1.892902 -0.64757,2.321295 -0.0897,0.229141 -0.0996,0.348692 -0.0996,0.458282 0,0.468244 0.3487,0.816936 0.81694,0.816936 0.93649,0 1.30511,-1.454545 1.30511,-1.534247 0,-0.09963 -0.0897,-0.09963 -0.11956,-0.09963 -0.0996,0 -0.0996,0.02989 -0.14943,0.179328 -0.19926,0.677459 -0.52802,1.235367 -1.01619,1.235367 -0.16937,0 -0.23911,-0.09963 -0.23911,-0.328767 0,-0.249066 0.0897,-0.48817 0.17933,-0.707348 0.18929,-0.52802 0.60772,-1.62391 0.60772,-2.19178 0,-0.667497 -0.42839,-1.066003 -1.1457,-1.066003 -0.89664,0 -1.38481,0.637609 -1.55417,0.86675 -0.0498,-0.557908 -0.45829,-0.86675 -0.91657,-0.86675 -0.45828,0 -0.64757,0.388543 -0.74719,0.567871 -0.15941,0.338729 -0.29888,0.926525 -0.29888,0.966376 0,0.09963 0.0996,0.09963 0.11955,0.09963 0.0996,0 0.10959,-0.01 0.16936,-0.229141 0.16937,-0.707347 0.36862,-1.185554 0.72727,-1.185554 0.19926,0 0.30885,0.129514 0.30885,0.458282 0,0.209215 -0.0299,0.318804 -0.15941,0.836861 z"
     id="path13613"
     inkscape:connector-curvature="0" /><path
     d="m 165.49163,-12.698433 c -0.0488,0.195268 -0.0628,0.251059 -0.34172,0.251059 -0.0907,0 -0.18829,0 -0.18829,0.146451 0,0.07671 0.0628,0.104607 0.0976,0.104607 0.18132,0 0.41146,-0.0279 0.59976,-0.0279 0.23711,0 0.50211,0.0279 0.73225,0.0279 0.0628,0 0.13948,-0.02092 0.13948,-0.153424 0,-0.09763 -0.0976,-0.09763 -0.18132,-0.09763 -0.15343,0 -0.34172,0 -0.34172,-0.08369 0,-0.03487 0.0488,-0.21619 0.0767,-0.320797 0.0837,-0.369614 0.18132,-0.746202 0.25803,-1.039104 0.0837,0.139477 0.29988,0.411457 0.71831,0.411457 0.85081,0 1.79228,-0.941469 1.79228,-1.980573 0,-0.81594 -0.56488,-1.164632 -1.04608,-1.164632 -0.43238,0 -0.80199,0.292901 -0.99029,0.488169 -0.11855,-0.397509 -0.50909,-0.488169 -0.7183,-0.488169 -0.27198,0 -0.43935,0.18132 -0.55094,0.369614 -0.13947,0.237111 -0.25106,0.655541 -0.25106,0.697385 0,0.09066 0.0976,0.09066 0.11856,0.09066 0.0976,0 0.10461,-0.02092 0.15343,-0.209216 0.1046,-0.404483 0.23711,-0.753175 0.50909,-0.753175 0.18132,0 0.23013,0.153424 0.23013,0.341718 0,0.07671 -0.0139,0.167372 -0.0209,0.209216 z m 1.31806,-3.089414 c 0.40448,-0.536987 0.75318,-0.641594 0.97634,-0.641594 0.27198,0 0.50909,0.202241 0.50909,0.676463 0,0.285928 -0.15342,0.99726 -0.36264,1.401743 -0.17435,0.341719 -0.51607,0.676464 -0.87173,0.676464 -0.49514,0 -0.62067,-0.536987 -0.62067,-0.606725 0,-0.0279 0.0139,-0.07671 0.0209,-0.104608 z"
     id="path13615"
     inkscape:connector-curvature="0" /><path
     d="m 179.18533,-18.301406 c 0.14944,0 0.33873,0 0.33873,-0.199253 0,-0.199253 -0.18929,-0.199253 -0.32877,-0.199253 h -5.96762 c -0.13948,0 -0.32877,0 -0.32877,0.199253 0,0.199253 0.18929,0.199253 0.33873,0.199253 z m 0.01,1.932752 c 0.13948,0 0.32877,0 0.32877,-0.199253 0,-0.199253 -0.18929,-0.199253 -0.33873,-0.199253 h -5.9477 c -0.14944,0 -0.33873,0 -0.33873,0.199253 0,0.199253 0.18929,0.199253 0.32877,0.199253 z"
     id="path13617"
     inkscape:connector-curvature="0" /><path
     d="m 185.74624,-18.550472 c 0.81694,-0.268992 1.39477,-0.966376 1.39477,-1.753425 0,-0.816936 -0.87671,-1.374844 -1.83313,-1.374844 -1.00622,0 -1.76338,0.597758 -1.76338,1.354919 0,0.328767 0.21918,0.518057 0.50809,0.518057 0.30884,0 0.5081,-0.219178 0.5081,-0.508095 0,-0.498132 -0.46825,-0.498132 -0.61769,-0.498132 0.30884,-0.488169 0.96638,-0.617683 1.32503,-0.617683 0.40847,0 0.95642,0.219178 0.95642,1.115815 0,0.119552 -0.0199,0.697385 -0.27896,1.135741 -0.29888,0.478207 -0.63761,0.508095 -0.88667,0.518058 -0.0797,0.01 -0.31881,0.02989 -0.38854,0.02989 -0.0797,0.01 -0.14944,0.01993 -0.14944,0.119551 0,0.109589 0.0697,0.109589 0.2391,0.109589 h 0.43836 c 0.81693,0 1.18555,0.67746 1.18555,1.653799 0,1.354919 -0.68742,1.643835 -1.12578,1.643835 -0.42839,0 -1.17559,-0.169365 -1.52428,-0.757161 0.34869,0.04981 0.65753,-0.169364 0.65753,-0.547945 0,-0.358655 -0.26899,-0.557908 -0.55791,-0.557908 -0.2391,0 -0.5579,0.139477 -0.5579,0.577834 0,0.9066 0.92652,1.564134 2.01245,1.564134 1.21544,0 2.12204,-0.9066 2.12204,-1.922789 0,-0.816937 -0.62764,-1.594023 -1.66376,-1.803238 z"
     id="path13619"
     inkscape:connector-curvature="0" /><path
     d="m 192.21201,-22.137023 c 0.0498,-0.129514 0.0498,-0.169365 0.0498,-0.179327 0,-0.109589 -0.0897,-0.199253 -0.19926,-0.199253 -0.0697,0 -0.13947,0.02989 -0.16936,0.08966 l -3.45704,9.494396 c -0.0498,0.129514 -0.0498,0.169365 -0.0498,0.179327 0,0.109589 0.0897,0.199253 0.19925,0.199253 0.12952,0 0.1594,-0.06974 0.21918,-0.239103 z"
     id="path13621"
     inkscape:connector-curvature="0" /><path
     d="m 193.87255,-22.137023 c 0.0498,-0.129514 0.0498,-0.169365 0.0498,-0.179327 0,-0.109589 -0.0897,-0.199253 -0.19926,-0.199253 -0.0697,0 -0.13947,0.02989 -0.16936,0.08966 l -3.45704,9.494396 c -0.0498,0.129514 -0.0498,0.169365 -0.0498,0.179327 0,0.109589 0.0897,0.199253 0.19925,0.199253 0.12952,0 0.1594,-0.06974 0.21918,-0.239103 z"
     id="path13623"
     inkscape:connector-curvature="0" /><path
     d="m 197.40931,-16.687459 v 0.86675 c 0,0.358655 -0.0199,0.468244 -0.75716,0.468244 h -0.20922 v 0.308842 c 0.40847,-0.02989 0.92653,-0.02989 1.34496,-0.02989 0.41843,0 0.94645,0 1.35492,0.02989 v -0.308842 h -0.20922 c -0.73723,0 -0.75716,-0.109589 -0.75716,-0.468244 v -0.86675 h 0.99627 V -16.9963 h -0.99627 v -4.533002 c 0,-0.199253 0,-0.259028 -0.1594,-0.259028 -0.0897,0 -0.11955,0 -0.19925,0.119551 l -3.05853,4.672479 v 0.308841 z m 0.0598,-0.308841 h -2.43089 l 2.43089,-3.716065 z"
     id="path13625"
     inkscape:connector-curvature="0" /></g><g
   transform="matrix(3.01125,0,0,3.01125,105.049,184.21534)"
   id="g13758"><path
     d="m 147.48779,8.617647 c 0,-0.199253 -0.13948,-0.358655 -0.36862,-0.358655 -0.26899,0 -0.53798,0.259029 -0.53798,0.52802 0,0.18929 0.13947,0.358655 0.37858,0.358655 0.22914,0 0.52802,-0.229141 0.52802,-0.52802 z m -0.75716,3.745953 c 0.11955,-0.288917 0.11955,-0.308842 0.21917,-0.577833 0.0797,-0.199253 0.12952,-0.33873 0.12952,-0.52802 0,-0.448319 -0.31881,-0.816937 -0.81694,-0.816937 -0.93649,0 -1.31507,1.444583 -1.31507,1.534247 0,0.09963 0.0996,0.09963 0.11956,0.09963 0.0996,0 0.10958,-0.01993 0.1594,-0.179327 0.26899,-0.936488 0.66749,-1.235368 1.00622,-1.235368 0.0797,0 0.24907,0 0.24907,0.318805 0,0.209215 -0.0697,0.418431 -0.10959,0.518057 -0.0797,0.259029 -0.52802,1.414695 -0.68742,1.843089 -0.0996,0.259028 -0.22914,0.587795 -0.22914,0.797011 0,0.468244 0.33873,0.816936 0.81693,0.816936 0.93649,0 1.30511,-1.444583 1.30511,-1.534246 0,-0.09963 -0.0897,-0.09963 -0.11955,-0.09963 -0.0996,0 -0.0996,0.02989 -0.14944,0.179328 -0.17933,0.627646 -0.5081,1.235367 -1.01619,1.235367 -0.16936,0 -0.2391,-0.09963 -0.2391,-0.328767 0,-0.249066 0.0598,-0.388543 0.28891,-0.996264 z"
     id="path13649"
     inkscape:connector-curvature="0" /><path
     d="m 151.79377,14.483634 c 0,-0.774097 -0.57883,-1.220423 -1.26227,-1.220423 -1.03213,0 -2.00847,0.969365 -2.00847,1.924782 0,0.697385 0.5091,1.220424 1.26924,1.220424 0.99726,0 2.0015,-0.920548 2.0015,-1.924783 z m -1.99452,1.729515 c -0.34869,0 -0.69739,-0.223163 -0.69739,-0.774097 0,-0.285928 0.13251,-0.969365 0.40449,-1.366875 0.29987,-0.432378 0.70436,-0.613698 1.01818,-0.613698 0.37659,0 0.69738,0.258032 0.69738,0.774097 0,0.167372 -0.0837,0.857783 -0.39053,1.345953 -0.26501,0.411457 -0.68344,0.63462 -1.03213,0.63462 z"
     id="path13651"
     inkscape:connector-curvature="0" /><path
     d="m 156.89486,7.750898 c 0.0498,-0.129515 0.0498,-0.169365 0.0498,-0.179328 0,-0.109589 -0.0897,-0.199253 -0.19925,-0.199253 -0.0697,0 -0.13948,0.029888 -0.16936,0.089664 l -3.45704,9.494396 c -0.0498,0.129514 -0.0498,0.169365 -0.0498,0.179327 0,0.10959 0.0897,0.199253 0.19925,0.199253 0.12951,0 0.1594,-0.06974 0.21918,-0.239103 z"
     id="path13653"
     inkscape:connector-curvature="0" /><path
     d="m 158.5554,7.750898 c 0.0498,-0.129515 0.0498,-0.169365 0.0498,-0.179328 0,-0.109589 -0.0897,-0.199253 -0.19925,-0.199253 -0.0697,0 -0.13948,0.029888 -0.16936,0.089664 l -3.45704,9.494396 c -0.0498,0.129514 -0.0498,0.169365 -0.0498,0.179327 0,0.10959 0.0897,0.199253 0.19925,0.199253 0.12951,0 0.1594,-0.06974 0.21918,-0.239103 z"
     id="path13655"
     inkscape:connector-curvature="0" /><path
     d="m 160.03985,14.256501 c -0.0299,0.14944 -0.0897,0.378581 -0.0897,0.428394 0,0.179328 0.13948,0.268991 0.28891,0.268991 0.11956,0 0.29888,-0.0797 0.36862,-0.278954 0.01,-0.01993 0.12952,-0.488169 0.18929,-0.737235 l 0.21918,-0.896638 c 0.0598,-0.219178 0.11955,-0.438356 0.16937,-0.667496 0.0399,-0.169365 0.11955,-0.458282 0.12951,-0.498132 0.14944,-0.308842 0.67746,-1.215443 1.62391,-1.215443 0.44832,0 0.53798,0.368618 0.53798,0.697385 0,0.617684 -0.48817,1.892902 -0.64757,2.321295 -0.0897,0.229141 -0.0996,0.348693 -0.0996,0.458282 0,0.468244 0.34869,0.816936 0.81693,0.816936 0.93649,0 1.30511,-1.454545 1.30511,-1.534246 0,-0.09963 -0.0897,-0.09963 -0.11955,-0.09963 -0.0996,0 -0.0996,0.02989 -0.14944,0.179328 -0.19926,0.677459 -0.52802,1.235367 -1.01619,1.235367 -0.16937,0 -0.23911,-0.09963 -0.23911,-0.328767 0,-0.249066 0.0897,-0.488169 0.17933,-0.707347 0.18929,-0.52802 0.60772,-1.623911 0.60772,-2.191781 0,-0.667497 -0.42839,-1.066003 -1.1457,-1.066003 -0.89664,0 -1.38481,0.637609 -1.55417,0.86675 -0.0498,-0.557908 -0.45828,-0.86675 -0.91657,-0.86675 -0.45828,0 -0.64757,0.388543 -0.74719,0.567871 -0.15941,0.33873 -0.29888,0.926525 -0.29888,0.966376 0,0.09963 0.0996,0.09963 0.11955,0.09963 0.0996,0 0.10959,-0.01 0.16936,-0.22914 0.16937,-0.707348 0.36862,-1.185555 0.72728,-1.185555 0.19925,0 0.30884,0.129515 0.30884,0.458282 0,0.209215 -0.0299,0.318804 -0.1594,0.836862 z"
     id="path13657"
     inkscape:connector-curvature="0" /><path
     d="m 168.84618,14.483634 c 0,-0.774097 -0.57883,-1.220423 -1.26227,-1.220423 -1.03213,0 -2.00847,0.969365 -2.00847,1.924782 0,0.697385 0.50909,1.220424 1.26924,1.220424 0.99726,0 2.0015,-0.920548 2.0015,-1.924783 z m -1.99452,1.729515 c -0.34869,0 -0.69739,-0.223163 -0.69739,-0.774097 0,-0.285928 0.13251,-0.969365 0.40449,-1.366875 0.29987,-0.432378 0.70435,-0.613698 1.01818,-0.613698 0.37659,0 0.69738,0.258032 0.69738,0.774097 0,0.167372 -0.0837,0.857783 -0.39053,1.345953 -0.26501,0.411457 -0.68344,0.63462 -1.03213,0.63462 z"
     id="path13659"
     inkscape:connector-curvature="0" /><path
     d="m 179.18533,11.586514 c 0.14944,0 0.33873,0 0.33873,-0.199253 0,-0.199253 -0.18929,-0.199253 -0.32877,-0.199253 h -5.96762 c -0.13948,0 -0.32877,0 -0.32877,0.199253 0,0.199253 0.18929,0.199253 0.33873,0.199253 z m 0.01,1.932752 c 0.13948,0 0.32877,0 0.32877,-0.199253 0,-0.199253 -0.18929,-0.199252 -0.33873,-0.199252 h -5.9477 c -0.14944,0 -0.33873,0 -0.33873,0.199252 0,0.199252 0.18929,0.199253 0.32877,0.199253 z"
     id="path13661"
     inkscape:connector-curvature="0" /><path
     d="m 185.74624,11.337448 c 0.81694,-0.268991 1.39477,-0.966376 1.39477,-1.753425 0,-0.816936 -0.87671,-1.374844 -1.83313,-1.374844 -1.00622,0 -1.76338,0.597758 -1.76338,1.354919 0,0.328767 0.21918,0.518057 0.50809,0.518057 0.30884,0 0.5081,-0.219178 0.5081,-0.508094 0,-0.498132 -0.46825,-0.498132 -0.61769,-0.498132 0.30884,-0.48817 0.96638,-0.617684 1.32503,-0.617684 0.40847,0 0.95642,0.219178 0.95642,1.115816 0,0.119551 -0.0199,0.697384 -0.27896,1.135741 -0.29888,0.478206 -0.63761,0.508094 -0.88667,0.518057 -0.0797,0.01 -0.31881,0.02989 -0.38854,0.02989 -0.0797,0.01 -0.14944,0.01993 -0.14944,0.119552 0,0.109589 0.0697,0.109589 0.2391,0.109589 h 0.43836 c 0.81693,0 1.18555,0.677459 1.18555,1.653798 0,1.354919 -0.68742,1.643835 -1.12578,1.643835 -0.42839,0 -1.17559,-0.169364 -1.52428,-0.75716 0.34869,0.04981 0.65753,-0.169365 0.65753,-0.547945 0,-0.358655 -0.26899,-0.557908 -0.55791,-0.557908 -0.2391,0 -0.5579,0.139477 -0.5579,0.577833 0,0.9066 0.92652,1.564134 2.01245,1.564134 1.21544,0 2.12204,-0.9066 2.12204,-1.922789 0,-0.816937 -0.62764,-1.594023 -1.66376,-1.803238 z"
     id="path13663"
     inkscape:connector-curvature="0" /><path
     d="m 192.21201,7.750898 c 0.0498,-0.129515 0.0498,-0.169365 0.0498,-0.179328 0,-0.109589 -0.0897,-0.199253 -0.19926,-0.199253 -0.0697,0 -0.13947,0.029888 -0.16936,0.089664 l -3.45704,9.494396 c -0.0498,0.129514 -0.0498,0.169365 -0.0498,0.179327 0,0.10959 0.0897,0.199253 0.19925,0.199253 0.12952,0 0.1594,-0.06974 0.21918,-0.239103 z"
     id="path13665"
     inkscape:connector-curvature="0" /><path
     d="m 193.87255,7.750898 c 0.0498,-0.129515 0.0498,-0.169365 0.0498,-0.179328 0,-0.109589 -0.0897,-0.199253 -0.19926,-0.199253 -0.0697,0 -0.13947,0.029888 -0.16936,0.089664 l -3.45704,9.494396 c -0.0498,0.129514 -0.0498,0.169365 -0.0498,0.179327 0,0.10959 0.0897,0.199253 0.19925,0.199253 0.12952,0 0.1594,-0.06974 0.21918,-0.239103 z"
     id="path13667"
     inkscape:connector-curvature="0" /><path
     d="m 198.95352,12.841807 c 0,-1.185555 -0.81694,-2.181819 -1.8929,-2.181819 -0.47821,0 -0.9066,0.159403 -1.26526,0.508095 V 9.225368 c 0.19925,0.059776 0.52802,0.129515 0.84683,0.129515 1.2254,0 1.92279,-0.906601 1.92279,-1.036115 0,-0.059776 -0.0299,-0.109589 -0.0996,-0.109589 -0.01,0 -0.0299,0 -0.0797,0.029888 -0.19925,0.089664 -0.68742,0.288916 -1.35492,0.288916 -0.39851,0 -0.85679,-0.069738 -1.32503,-0.278953 -0.0797,-0.029888 -0.0996,-0.029888 -0.11955,-0.029888 -0.0996,0 -0.0996,0.079701 -0.0996,0.239103 v 2.948941 c 0,0.179328 0,0.259029 0.13948,0.259029 0.0697,0 0.0897,-0.02989 0.12951,-0.08966 0.10959,-0.159402 0.47821,-0.697384 1.28518,-0.697384 0.51806,0 0.76712,0.458281 0.84683,0.637608 0.1594,0.368618 0.17932,0.757161 0.17932,1.255293 0,0.348693 0,0.946451 -0.2391,1.364882 -0.2391,0.388543 -0.60772,0.647571 -1.066,0.647571 -0.72728,0 -1.29515,-0.52802 -1.46451,-1.115815 0.0299,0.01 0.0598,0.01993 0.16936,0.01993 0.32877,0 0.49814,-0.249066 0.49814,-0.488169 0,-0.239103 -0.16937,-0.48817 -0.49814,-0.48817 -0.13947,0 -0.48816,0.06974 -0.48816,0.52802 0,0.856787 0.68742,1.823163 1.80323,1.823163 1.15567,0 2.17186,-0.956413 2.17186,-2.221668 z"
     id="path13669"
     inkscape:connector-curvature="0" /></g><g
   id="g14022"
   transform="matrix(2.9071776,0,0,2.9071776,764.43484,109.34331)"><path
     inkscape:connector-curvature="0"
     id="path14000"
     d="m 147.13885,-21.270273 c 0,-0.199253 -0.13948,-0.358655 -0.36862,-0.358655 -0.26899,0 -0.53798,0.259029 -0.53798,0.52802 0,0.18929 0.13947,0.358655 0.37858,0.358655 0.22914,0 0.52802,-0.229141 0.52802,-0.52802 z m -0.75717,3.745953 c 0.11956,-0.288917 0.11956,-0.308842 0.21918,-0.577834 0.0797,-0.199252 0.12952,-0.338729 0.12952,-0.528019 0,-0.448319 -0.31881,-0.816937 -0.81694,-0.816937 -0.93649,0 -1.31507,1.444583 -1.31507,1.534247 0,0.09963 0.0996,0.09963 0.11955,0.09963 0.0996,0 0.10959,-0.01993 0.15941,-0.179328 0.26899,-0.936488 0.66749,-1.235367 1.00622,-1.235367 0.0797,0 0.24907,0 0.24907,0.318805 0,0.209215 -0.0697,0.41843 -0.10959,0.518057 -0.0797,0.259029 -0.52802,1.414695 -0.68742,1.843088 -0.0996,0.259029 -0.22914,0.587796 -0.22914,0.797012 0,0.468244 0.33873,0.816936 0.81693,0.816936 0.93649,0 1.30511,-1.444583 1.30511,-1.534247 0,-0.09963 -0.0897,-0.09963 -0.11955,-0.09963 -0.0996,0 -0.0996,0.02989 -0.14944,0.179328 -0.17933,0.627646 -0.5081,1.235367 -1.01619,1.235367 -0.16937,0 -0.2391,-0.09963 -0.2391,-0.328767 0,-0.249066 0.0598,-0.388543 0.28891,-0.996264 z" /><path
     inkscape:connector-curvature="0"
     id="path14002"
     d="m 148.26475,-12.698433 c -0.0488,0.195268 -0.0628,0.251059 -0.34172,0.251059 -0.0907,0 -0.18829,0 -0.18829,0.146451 0,0.07671 0.0628,0.104607 0.0976,0.104607 0.18132,0 0.41146,-0.0279 0.59976,-0.0279 0.23711,0 0.50211,0.0279 0.73225,0.0279 0.0628,0 0.13948,-0.02092 0.13948,-0.153424 0,-0.09763 -0.0976,-0.09763 -0.18132,-0.09763 -0.15343,0 -0.34172,0 -0.34172,-0.08369 0,-0.03487 0.0488,-0.21619 0.0767,-0.320797 0.0837,-0.369614 0.18132,-0.746202 0.25803,-1.039104 0.0837,0.139477 0.29988,0.411457 0.71831,0.411457 0.85081,0 1.79228,-0.941469 1.79228,-1.980573 0,-0.81594 -0.56488,-1.164632 -1.04608,-1.164632 -0.43238,0 -0.80199,0.292901 -0.99029,0.488169 -0.11855,-0.397509 -0.50909,-0.488169 -0.7183,-0.488169 -0.27198,0 -0.43935,0.18132 -0.55094,0.369614 -0.13947,0.237111 -0.25106,0.655541 -0.25106,0.697385 0,0.09066 0.0976,0.09066 0.11856,0.09066 0.0976,0 0.10461,-0.02092 0.15342,-0.209216 0.10461,-0.404483 0.23712,-0.753175 0.5091,-0.753175 0.18132,0 0.23013,0.153424 0.23013,0.341718 0,0.07671 -0.0139,0.167372 -0.0209,0.209216 z m 1.31806,-3.089414 c 0.40448,-0.536987 0.75318,-0.641594 0.97634,-0.641594 0.27198,0 0.50909,0.202241 0.50909,0.676463 0,0.285928 -0.15343,0.99726 -0.36264,1.401743 -0.17435,0.341719 -0.51607,0.676464 -0.87173,0.676464 -0.49514,0 -0.62067,-0.536987 -0.62067,-0.606725 0,-0.0279 0.0139,-0.07671 0.0209,-0.104608 z" /><path
     inkscape:connector-curvature="0"
     id="path14004"
     d="m 156.72039,-22.137023 c 0.0498,-0.129514 0.0498,-0.169365 0.0498,-0.179327 0,-0.109589 -0.0897,-0.199253 -0.19925,-0.199253 -0.0697,0 -0.13948,0.02989 -0.16937,0.08966 l -3.45703,9.494396 c -0.0498,0.129514 -0.0498,0.169365 -0.0498,0.179327 0,0.109589 0.0897,0.199253 0.19925,0.199253 0.12951,0 0.1594,-0.06974 0.21918,-0.239103 z" /><path
     inkscape:connector-curvature="0"
     id="path14006"
     d="m 158.38093,-22.137023 c 0.0498,-0.129514 0.0498,-0.169365 0.0498,-0.179327 0,-0.109589 -0.0897,-0.199253 -0.19925,-0.199253 -0.0697,0 -0.13948,0.02989 -0.16937,0.08966 l -3.45703,9.494396 c -0.0498,0.129514 -0.0498,0.169365 -0.0498,0.179327 0,0.109589 0.0897,0.199253 0.19925,0.199253 0.12951,0 0.1594,-0.06974 0.21918,-0.239103 z" /><path
     inkscape:connector-curvature="0"
     id="path14008"
     d="m 159.86538,-15.631419 c -0.0299,0.14944 -0.0897,0.378581 -0.0897,0.428394 0,0.179327 0.13947,0.268991 0.28891,0.268991 0.11956,0 0.29888,-0.0797 0.36862,-0.278954 0.01,-0.01993 0.12952,-0.488169 0.18929,-0.737235 l 0.21918,-0.896638 c 0.0598,-0.219178 0.11955,-0.438356 0.16936,-0.667497 0.0399,-0.169365 0.11956,-0.458281 0.12952,-0.498132 0.14944,-0.308842 0.67746,-1.215442 1.62391,-1.215442 0.44832,0 0.53798,0.368618 0.53798,0.697385 0,0.617684 -0.48817,1.892902 -0.64757,2.321295 -0.0897,0.229141 -0.0996,0.348692 -0.0996,0.458282 0,0.468244 0.3487,0.816936 0.81694,0.816936 0.93649,0 1.30511,-1.454545 1.30511,-1.534247 0,-0.09963 -0.0897,-0.09963 -0.11956,-0.09963 -0.0996,0 -0.0996,0.02989 -0.14943,0.179328 -0.19926,0.677459 -0.52802,1.235367 -1.01619,1.235367 -0.16937,0 -0.23911,-0.09963 -0.23911,-0.328767 0,-0.249066 0.0897,-0.48817 0.17933,-0.707348 0.18929,-0.52802 0.60772,-1.62391 0.60772,-2.19178 0,-0.667497 -0.42839,-1.066003 -1.1457,-1.066003 -0.89664,0 -1.38481,0.637609 -1.55417,0.86675 -0.0498,-0.557908 -0.45829,-0.86675 -0.91657,-0.86675 -0.45828,0 -0.64757,0.388543 -0.74719,0.567871 -0.15941,0.338729 -0.29888,0.926525 -0.29888,0.966376 0,0.09963 0.0996,0.09963 0.11955,0.09963 0.0996,0 0.10959,-0.01 0.16936,-0.229141 0.16937,-0.707347 0.36862,-1.185554 0.72727,-1.185554 0.19926,0 0.30885,0.129514 0.30885,0.458282 0,0.209215 -0.0299,0.318804 -0.15941,0.836861 z" /><path
     inkscape:connector-curvature="0"
     id="path14010"
     d="m 165.49163,-12.698433 c -0.0488,0.195268 -0.0628,0.251059 -0.34172,0.251059 -0.0907,0 -0.18829,0 -0.18829,0.146451 0,0.07671 0.0628,0.104607 0.0976,0.104607 0.18132,0 0.41146,-0.0279 0.59976,-0.0279 0.23711,0 0.50211,0.0279 0.73225,0.0279 0.0628,0 0.13948,-0.02092 0.13948,-0.153424 0,-0.09763 -0.0976,-0.09763 -0.18132,-0.09763 -0.15343,0 -0.34172,0 -0.34172,-0.08369 0,-0.03487 0.0488,-0.21619 0.0767,-0.320797 0.0837,-0.369614 0.18132,-0.746202 0.25803,-1.039104 0.0837,0.139477 0.29988,0.411457 0.71831,0.411457 0.85081,0 1.79228,-0.941469 1.79228,-1.980573 0,-0.81594 -0.56488,-1.164632 -1.04608,-1.164632 -0.43238,0 -0.80199,0.292901 -0.99029,0.488169 -0.11855,-0.397509 -0.50909,-0.488169 -0.7183,-0.488169 -0.27198,0 -0.43935,0.18132 -0.55094,0.369614 -0.13947,0.237111 -0.25106,0.655541 -0.25106,0.697385 0,0.09066 0.0976,0.09066 0.11856,0.09066 0.0976,0 0.10461,-0.02092 0.15343,-0.209216 0.1046,-0.404483 0.23711,-0.753175 0.50909,-0.753175 0.18132,0 0.23013,0.153424 0.23013,0.341718 0,0.07671 -0.0139,0.167372 -0.0209,0.209216 z m 1.31806,-3.089414 c 0.40448,-0.536987 0.75318,-0.641594 0.97634,-0.641594 0.27198,0 0.50909,0.202241 0.50909,0.676463 0,0.285928 -0.15342,0.99726 -0.36264,1.401743 -0.17435,0.341719 -0.51607,0.676464 -0.87173,0.676464 -0.49514,0 -0.62067,-0.536987 -0.62067,-0.606725 0,-0.0279 0.0139,-0.07671 0.0209,-0.104608 z" /><path
     inkscape:connector-curvature="0"
     id="path14012"
     d="m 179.18533,-18.301406 c 0.14944,0 0.33873,0 0.33873,-0.199253 0,-0.199253 -0.18929,-0.199253 -0.32877,-0.199253 h -5.96762 c -0.13948,0 -0.32877,0 -0.32877,0.199253 0,0.199253 0.18929,0.199253 0.33873,0.199253 z m 0.01,1.932752 c 0.13948,0 0.32877,0 0.32877,-0.199253 0,-0.199253 -0.18929,-0.199253 -0.33873,-0.199253 h -5.9477 c -0.14944,0 -0.33873,0 -0.33873,0.199253 0,0.199253 0.18929,0.199253 0.32877,0.199253 z" /><path
     inkscape:connector-curvature="0"
     id="path14014"
     d="m 185.74624,-18.550472 c 0.81694,-0.268992 1.39477,-0.966376 1.39477,-1.753425 0,-0.816936 -0.87671,-1.374844 -1.83313,-1.374844 -1.00622,0 -1.76338,0.597758 -1.76338,1.354919 0,0.328767 0.21918,0.518057 0.50809,0.518057 0.30884,0 0.5081,-0.219178 0.5081,-0.508095 0,-0.498132 -0.46825,-0.498132 -0.61769,-0.498132 0.30884,-0.488169 0.96638,-0.617683 1.32503,-0.617683 0.40847,0 0.95642,0.219178 0.95642,1.115815 0,0.119552 -0.0199,0.697385 -0.27896,1.135741 -0.29888,0.478207 -0.63761,0.508095 -0.88667,0.518058 -0.0797,0.01 -0.31881,0.02989 -0.38854,0.02989 -0.0797,0.01 -0.14944,0.01993 -0.14944,0.119551 0,0.109589 0.0697,0.109589 0.2391,0.109589 h 0.43836 c 0.81693,0 1.18555,0.67746 1.18555,1.653799 0,1.354919 -0.68742,1.643835 -1.12578,1.643835 -0.42839,0 -1.17559,-0.169365 -1.52428,-0.757161 0.34869,0.04981 0.65753,-0.169364 0.65753,-0.547945 0,-0.358655 -0.26899,-0.557908 -0.55791,-0.557908 -0.2391,0 -0.5579,0.139477 -0.5579,0.577834 0,0.9066 0.92652,1.564134 2.01245,1.564134 1.21544,0 2.12204,-0.9066 2.12204,-1.922789 0,-0.816937 -0.62764,-1.594023 -1.66376,-1.803238 z" /><path
     inkscape:connector-curvature="0"
     id="path14016"
     d="m 192.21201,-22.137023 c 0.0498,-0.129514 0.0498,-0.169365 0.0498,-0.179327 0,-0.109589 -0.0897,-0.199253 -0.19926,-0.199253 -0.0697,0 -0.13947,0.02989 -0.16936,0.08966 l -3.45704,9.494396 c -0.0498,0.129514 -0.0498,0.169365 -0.0498,0.179327 0,0.109589 0.0897,0.199253 0.19925,0.199253 0.12952,0 0.1594,-0.06974 0.21918,-0.239103 z" /><path
     inkscape:connector-curvature="0"
     id="path14018"
     d="m 193.87255,-22.137023 c 0.0498,-0.129514 0.0498,-0.169365 0.0498,-0.179327 0,-0.109589 -0.0897,-0.199253 -0.19926,-0.199253 -0.0697,0 -0.13947,0.02989 -0.16936,0.08966 l -3.45704,9.494396 c -0.0498,0.129514 -0.0498,0.169365 -0.0498,0.179327 0,0.109589 0.0897,0.199253 0.19925,0.199253 0.12952,0 0.1594,-0.06974 0.21918,-0.239103 z" /><path
     inkscape:connector-curvature="0"
     id="path14020"
     d="m 197.40931,-16.687459 v 0.86675 c 0,0.358655 -0.0199,0.468244 -0.75716,0.468244 h -0.20922 v 0.308842 c 0.40847,-0.02989 0.92653,-0.02989 1.34496,-0.02989 0.41843,0 0.94645,0 1.35492,0.02989 v -0.308842 h -0.20922 c -0.73723,0 -0.75716,-0.109589 -0.75716,-0.468244 v -0.86675 h 0.99627 V -16.9963 h -0.99627 v -4.533002 c 0,-0.199253 0,-0.259028 -0.1594,-0.259028 -0.0897,0 -0.11955,0 -0.19925,0.119551 l -3.05853,4.672479 v 0.308841 z m 0.0598,-0.308841 h -2.43089 l 2.43089,-3.716065 z" /></g><g
   id="g14046"
   transform="matrix(2.8876624,0,0,2.8876624,768.07721,147.01519)"><path
     inkscape:connector-curvature="0"
     id="path14024"
     d="m 147.07886,-6.326313 c 0,-0.199253 -0.13948,-0.358655 -0.36862,-0.358655 -0.26899,0 -0.53798,0.259029 -0.53798,0.52802 0,0.18929 0.13948,0.358655 0.37858,0.358655 0.22914,0 0.52802,-0.229141 0.52802,-0.52802 z m -0.75716,3.745953 c 0.11955,-0.288917 0.11955,-0.308842 0.21918,-0.577833 0.0797,-0.199253 0.12951,-0.33873 0.12951,-0.52802 0,-0.448319 -0.3188,-0.816937 -0.81694,-0.816937 -0.93648,0 -1.31506,1.444583 -1.31506,1.534247 0,0.099626 0.0996,0.099626 0.11955,0.099626 0.0996,0 0.10959,-0.019925 0.1594,-0.179327 0.26899,-0.936489 0.6675,-1.235368 1.00623,-1.235368 0.0797,0 0.24906,0 0.24906,0.318805 0,0.209215 -0.0697,0.418431 -0.10959,0.518057 -0.0797,0.259029 -0.52802,1.414695 -0.68742,1.843088 -0.0996,0.259029 -0.22914,0.587796 -0.22914,0.797012 0,0.468244 0.33873,0.816936 0.81694,0.816936 0.93649,0 1.3051,-1.444583 1.3051,-1.534246 0,-0.099627 -0.0897,-0.099627 -0.11955,-0.099627 -0.0996,0 -0.0996,0.029888 -0.14944,0.179328 -0.17933,0.627646 -0.50809,1.235367 -1.01619,1.235367 -0.16936,0 -0.2391,-0.099626 -0.2391,-0.328767 0,-0.249066 0.0598,-0.388543 0.28892,-0.996264 z" /><path
     inkscape:connector-curvature="0"
     id="path14026"
     d="m 151.39181,-1.178632 c 0.0279,-0.104608 0.0279,-0.139477 0.0279,-0.146451 0,-0.153424 -0.12553,-0.223163 -0.23711,-0.223163 -0.1604,0 -0.2929,0.132503 -0.3208,0.265006 -0.11855,-0.188294 -0.35566,-0.397509 -0.7183,-0.397509 -0.87173,0 -1.78531,0.934496 -1.78531,1.931756 0,0.718306 0.48817,1.143711 1.06003,1.143711 0.32079,0 0.62764,-0.160399 0.87173,-0.376588 l -0.15343,0.627646 c -0.0767,0.292902 -0.12553,0.481196 -0.39053,0.718307 -0.30685,0.258032 -0.60673,0.258032 -0.78107,0.258032 -0.3208,0 -0.41146,-0.020921 -0.53699,-0.048817 0.17435,-0.083686 0.22316,-0.251058 0.22316,-0.348692 0,-0.167373 -0.1325,-0.258033 -0.27198,-0.258033 -0.19527,0 -0.39751,0.160399 -0.39751,0.425405 0,0.418431 0.59975,0.425405 0.99029,0.425405 1.09489,0 1.56214,-0.557908 1.65978,-0.955417 z m -0.96239,1.645828 c -0.0279,0.104608 -0.0279,0.118556 -0.14645,0.258033 -0.24408,0.292901 -0.57883,0.474221 -0.84383,0.474221 -0.35567,0 -0.52304,-0.299875 -0.52304,-0.662515 0,-0.30685 0.18829,-1.087921 0.36961,-1.39477 0.29291,-0.488169 0.62068,-0.627646 0.85779,-0.627646 0.48817,0 0.62067,0.523038 0.62067,0.592777 0,0.013947 0,0.027895 -0.0209,0.104607 z" /><path
     inkscape:connector-curvature="0"
     id="path14028"
     d="m 156.6904,-7.193063 c 0.0498,-0.129514 0.0498,-0.169365 0.0498,-0.179327 0,-0.109589 -0.0897,-0.199253 -0.19925,-0.199253 -0.0697,0 -0.13948,0.029888 -0.16937,0.089664 l -3.45703,9.494396 c -0.0498,0.129514 -0.0498,0.169365 -0.0498,0.179327 0,0.109589 0.0897,0.199253 0.19925,0.199253 0.12952,0 0.15941,-0.069738 0.21918,-0.239103 z" /><path
     inkscape:connector-curvature="0"
     id="path14030"
     d="m 158.35094,-7.193063 c 0.0498,-0.129514 0.0498,-0.169365 0.0498,-0.179327 0,-0.109589 -0.0897,-0.199253 -0.19925,-0.199253 -0.0697,0 -0.13948,0.029888 -0.16937,0.089664 l -3.45703,9.494396 c -0.0498,0.129514 -0.0498,0.169365 -0.0498,0.179327 0,0.109589 0.0897,0.199253 0.19925,0.199253 0.12952,0 0.15941,-0.069738 0.21918,-0.239103 z" /><path
     inkscape:connector-curvature="0"
     id="path14032"
     d="m 159.83539,-0.687459 c -0.0299,0.14944 -0.0897,0.378581 -0.0897,0.428394 0,0.179327 0.13948,0.268991 0.28892,0.268991 0.11955,0 0.29888,-0.079701 0.36862,-0.278954 0.01,-0.019925 0.12951,-0.488169 0.18929,-0.737235 l 0.21918,-0.896638 c 0.0598,-0.219178 0.11955,-0.438356 0.16936,-0.667497 0.0399,-0.169365 0.11955,-0.458281 0.12952,-0.498132 0.14944,-0.308841 0.67746,-1.215442 1.62391,-1.215442 0.44832,0 0.53798,0.368618 0.53798,0.697385 0,0.617684 -0.48817,1.892902 -0.64757,2.321295 -0.0897,0.229141 -0.0996,0.348693 -0.0996,0.458282 0,0.468244 0.34869,0.816936 0.81694,0.816936 0.93649,0 1.3051,-1.454545 1.3051,-1.534246 0,-0.099627 -0.0897,-0.099627 -0.11955,-0.099627 -0.0996,0 -0.0996,0.029888 -0.14944,0.179328 -0.19925,0.677459 -0.52802,1.235367 -1.01619,1.235367 -0.16936,0 -0.2391,-0.099626 -0.2391,-0.328767 0,-0.249066 0.0897,-0.488169 0.17933,-0.707347 0.18929,-0.52802 0.60772,-1.623911 0.60772,-2.191781 0,-0.667497 -0.4284,-1.066003 -1.14571,-1.066003 -0.89663,0 -1.3848,0.637609 -1.55417,0.86675 -0.0498,-0.557908 -0.45828,-0.86675 -0.91656,-0.86675 -0.45828,0 -0.64757,0.388543 -0.7472,0.567871 -0.1594,0.338729 -0.29888,0.926525 -0.29888,0.966376 0,0.099626 0.0996,0.099626 0.11955,0.099626 0.0996,0 0.10959,-0.00996 0.16937,-0.229141 0.16936,-0.707347 0.36862,-1.185554 0.72727,-1.185554 0.19925,0 0.30884,0.129515 0.30884,0.458282 0,0.209215 -0.0299,0.318804 -0.1594,0.836861 z" /><path
     inkscape:connector-curvature="0"
     id="path14034"
     d="m 168.64869,-1.178632 c 0.0279,-0.104608 0.0279,-0.139477 0.0279,-0.146451 0,-0.153424 -0.12553,-0.223163 -0.23711,-0.223163 -0.1604,0 -0.2929,0.132503 -0.32079,0.265006 -0.11856,-0.188294 -0.35567,-0.397509 -0.71831,-0.397509 -0.87173,0 -1.78531,0.934496 -1.78531,1.931756 0,0.718306 0.48817,1.143711 1.06003,1.143711 0.3208,0 0.62765,-0.160399 0.87173,-0.376588 l -0.15342,0.627646 c -0.0767,0.292902 -0.12553,0.481196 -0.39054,0.718307 -0.30685,0.258032 -0.60672,0.258032 -0.78107,0.258032 -0.3208,0 -0.41146,-0.020921 -0.53699,-0.048817 0.17435,-0.083686 0.22317,-0.251058 0.22317,-0.348692 0,-0.167373 -0.13251,-0.258033 -0.27198,-0.258033 -0.19527,0 -0.39751,0.160399 -0.39751,0.425405 0,0.418431 0.59975,0.425405 0.99028,0.425405 1.0949,0 1.56214,-0.557908 1.65978,-0.955417 z m -0.96239,1.645828 c -0.0279,0.104608 -0.0279,0.118556 -0.14645,0.258033 -0.24409,0.292901 -0.57883,0.474221 -0.84384,0.474221 -0.35566,0 -0.52304,-0.299875 -0.52304,-0.662515 0,-0.30685 0.1883,-1.087921 0.36962,-1.39477 0.2929,-0.488169 0.62067,-0.627646 0.85778,-0.627646 0.48817,0 0.62067,0.523038 0.62067,0.592777 0,0.013947 0,0.027895 -0.0209,0.104607 z" /><path
     inkscape:connector-curvature="0"
     id="path14036"
     d="m 179.18533,-3.357446 c 0.14944,0 0.33873,0 0.33873,-0.199253 0,-0.199253 -0.18929,-0.199253 -0.32877,-0.199253 h -5.96762 c -0.13948,0 -0.32877,0 -0.32877,0.199253 0,0.199253 0.18929,0.199253 0.33873,0.199253 z m 0.01,1.932752 c 0.13948,0 0.32877,0 0.32877,-0.199253 0,-0.199253 -0.18929,-0.199253 -0.33873,-0.199253 h -5.9477 c -0.14944,0 -0.33873,0 -0.33873,0.199253 0,0.199253 0.18929,0.199253 0.32877,0.199253 z" /><path
     inkscape:connector-curvature="0"
     id="path14038"
     d="m 185.78609,-1.743499 v 0.86675 c 0,0.358655 -0.0199,0.468244 -0.75716,0.468244 h -0.20921 v 0.308842 c 0.40846,-0.029888 0.92652,-0.029888 1.34495,-0.029888 0.41843,0 0.94645,0 1.35492,0.029888 v -0.308842 h -0.20921 c -0.73724,0 -0.75717,-0.109589 -0.75717,-0.468244 v -0.86675 h 0.99627 V -2.05234 h -0.99627 v -4.533002 c 0,-0.199252 0,-0.259028 -0.1594,-0.259028 -0.0897,0 -0.11955,0 -0.19925,0.119551 l -3.05853,4.672479 v 0.308841 z m 0.0598,-0.308841 H 183.415 l 2.43089,-3.716065 z" /><path
     inkscape:connector-curvature="0"
     id="path14040"
     d="m 192.21201,-7.193063 c 0.0498,-0.129514 0.0498,-0.169365 0.0498,-0.179327 0,-0.109589 -0.0897,-0.199253 -0.19926,-0.199253 -0.0697,0 -0.13947,0.029888 -0.16936,0.089664 l -3.45704,9.494396 c -0.0498,0.129514 -0.0498,0.169365 -0.0498,0.179327 0,0.109589 0.0897,0.199253 0.19925,0.199253 0.12952,0 0.1594,-0.069738 0.21918,-0.239103 z" /><path
     inkscape:connector-curvature="0"
     id="path14042"
     d="m 193.87255,-7.193063 c 0.0498,-0.129514 0.0498,-0.169365 0.0498,-0.179327 0,-0.109589 -0.0897,-0.199253 -0.19926,-0.199253 -0.0697,0 -0.13947,0.029888 -0.16936,0.089664 l -3.45704,9.494396 c -0.0498,0.129514 -0.0498,0.169365 -0.0498,0.179327 0,0.109589 0.0897,0.199253 0.19925,0.199253 0.12952,0 0.1594,-0.069738 0.21918,-0.239103 z" /><path
     inkscape:connector-curvature="0"
     id="path14044"
     d="m 195.79536,-3.367409 v -0.239103 c 0,-2.520548 1.23537,-2.879203 1.74346,-2.879203 0.23911,0 0.65754,0.059776 0.87672,0.398505 -0.14944,0 -0.54795,0 -0.54795,0.448319 0,0.308842 0.2391,0.458282 0.45828,0.458282 0.1594,0 0.45828,-0.089664 0.45828,-0.478207 0,-0.597758 -0.43835,-1.075965 -1.26525,-1.075965 -1.27522,0 -2.62017,1.28518 -2.62017,3.486924 0,2.660025 1.15566,3.367372 2.08219,3.367372 1.10585,0 2.0523,-0.936488 2.0523,-2.251556 0,-1.265256 -0.88668,-2.221669 -1.99253,-2.221669 -0.67746,0 -1.04608,0.508094 -1.24533,0.986301 z m 1.18556,3.20797 c -0.62765,0 -0.92653,-0.597758 -0.98631,-0.747198 -0.17932,-0.468244 -0.17932,-1.265255 -0.17932,-1.444583 0,-0.777085 0.3188,-1.773349 1.21544,-1.773349 0.1594,0 0.61768,0 0.92652,0.617683 0.17933,0.368618 0.17933,0.876713 0.17933,1.364882 0,0.478207 0,0.976339 -0.16936,1.334994 -0.29888,0.597758 -0.75716,0.647571 -0.9863,0.647571 z" /></g><g
   id="g14070"
   transform="matrix(3.01125,0,0,3.01125,746.35084,184.21534)"><path
     inkscape:connector-curvature="0"
     id="path14048"
     d="m 147.48779,8.617647 c 0,-0.199253 -0.13948,-0.358655 -0.36862,-0.358655 -0.26899,0 -0.53798,0.259029 -0.53798,0.52802 0,0.18929 0.13947,0.358655 0.37858,0.358655 0.22914,0 0.52802,-0.229141 0.52802,-0.52802 z m -0.75716,3.745953 c 0.11955,-0.288917 0.11955,-0.308842 0.21917,-0.577833 0.0797,-0.199253 0.12952,-0.33873 0.12952,-0.52802 0,-0.448319 -0.31881,-0.816937 -0.81694,-0.816937 -0.93649,0 -1.31507,1.444583 -1.31507,1.534247 0,0.09963 0.0996,0.09963 0.11956,0.09963 0.0996,0 0.10958,-0.01993 0.1594,-0.179327 0.26899,-0.936488 0.66749,-1.235368 1.00622,-1.235368 0.0797,0 0.24907,0 0.24907,0.318805 0,0.209215 -0.0697,0.418431 -0.10959,0.518057 -0.0797,0.259029 -0.52802,1.414695 -0.68742,1.843089 -0.0996,0.259028 -0.22914,0.587795 -0.22914,0.797011 0,0.468244 0.33873,0.816936 0.81693,0.816936 0.93649,0 1.30511,-1.444583 1.30511,-1.534246 0,-0.09963 -0.0897,-0.09963 -0.11955,-0.09963 -0.0996,0 -0.0996,0.02989 -0.14944,0.179328 -0.17933,0.627646 -0.5081,1.235367 -1.01619,1.235367 -0.16936,0 -0.2391,-0.09963 -0.2391,-0.328767 0,-0.249066 0.0598,-0.388543 0.28891,-0.996264 z" /><path
     inkscape:connector-curvature="0"
     id="path14050"
     d="m 151.79377,14.483634 c 0,-0.774097 -0.57883,-1.220423 -1.26227,-1.220423 -1.03213,0 -2.00847,0.969365 -2.00847,1.924782 0,0.697385 0.5091,1.220424 1.26924,1.220424 0.99726,0 2.0015,-0.920548 2.0015,-1.924783 z m -1.99452,1.729515 c -0.34869,0 -0.69739,-0.223163 -0.69739,-0.774097 0,-0.285928 0.13251,-0.969365 0.40449,-1.366875 0.29987,-0.432378 0.70436,-0.613698 1.01818,-0.613698 0.37659,0 0.69738,0.258032 0.69738,0.774097 0,0.167372 -0.0837,0.857783 -0.39053,1.345953 -0.26501,0.411457 -0.68344,0.63462 -1.03213,0.63462 z" /><path
     inkscape:connector-curvature="0"
     id="path14052"
     d="m 156.89486,7.750898 c 0.0498,-0.129515 0.0498,-0.169365 0.0498,-0.179328 0,-0.109589 -0.0897,-0.199253 -0.19925,-0.199253 -0.0697,0 -0.13948,0.029888 -0.16936,0.089664 l -3.45704,9.494396 c -0.0498,0.129514 -0.0498,0.169365 -0.0498,0.179327 0,0.10959 0.0897,0.199253 0.19925,0.199253 0.12951,0 0.1594,-0.06974 0.21918,-0.239103 z" /><path
     inkscape:connector-curvature="0"
     id="path14054"
     d="m 158.5554,7.750898 c 0.0498,-0.129515 0.0498,-0.169365 0.0498,-0.179328 0,-0.109589 -0.0897,-0.199253 -0.19925,-0.199253 -0.0697,0 -0.13948,0.029888 -0.16936,0.089664 l -3.45704,9.494396 c -0.0498,0.129514 -0.0498,0.169365 -0.0498,0.179327 0,0.10959 0.0897,0.199253 0.19925,0.199253 0.12951,0 0.1594,-0.06974 0.21918,-0.239103 z" /><path
     inkscape:connector-curvature="0"
     id="path14056"
     d="m 160.03985,14.256501 c -0.0299,0.14944 -0.0897,0.378581 -0.0897,0.428394 0,0.179328 0.13948,0.268991 0.28891,0.268991 0.11956,0 0.29888,-0.0797 0.36862,-0.278954 0.01,-0.01993 0.12952,-0.488169 0.18929,-0.737235 l 0.21918,-0.896638 c 0.0598,-0.219178 0.11955,-0.438356 0.16937,-0.667496 0.0399,-0.169365 0.11955,-0.458282 0.12951,-0.498132 0.14944,-0.308842 0.67746,-1.215443 1.62391,-1.215443 0.44832,0 0.53798,0.368618 0.53798,0.697385 0,0.617684 -0.48817,1.892902 -0.64757,2.321295 -0.0897,0.229141 -0.0996,0.348693 -0.0996,0.458282 0,0.468244 0.34869,0.816936 0.81693,0.816936 0.93649,0 1.30511,-1.454545 1.30511,-1.534246 0,-0.09963 -0.0897,-0.09963 -0.11955,-0.09963 -0.0996,0 -0.0996,0.02989 -0.14944,0.179328 -0.19926,0.677459 -0.52802,1.235367 -1.01619,1.235367 -0.16937,0 -0.23911,-0.09963 -0.23911,-0.328767 0,-0.249066 0.0897,-0.488169 0.17933,-0.707347 0.18929,-0.52802 0.60772,-1.623911 0.60772,-2.191781 0,-0.667497 -0.42839,-1.066003 -1.1457,-1.066003 -0.89664,0 -1.38481,0.637609 -1.55417,0.86675 -0.0498,-0.557908 -0.45828,-0.86675 -0.91657,-0.86675 -0.45828,0 -0.64757,0.388543 -0.74719,0.567871 -0.15941,0.33873 -0.29888,0.926525 -0.29888,0.966376 0,0.09963 0.0996,0.09963 0.11955,0.09963 0.0996,0 0.10959,-0.01 0.16936,-0.22914 0.16937,-0.707348 0.36862,-1.185555 0.72728,-1.185555 0.19925,0 0.30884,0.129515 0.30884,0.458282 0,0.209215 -0.0299,0.318804 -0.1594,0.836862 z" /><path
     inkscape:connector-curvature="0"
     id="path14058"
     d="m 168.84618,14.483634 c 0,-0.774097 -0.57883,-1.220423 -1.26227,-1.220423 -1.03213,0 -2.00847,0.969365 -2.00847,1.924782 0,0.697385 0.50909,1.220424 1.26924,1.220424 0.99726,0 2.0015,-0.920548 2.0015,-1.924783 z m -1.99452,1.729515 c -0.34869,0 -0.69739,-0.223163 -0.69739,-0.774097 0,-0.285928 0.13251,-0.969365 0.40449,-1.366875 0.29987,-0.432378 0.70435,-0.613698 1.01818,-0.613698 0.37659,0 0.69738,0.258032 0.69738,0.774097 0,0.167372 -0.0837,0.857783 -0.39053,1.345953 -0.26501,0.411457 -0.68344,0.63462 -1.03213,0.63462 z" /><path
     inkscape:connector-curvature="0"
     id="path14060"
     d="m 179.18533,11.586514 c 0.14944,0 0.33873,0 0.33873,-0.199253 0,-0.199253 -0.18929,-0.199253 -0.32877,-0.199253 h -5.96762 c -0.13948,0 -0.32877,0 -0.32877,0.199253 0,0.199253 0.18929,0.199253 0.33873,0.199253 z m 0.01,1.932752 c 0.13948,0 0.32877,0 0.32877,-0.199253 0,-0.199253 -0.18929,-0.199252 -0.33873,-0.199252 h -5.9477 c -0.14944,0 -0.33873,0 -0.33873,0.199252 0,0.199252 0.18929,0.199253 0.32877,0.199253 z" /><path
     inkscape:connector-curvature="0"
     id="path14062"
     d="m 185.74624,11.337448 c 0.81694,-0.268991 1.39477,-0.966376 1.39477,-1.753425 0,-0.816936 -0.87671,-1.374844 -1.83313,-1.374844 -1.00622,0 -1.76338,0.597758 -1.76338,1.354919 0,0.328767 0.21918,0.518057 0.50809,0.518057 0.30884,0 0.5081,-0.219178 0.5081,-0.508094 0,-0.498132 -0.46825,-0.498132 -0.61769,-0.498132 0.30884,-0.48817 0.96638,-0.617684 1.32503,-0.617684 0.40847,0 0.95642,0.219178 0.95642,1.115816 0,0.119551 -0.0199,0.697384 -0.27896,1.135741 -0.29888,0.478206 -0.63761,0.508094 -0.88667,0.518057 -0.0797,0.01 -0.31881,0.02989 -0.38854,0.02989 -0.0797,0.01 -0.14944,0.01993 -0.14944,0.119552 0,0.109589 0.0697,0.109589 0.2391,0.109589 h 0.43836 c 0.81693,0 1.18555,0.677459 1.18555,1.653798 0,1.354919 -0.68742,1.643835 -1.12578,1.643835 -0.42839,0 -1.17559,-0.169364 -1.52428,-0.75716 0.34869,0.04981 0.65753,-0.169365 0.65753,-0.547945 0,-0.358655 -0.26899,-0.557908 -0.55791,-0.557908 -0.2391,0 -0.5579,0.139477 -0.5579,0.577833 0,0.9066 0.92652,1.564134 2.01245,1.564134 1.21544,0 2.12204,-0.9066 2.12204,-1.922789 0,-0.816937 -0.62764,-1.594023 -1.66376,-1.803238 z" /><path
     inkscape:connector-curvature="0"
     id="path14064"
     d="m 192.21201,7.750898 c 0.0498,-0.129515 0.0498,-0.169365 0.0498,-0.179328 0,-0.109589 -0.0897,-0.199253 -0.19926,-0.199253 -0.0697,0 -0.13947,0.029888 -0.16936,0.089664 l -3.45704,9.494396 c -0.0498,0.129514 -0.0498,0.169365 -0.0498,0.179327 0,0.10959 0.0897,0.199253 0.19925,0.199253 0.12952,0 0.1594,-0.06974 0.21918,-0.239103 z" /><path
     inkscape:connector-curvature="0"
     id="path14066"
     d="m 193.87255,7.750898 c 0.0498,-0.129515 0.0498,-0.169365 0.0498,-0.179328 0,-0.109589 -0.0897,-0.199253 -0.19926,-0.199253 -0.0697,0 -0.13947,0.029888 -0.16936,0.089664 l -3.45704,9.494396 c -0.0498,0.129514 -0.0498,0.169365 -0.0498,0.179327 0,0.10959 0.0897,0.199253 0.19925,0.199253 0.12952,0 0.1594,-0.06974 0.21918,-0.239103 z" /><path
     inkscape:connector-curvature="0"
     id="path14068"
     d="m 198.95352,12.841807 c 0,-1.185555 -0.81694,-2.181819 -1.8929,-2.181819 -0.47821,0 -0.9066,0.159403 -1.26526,0.508095 V 9.225368 c 0.19925,0.059776 0.52802,0.129515 0.84683,0.129515 1.2254,0 1.92279,-0.906601 1.92279,-1.036115 0,-0.059776 -0.0299,-0.109589 -0.0996,-0.109589 -0.01,0 -0.0299,0 -0.0797,0.029888 -0.19925,0.089664 -0.68742,0.288916 -1.35492,0.288916 -0.39851,0 -0.85679,-0.069738 -1.32503,-0.278953 -0.0797,-0.029888 -0.0996,-0.029888 -0.11955,-0.029888 -0.0996,0 -0.0996,0.079701 -0.0996,0.239103 v 2.948941 c 0,0.179328 0,0.259029 0.13948,0.259029 0.0697,0 0.0897,-0.02989 0.12951,-0.08966 0.10959,-0.159402 0.47821,-0.697384 1.28518,-0.697384 0.51806,0 0.76712,0.458281 0.84683,0.637608 0.1594,0.368618 0.17932,0.757161 0.17932,1.255293 0,0.348693 0,0.946451 -0.2391,1.364882 -0.2391,0.388543 -0.60772,0.647571 -1.066,0.647571 -0.72728,0 -1.29515,-0.52802 -1.46451,-1.115815 0.0299,0.01 0.0598,0.01993 0.16936,0.01993 0.32877,0 0.49814,-0.249066 0.49814,-0.488169 0,-0.239103 -0.16937,-0.48817 -0.49814,-0.48817 -0.13947,0 -0.48816,0.06974 -0.48816,0.52802 0,0.856787 0.68742,1.823163 1.80323,1.823163 1.15567,0 2.17186,-0.956413 2.17186,-2.221668 z" /></g><g
   id="g14225"
   transform="matrix(2.9071776,0,0,2.9071776,-378.867,109.34331)"><g
     id="g14255"
     transform="translate(-13.759049)"><path
       d="m 159.86538,-15.631419 c -0.0299,0.14944 -0.0897,0.378581 -0.0897,0.428394 0,0.179327 0.13947,0.268991 0.28891,0.268991 0.11956,0 0.29888,-0.0797 0.36862,-0.278954 0.01,-0.01993 0.12952,-0.488169 0.18929,-0.737235 l 0.21918,-0.896638 c 0.0598,-0.219178 0.11955,-0.438356 0.16936,-0.667497 0.0399,-0.169365 0.11956,-0.458281 0.12952,-0.498132 0.14944,-0.308842 0.67746,-1.215442 1.62391,-1.215442 0.44832,0 0.53798,0.368618 0.53798,0.697385 0,0.617684 -0.48817,1.892902 -0.64757,2.321295 -0.0897,0.229141 -0.0996,0.348692 -0.0996,0.458282 0,0.468244 0.3487,0.816936 0.81694,0.816936 0.93649,0 1.30511,-1.454545 1.30511,-1.534247 0,-0.09963 -0.0897,-0.09963 -0.11956,-0.09963 -0.0996,0 -0.0996,0.02989 -0.14943,0.179328 -0.19926,0.677459 -0.52802,1.235367 -1.01619,1.235367 -0.16937,0 -0.23911,-0.09963 -0.23911,-0.328767 0,-0.249066 0.0897,-0.48817 0.17933,-0.707348 0.18929,-0.52802 0.60772,-1.62391 0.60772,-2.19178 0,-0.667497 -0.42839,-1.066003 -1.1457,-1.066003 -0.89664,0 -1.38481,0.637609 -1.55417,0.86675 -0.0498,-0.557908 -0.45829,-0.86675 -0.91657,-0.86675 -0.45828,0 -0.64757,0.388543 -0.74719,0.567871 -0.15941,0.338729 -0.29888,0.926525 -0.29888,0.966376 0,0.09963 0.0996,0.09963 0.11955,0.09963 0.0996,0 0.10959,-0.01 0.16936,-0.229141 0.16937,-0.707347 0.36862,-1.185554 0.72727,-1.185554 0.19926,0 0.30885,0.129514 0.30885,0.458282 0,0.209215 -0.0299,0.318804 -0.15941,0.836861 z"
       id="path14211"
       inkscape:connector-curvature="0" /><path
       d="m 165.49163,-12.698433 c -0.0488,0.195268 -0.0628,0.251059 -0.34172,0.251059 -0.0907,0 -0.18829,0 -0.18829,0.146451 0,0.07671 0.0628,0.104607 0.0976,0.104607 0.18132,0 0.41146,-0.0279 0.59976,-0.0279 0.23711,0 0.50211,0.0279 0.73225,0.0279 0.0628,0 0.13948,-0.02092 0.13948,-0.153424 0,-0.09763 -0.0976,-0.09763 -0.18132,-0.09763 -0.15343,0 -0.34172,0 -0.34172,-0.08369 0,-0.03487 0.0488,-0.21619 0.0767,-0.320797 0.0837,-0.369614 0.18132,-0.746202 0.25803,-1.039104 0.0837,0.139477 0.29988,0.411457 0.71831,0.411457 0.85081,0 1.79228,-0.941469 1.79228,-1.980573 0,-0.81594 -0.56488,-1.164632 -1.04608,-1.164632 -0.43238,0 -0.80199,0.292901 -0.99029,0.488169 -0.11855,-0.397509 -0.50909,-0.488169 -0.7183,-0.488169 -0.27198,0 -0.43935,0.18132 -0.55094,0.369614 -0.13947,0.237111 -0.25106,0.655541 -0.25106,0.697385 0,0.09066 0.0976,0.09066 0.11856,0.09066 0.0976,0 0.10461,-0.02092 0.15343,-0.209216 0.1046,-0.404483 0.23711,-0.753175 0.50909,-0.753175 0.18132,0 0.23013,0.153424 0.23013,0.341718 0,0.07671 -0.0139,0.167372 -0.0209,0.209216 z m 1.31806,-3.089414 c 0.40448,-0.536987 0.75318,-0.641594 0.97634,-0.641594 0.27198,0 0.50909,0.202241 0.50909,0.676463 0,0.285928 -0.15342,0.99726 -0.36264,1.401743 -0.17435,0.341719 -0.51607,0.676464 -0.87173,0.676464 -0.49514,0 -0.62067,-0.536987 -0.62067,-0.606725 0,-0.0279 0.0139,-0.07671 0.0209,-0.104608 z"
       id="path14213"
       inkscape:connector-curvature="0" /><path
       d="m 179.18533,-18.301406 c 0.14944,0 0.33873,0 0.33873,-0.199253 0,-0.199253 -0.18929,-0.199253 -0.32877,-0.199253 h -5.96762 c -0.13948,0 -0.32877,0 -0.32877,0.199253 0,0.199253 0.18929,0.199253 0.33873,0.199253 z m 0.01,1.932752 c 0.13948,0 0.32877,0 0.32877,-0.199253 0,-0.199253 -0.18929,-0.199253 -0.33873,-0.199253 h -5.9477 c -0.14944,0 -0.33873,0 -0.33873,0.199253 0,0.199253 0.18929,0.199253 0.32877,0.199253 z"
       id="path14215"
       inkscape:connector-curvature="0" /><path
       d="m 185.74624,-18.550472 c 0.81694,-0.268992 1.39477,-0.966376 1.39477,-1.753425 0,-0.816936 -0.87671,-1.374844 -1.83313,-1.374844 -1.00622,0 -1.76338,0.597758 -1.76338,1.354919 0,0.328767 0.21918,0.518057 0.50809,0.518057 0.30884,0 0.5081,-0.219178 0.5081,-0.508095 0,-0.498132 -0.46825,-0.498132 -0.61769,-0.498132 0.30884,-0.488169 0.96638,-0.617683 1.32503,-0.617683 0.40847,0 0.95642,0.219178 0.95642,1.115815 0,0.119552 -0.0199,0.697385 -0.27896,1.135741 -0.29888,0.478207 -0.63761,0.508095 -0.88667,0.518058 -0.0797,0.01 -0.31881,0.02989 -0.38854,0.02989 -0.0797,0.01 -0.14944,0.01993 -0.14944,0.119551 0,0.109589 0.0697,0.109589 0.2391,0.109589 h 0.43836 c 0.81693,0 1.18555,0.67746 1.18555,1.653799 0,1.354919 -0.68742,1.643835 -1.12578,1.643835 -0.42839,0 -1.17559,-0.169365 -1.52428,-0.757161 0.34869,0.04981 0.65753,-0.169364 0.65753,-0.547945 0,-0.358655 -0.26899,-0.557908 -0.55791,-0.557908 -0.2391,0 -0.5579,0.139477 -0.5579,0.577834 0,0.9066 0.92652,1.564134 2.01245,1.564134 1.21544,0 2.12204,-0.9066 2.12204,-1.922789 0,-0.816937 -0.62764,-1.594023 -1.66376,-1.803238 z"
       id="path14217"
       inkscape:connector-curvature="0" /></g></g><g
   id="g14272"
   transform="translate(-24.126132,-18.554766)"><path
     style="stroke-width:3.01125002"
     inkscape:connector-curvature="0"
     id="path14235"
     d="m 70.07739,245.7 c -0.09,0.45 -0.27011,1.14 -0.27011,1.29 0,0.54 0.42001,0.81 0.86998,0.81 0.36002,0 0.9,-0.24 1.11001,-0.84 0.0301,-0.06 0.39001,-1.47 0.57,-2.22 l 0.66,-2.7 c 0.18007,-0.66 0.36,-1.32 0.51002,-2.01 0.12015,-0.51 0.35999,-1.38 0.38998,-1.5 0.45001,-0.93 2.04001,-3.66 4.89,-3.66 1.35001,0 1.62,1.11 1.62,2.1 0,1.86 -1.47001,5.7 -1.95,6.99 -0.27011,0.69 -0.29992,1.05 -0.29992,1.38 0,1.41 1.04999,2.46 2.45998,2.46 2.82001,0 3.93001,-4.38 3.93001,-4.62 0,-0.30001 -0.27011,-0.30001 -0.35999,-0.30001 -0.29992,0 -0.29992,0.09 -0.45,0.54 -0.60003,2.04 -1.59,3.72 -3.06001,3.72 -0.51001,0 -0.72002,-0.30001 -0.72002,-0.99 0,-0.75 0.27011,-1.47 0.54001,-2.13 0.57,-1.59 1.83,-4.89 1.83,-6.6 0,-2.01 -1.28999,-3.21 -3.44999,-3.21 -2.70001,0 -4.17001,1.92 -4.67999,2.61 -0.14997,-1.68 -1.38,-2.61 -2.76003,-2.61 -1.37999,0 -1.94999,1.17 -2.24997,1.71 -0.48003,1.02 -0.9,2.79 -0.9,2.91 0,0.30001 0.29992,0.30001 0.35999,0.30001 0.29992,0 0.33,-0.0301 0.50999,-0.69 0.51001,-2.13 1.11,-3.57 2.19002,-3.57 0.59999,0 0.92999,0.39 0.92999,1.38 0,0.63 -0.09,0.96 -0.47999,2.52 z" /><path
     style="stroke-width:3.01125002"
     inkscape:connector-curvature="0"
     id="path14237"
     d="m 96.59545,246.38395 c 0,-2.331 -1.743,-3.675 -3.80101,-3.675 -3.108,0 -6.04801,2.919 -6.04801,5.796 0,2.1 1.533,3.67501 3.822,3.67501 3.003,0 6.02702,-2.772 6.02702,-5.79601 z m -6.006,5.208 c -1.04999,0 -2.10001,-0.67199 -2.10001,-2.33099 0,-0.86101 0.39902,-2.91901 1.21802,-4.11601 0.90298,-1.302 2.12097,-1.848 3.06599,-1.848 1.13401,0 2.09999,0.777 2.09999,2.331 0,0.504 -0.25205,2.583 -1.17599,4.05301 -0.79801,1.239 -2.05801,1.91099 -3.108,1.91099 z" /><path
     style="stroke-width:3.01125002"
     inkscape:connector-curvature="0"
     id="path14239"
     d="m 127.72921,237.66 c 0.45001,0 1.02001,0 1.02001,-0.6 0,-0.6 -0.57,-0.6 -0.99001,-0.6 h -17.97 c -0.42001,0 -0.99001,0 -0.99001,0.6 0,0.6 0.57,0.6 1.02,0.6 z m 0.0301,5.82 c 0.42001,0 0.99001,0 0.99001,-0.6 0,-0.6 -0.57,-0.6 -1.02,-0.6 H 109.8193 c -0.45,0 -1.02,0 -1.02,0.6 0,0.6 0.57,0.6 0.99001,0.6 z" /><path
     style="stroke-width:3.01125002"
     inkscape:connector-curvature="0"
     id="path14247"
     d="m 151.25618,241.44 c 0,-3.57 -2.46001,-6.57 -5.7,-6.57 -1.44001,0 -2.73,0.48 -3.81001,1.53 v -5.85 c 0.59999,0.18 1.59,0.39 2.55001,0.39 3.68999,0 5.79001,-2.73 5.79001,-3.12 0,-0.18 -0.09,-0.33 -0.29992,-0.33 -0.0301,0 -0.09,0 -0.24,0.09 -0.59999,0.27 -2.06999,0.87 -4.08,0.87 -1.20002,0 -2.58001,-0.21 -3.99,-0.84 -0.24,-0.09 -0.29992,-0.09 -0.36,-0.09 -0.29992,0 -0.29992,0.24 -0.29992,0.72 v 8.88 c 0,0.54 0,0.78 0.42001,0.78 0.20989,0 0.27011,-0.09 0.38999,-0.26999 0.33,-0.48 1.44001,-2.1 3.87,-2.1 1.56001,0 2.30999,1.38 2.55002,1.92 0.47999,1.11 0.53997,2.28 0.53997,3.78 0,1.05 0,2.85 -0.71999,4.11 -0.71999,1.17 -1.82999,1.95 -3.20999,1.95 -2.19002,0 -3.90002,-1.59 -4.41001,-3.36 0.09,0.0301 0.18008,0.06 0.50999,0.06 0.99001,0 1.50002,-0.75 1.50002,-1.47 0,-0.72 -0.51001,-1.47 -1.50002,-1.47 -0.41998,0 -1.46997,0.21 -1.46997,1.59 0,2.58 2.06999,5.49 5.42997,5.49 3.48002,0 6.54002,-2.88 6.54002,-6.69 z" /></g><path
   style="fill:none;stroke:#000000;stroke-width:6;stroke-linecap:butt;stroke-linejoin:miter;stroke-miterlimit:1.5;stroke-dasharray:6, 6;stroke-dashoffset:0;stroke-opacity:1"
   d="M 456.89161,1.4452337 V 261.44523"
   id="path14274"
   inkscape:connector-curvature="0" /><path
   inkscape:connector-curvature="0"
   id="path14276"
   d="M 1114.8916,1.4452337 V 261.44523"
   style="fill:none;stroke:#000000;stroke-width:6;stroke-linecap:butt;stroke-linejoin:miter;stroke-miterlimit:1.5;stroke-dasharray:6, 6;stroke-dashoffset:0;stroke-opacity:1" /></svg>