<?xml version="1.0" encoding="UTF-8" standalone="no"?>
<!DOCTYPE svg PUBLIC "-//W3C//DTD SVG 1.1//EN" "http://www.w3.org/Graphics/SVG/1.1/DTD/svg11.dtd">
<svg width="100%" height="100%" viewBox="0 0 576 246" version="1.1" xmlns="http://www.w3.org/2000/svg" xmlns:xlink="http://www.w3.org/1999/xlink" xml:space="preserve" xmlns:serif="http://www.serif.com/" style="fill-rule:evenodd;clip-rule:evenodd;stroke-miterlimit:1.5;">
    <g id="path12911" transform="matrix(1,0,0,1,-1301.7,-21.3524)">
        <path d="M1620,240L1620,160L1560,80" style="fill:none;stroke:black;stroke-width:4px;"/>
    </g>
    <g id="path12873" transform="matrix(1,0,0,1,-1301.7,-21.3524)">
        <path d="M1560,80L1560,240" style="fill:none;stroke:rgb(9,9,9);stroke-width:4px;stroke-linecap:round;stroke-linejoin:round;"/>
    </g>
    <g id="circle12875" transform="matrix(1,0,0,1,-1301.7,-21.3524)">
        <circle cx="1560" cy="80" r="20" style="fill:white;stroke:rgb(9,9,9);stroke-width:4px;stroke-linecap:round;stroke-linejoin:round;"/>
    </g>
    <g id="circle12877" transform="matrix(1,0,0,1,-1301.7,-21.3524)">
        <circle cx="1560" cy="240" r="20" style="fill:white;stroke:rgb(9,9,9);stroke-width:4px;stroke-linecap:round;stroke-linejoin:round;"/>
    </g>
    <g id="circle12879" transform="matrix(1,0,0,1,-1301.7,-21.3524)">
        <circle cx="1620" cy="240" r="20" style="fill:white;stroke:rgb(9,9,9);stroke-width:4px;stroke-linecap:round;stroke-linejoin:round;"/>
    </g>
    <g id="circle12907" transform="matrix(1,0,0,1,-1301.7,-21.3524)">
        <circle cx="1560" cy="158.897" r="20" style="fill:white;stroke:rgb(9,9,9);stroke-width:4px;stroke-linecap:round;stroke-linejoin:round;"/>
    </g>
    <g id="circle12909" transform="matrix(1,0,0,1,-1301.7,-21.3524)">
        <circle cx="1620" cy="158.897" r="20" style="fill:white;stroke:rgb(9,9,9);stroke-width:4px;stroke-linecap:round;stroke-linejoin:round;"/>
    </g>
    <g id="path12883" transform="matrix(1,0,0,1,-1304.2,-21.3524)">
        <path d="M1680,157.114L1680,80" style="fill:none;stroke:rgb(9,9,9);stroke-width:4px;stroke-linecap:round;stroke-linejoin:round;"/>
    </g>
    <g id="path12885" transform="matrix(1,0,0,1,-1304.2,-21.3524)">
        <path d="M1680,240L1740,160L1740,80" style="fill:none;stroke:rgb(9,9,9);stroke-width:4px;stroke-linecap:round;stroke-linejoin:round;"/>
    </g>
    <g id="circle12887" transform="matrix(1,0,0,-1,-1304.2,-21.3524)">
        <circle cx="1680" cy="-240" r="20" style="stroke:rgb(9,9,9);stroke-width:4px;stroke-linecap:round;stroke-linejoin:round;"/>
    </g>
    <g id="circle12889" transform="matrix(1,0,0,-1,-1304.2,-21.3524)">
        <circle cx="1680" cy="-80" r="20" style="stroke:rgb(9,9,9);stroke-width:4px;stroke-linecap:round;stroke-linejoin:round;"/>
    </g>
    <g id="circle12891" transform="matrix(1,0,0,-1,-1304.2,-21.3524)">
        <circle cx="1740" cy="-80" r="20" style="stroke:rgb(9,9,9);stroke-width:4px;stroke-linecap:round;stroke-linejoin:round;"/>
    </g>
    <g id="circle12913" transform="matrix(1,0,0,-1,-1304.2,-21.3524)">
        <circle cx="1680" cy="-158.897" r="20" style="stroke:rgb(9,9,9);stroke-width:4px;stroke-linecap:round;stroke-linejoin:round;"/>
    </g>
    <g id="circle12928" transform="matrix(1,0,0,-1,-1304.2,-21.3524)">
        <circle cx="1740" cy="-158.897" r="20" style="stroke:rgb(9,9,9);stroke-width:4px;stroke-linecap:round;stroke-linejoin:round;"/>
    </g>
    <g id="path12930" transform="matrix(1,0,0,1,-1304.2,-21.3524)">
        <path d="M1680,240L1680,195L1670,195L1690,195" style="fill:none;stroke:black;stroke-width:4px;"/>
    </g>
    <g id="path12932" transform="matrix(1,0,0,1,-1301.7,-21.3524)">
        <path d="M1855,240L1855,160L1795,80" style="fill:none;stroke:black;stroke-width:4px;"/>
    </g>
    <g id="path12934" transform="matrix(1,0,0,1,-1301.7,-21.3524)">
        <path d="M1795,80L1795,240" style="fill:none;stroke:rgb(9,9,9);stroke-width:4px;stroke-linecap:round;stroke-linejoin:round;"/>
    </g>
    <g id="circle12936" transform="matrix(1,0,0,1,-1301.7,-21.3524)">
        <circle cx="1795" cy="80" r="20" style="stroke:rgb(9,9,9);stroke-width:4px;stroke-linecap:round;stroke-linejoin:round;"/>
    </g>
    <g id="circle12938" transform="matrix(1,0,0,1,-1301.7,-21.3524)">
        <circle cx="1795" cy="240" r="20" style="stroke:rgb(9,9,9);stroke-width:4px;stroke-linecap:round;stroke-linejoin:round;"/>
    </g>
    <g id="circle12940" transform="matrix(1,0,0,1,-1301.7,-21.3524)">
        <circle cx="1855" cy="240" r="20" style="stroke:rgb(9,9,9);stroke-width:4px;stroke-linecap:round;stroke-linejoin:round;"/>
    </g>
    <g id="circle12942" transform="matrix(1,0,0,1,-1301.7,-21.3524)">
        <circle cx="1795" cy="158.897" r="20" style="stroke:rgb(9,9,9);stroke-width:4px;stroke-linecap:round;stroke-linejoin:round;"/>
    </g>
    <g id="circle12944" transform="matrix(1,0,0,1,-1301.7,-21.3524)">
        <circle cx="1855" cy="158.897" r="20" style="stroke:rgb(9,9,9);stroke-width:4px;stroke-linecap:round;stroke-linejoin:round;"/>
    </g>
    <g id="path14000" transform="matrix(3.87624,0,0,3.87624,-550.785,130.365)">
        <path d="M147.139,-21.27C147.139,-21.47 146.999,-21.629 146.77,-21.629C146.501,-21.629 146.232,-21.37 146.232,-21.101C146.232,-20.912 146.372,-20.742 146.611,-20.742C146.84,-20.742 147.139,-20.971 147.139,-21.27ZM146.382,-17.524C146.501,-17.813 146.501,-17.833 146.601,-18.102C146.681,-18.301 146.73,-18.441 146.73,-18.63C146.73,-19.078 146.412,-19.447 145.913,-19.447C144.977,-19.447 144.598,-18.003 144.598,-17.913C144.598,-17.813 144.698,-17.813 144.718,-17.813C144.818,-17.813 144.828,-17.833 144.877,-17.993C145.146,-18.929 145.545,-19.228 145.884,-19.228C145.963,-19.228 146.133,-19.228 146.133,-18.909C146.133,-18.7 146.063,-18.491 146.023,-18.391C145.943,-18.132 145.495,-16.976 145.336,-16.548C145.236,-16.289 145.106,-15.96 145.106,-15.751C145.106,-15.283 145.445,-14.934 145.923,-14.934C146.86,-14.934 147.229,-16.379 147.229,-16.468C147.229,-16.568 147.139,-16.568 147.109,-16.568C147.009,-16.568 147.009,-16.538 146.96,-16.389C146.78,-15.761 146.451,-15.153 145.943,-15.153C145.774,-15.153 145.704,-15.253 145.704,-15.482C145.704,-15.731 145.764,-15.871 145.993,-16.478L146.382,-17.524Z"/>
    </g>
    <g id="path14002" transform="matrix(3.87624,0,0,3.87624,-550.785,130.365)">
        <path d="M148.265,-12.698C148.216,-12.503 148.202,-12.447 147.923,-12.447C147.832,-12.447 147.735,-12.447 147.735,-12.301C147.735,-12.224 147.798,-12.196 147.832,-12.196C148.014,-12.196 148.244,-12.224 148.432,-12.224C148.669,-12.224 148.934,-12.196 149.164,-12.196C149.227,-12.196 149.304,-12.217 149.304,-12.35C149.304,-12.447 149.206,-12.447 149.123,-12.447C148.969,-12.447 148.781,-12.447 148.781,-12.531C148.781,-12.566 148.83,-12.747 148.857,-12.852C148.941,-13.221 149.039,-13.598 149.116,-13.891C149.199,-13.751 149.415,-13.48 149.834,-13.48C150.685,-13.48 151.626,-14.421 151.626,-15.46C151.626,-16.276 151.061,-16.625 150.58,-16.625C150.148,-16.625 149.778,-16.332 149.59,-16.137C149.471,-16.534 149.081,-16.625 148.871,-16.625C148.599,-16.625 148.432,-16.443 148.32,-16.255C148.181,-16.018 148.069,-15.6 148.069,-15.558C148.069,-15.467 148.167,-15.467 148.188,-15.467C148.286,-15.467 148.293,-15.488 148.341,-15.676C148.446,-16.081 148.579,-16.429 148.851,-16.429C149.032,-16.429 149.081,-16.276 149.081,-16.088C149.081,-16.011 149.067,-15.92 149.06,-15.879L148.265,-12.698ZM149.583,-15.788C149.987,-16.325 150.336,-16.429 150.559,-16.429C150.831,-16.429 151.068,-16.227 151.068,-15.753C151.068,-15.467 150.915,-14.756 150.706,-14.351C150.531,-14.01 150.19,-13.675 149.834,-13.675C149.339,-13.675 149.213,-14.212 149.213,-14.281C149.213,-14.309 149.227,-14.358 149.234,-14.386L149.583,-15.788Z"/>
    </g>
    <g id="path14004" transform="matrix(3.87624,0,0,3.87624,-550.785,130.365)">
        <path d="M156.72,-22.137C156.77,-22.267 156.77,-22.306 156.77,-22.316C156.77,-22.426 156.68,-22.516 156.571,-22.516C156.501,-22.516 156.431,-22.486 156.402,-22.426L152.945,-12.932C152.895,-12.802 152.895,-12.762 152.895,-12.752C152.895,-12.643 152.984,-12.553 153.094,-12.553C153.224,-12.553 153.253,-12.623 153.313,-12.792L156.72,-22.137Z"/>
    </g>
    <g id="path14006" transform="matrix(3.87624,0,0,3.87624,-550.785,130.365)">
        <path d="M158.381,-22.137C158.431,-22.267 158.431,-22.306 158.431,-22.316C158.431,-22.426 158.341,-22.516 158.231,-22.516C158.162,-22.516 158.092,-22.486 158.062,-22.426L154.605,-12.932C154.555,-12.802 154.555,-12.762 154.555,-12.752C154.555,-12.643 154.645,-12.553 154.755,-12.553C154.884,-12.553 154.914,-12.623 154.974,-12.792L158.381,-22.137Z"/>
    </g>
    <g id="path14008" transform="matrix(3.87624,0,0,3.87624,-550.785,130.365)">
        <path d="M159.865,-15.631C159.835,-15.482 159.776,-15.253 159.776,-15.203C159.776,-15.024 159.915,-14.934 160.065,-14.934C160.184,-14.934 160.363,-15.014 160.433,-15.213C160.443,-15.233 160.563,-15.701 160.622,-15.95L160.842,-16.847C160.901,-17.066 160.961,-17.285 161.011,-17.514C161.051,-17.684 161.131,-17.973 161.141,-18.012C161.29,-18.321 161.818,-19.228 162.764,-19.228C163.213,-19.228 163.302,-18.859 163.302,-18.531C163.302,-17.913 162.814,-16.638 162.655,-16.209C162.565,-15.98 162.555,-15.861 162.555,-15.751C162.555,-15.283 162.904,-14.934 163.372,-14.934C164.309,-14.934 164.677,-16.389 164.677,-16.468C164.677,-16.568 164.588,-16.568 164.558,-16.568C164.458,-16.568 164.458,-16.538 164.408,-16.389C164.209,-15.711 163.88,-15.153 163.392,-15.153C163.223,-15.153 163.153,-15.253 163.153,-15.482C163.153,-15.731 163.243,-15.97 163.332,-16.189C163.522,-16.717 163.94,-17.813 163.94,-18.381C163.94,-19.049 163.512,-19.447 162.794,-19.447C161.898,-19.447 161.41,-18.81 161.24,-18.58C161.19,-19.138 160.782,-19.447 160.324,-19.447C159.865,-19.447 159.676,-19.059 159.576,-18.879C159.417,-18.541 159.278,-17.953 159.278,-17.913C159.278,-17.813 159.377,-17.813 159.397,-17.813C159.497,-17.813 159.507,-17.823 159.566,-18.042C159.736,-18.75 159.935,-19.228 160.294,-19.228C160.493,-19.228 160.603,-19.098 160.603,-18.77C160.603,-18.56 160.573,-18.451 160.443,-17.933L159.865,-15.631Z"/>
    </g>
    <g id="path14010" transform="matrix(3.87624,0,0,3.87624,-550.785,130.365)">
        <path d="M165.492,-12.698C165.443,-12.503 165.429,-12.447 165.15,-12.447C165.059,-12.447 164.962,-12.447 164.962,-12.301C164.962,-12.224 165.024,-12.196 165.059,-12.196C165.241,-12.196 165.471,-12.224 165.659,-12.224C165.896,-12.224 166.161,-12.196 166.391,-12.196C166.454,-12.196 166.531,-12.217 166.531,-12.35C166.531,-12.447 166.433,-12.447 166.349,-12.447C166.196,-12.447 166.008,-12.447 166.008,-12.531C166.008,-12.566 166.056,-12.747 166.084,-12.852C166.168,-13.221 166.266,-13.598 166.342,-13.891C166.426,-13.751 166.642,-13.48 167.061,-13.48C167.912,-13.48 168.853,-14.421 168.853,-15.46C168.853,-16.276 168.288,-16.625 167.807,-16.625C167.375,-16.625 167.005,-16.332 166.817,-16.137C166.698,-16.534 166.308,-16.625 166.098,-16.625C165.826,-16.625 165.659,-16.443 165.547,-16.255C165.408,-16.018 165.296,-15.6 165.296,-15.558C165.296,-15.467 165.394,-15.467 165.415,-15.467C165.512,-15.467 165.519,-15.488 165.568,-15.676C165.673,-16.081 165.805,-16.429 166.077,-16.429C166.259,-16.429 166.308,-16.276 166.308,-16.088C166.308,-16.011 166.294,-15.92 166.287,-15.879L165.492,-12.698ZM166.81,-15.788C167.214,-16.325 167.563,-16.429 167.786,-16.429C168.058,-16.429 168.295,-16.227 168.295,-15.753C168.295,-15.467 168.142,-14.756 167.932,-14.351C167.758,-14.01 167.416,-13.675 167.061,-13.675C166.566,-13.675 166.44,-14.212 166.44,-14.281C166.44,-14.309 166.454,-14.358 166.461,-14.386L166.81,-15.788Z"/>
    </g>
    <g id="path14012" transform="matrix(3.87624,0,0,3.87624,-550.785,130.365)">
        <path d="M179.185,-18.301C179.335,-18.301 179.524,-18.301 179.524,-18.501C179.524,-18.7 179.335,-18.7 179.195,-18.7L173.228,-18.7C173.088,-18.7 172.899,-18.7 172.899,-18.501C172.899,-18.301 173.088,-18.301 173.238,-18.301L179.185,-18.301ZM179.195,-16.369C179.335,-16.369 179.524,-16.369 179.524,-16.568C179.524,-16.767 179.335,-16.767 179.185,-16.767L173.238,-16.767C173.088,-16.767 172.899,-16.767 172.899,-16.568C172.899,-16.369 173.088,-16.369 173.228,-16.369L179.195,-16.369Z"/>
    </g>
    <g id="path14014" transform="matrix(3.87624,0,0,3.87624,-550.785,130.365)">
        <path d="M185.746,-18.55C186.563,-18.819 187.141,-19.517 187.141,-20.304C187.141,-21.121 186.264,-21.679 185.308,-21.679C184.302,-21.679 183.544,-21.081 183.544,-20.324C183.544,-19.995 183.764,-19.806 184.053,-19.806C184.361,-19.806 184.561,-20.025 184.561,-20.314C184.561,-20.812 184.092,-20.812 183.943,-20.812C184.252,-21.3 184.909,-21.43 185.268,-21.43C185.676,-21.43 186.224,-21.21 186.224,-20.314C186.224,-20.194 186.205,-19.616 185.945,-19.178C185.647,-18.7 185.308,-18.67 185.059,-18.66C184.979,-18.65 184.74,-18.63 184.67,-18.63C184.591,-18.62 184.521,-18.61 184.521,-18.511C184.521,-18.401 184.591,-18.401 184.76,-18.401L185.198,-18.401C186.015,-18.401 186.384,-17.724 186.384,-16.747C186.384,-15.392 185.696,-15.103 185.258,-15.103C184.83,-15.103 184.082,-15.273 183.734,-15.861C184.082,-15.811 184.391,-16.03 184.391,-16.409C184.391,-16.767 184.122,-16.966 183.833,-16.966C183.594,-16.966 183.276,-16.827 183.276,-16.389C183.276,-15.482 184.202,-14.824 185.288,-14.824C186.503,-14.824 187.41,-15.731 187.41,-16.747C187.41,-17.564 186.782,-18.341 185.746,-18.55L185.746,-18.55Z"/>
    </g>
    <g id="path14016" transform="matrix(3.87624,0,0,3.87624,-550.785,130.365)">
        <path d="M192.212,-22.137C192.262,-22.267 192.262,-22.306 192.262,-22.316C192.262,-22.426 192.172,-22.516 192.063,-22.516C191.993,-22.516 191.923,-22.486 191.893,-22.426L188.436,-12.932C188.386,-12.802 188.386,-12.762 188.386,-12.752C188.386,-12.643 188.476,-12.553 188.586,-12.553C188.715,-12.553 188.745,-12.623 188.805,-12.792L192.212,-22.137Z"/>
    </g>
    <g id="path14018" transform="matrix(3.87624,0,0,3.87624,-550.785,130.365)">
        <path d="M193.873,-22.137C193.922,-22.267 193.922,-22.306 193.922,-22.316C193.922,-22.426 193.833,-22.516 193.723,-22.516C193.653,-22.516 193.584,-22.486 193.554,-22.426L190.097,-12.932C190.047,-12.802 190.047,-12.762 190.047,-12.752C190.047,-12.643 190.137,-12.553 190.246,-12.553C190.376,-12.553 190.406,-12.623 190.465,-12.792L193.873,-22.137Z"/>
    </g>
    <g id="path14020" transform="matrix(3.87624,0,0,3.87624,-550.785,130.365)">
        <path d="M197.409,-16.687L197.409,-15.821C197.409,-15.462 197.389,-15.352 196.652,-15.352L196.443,-15.352L196.443,-15.044C196.851,-15.074 197.369,-15.074 197.788,-15.074C198.206,-15.074 198.734,-15.074 199.143,-15.044L199.143,-15.352L198.934,-15.352C198.196,-15.352 198.176,-15.462 198.176,-15.821L198.176,-16.687L199.173,-16.687L199.173,-16.996L198.176,-16.996L198.176,-21.529C198.176,-21.729 198.176,-21.788 198.017,-21.788C197.927,-21.788 197.897,-21.788 197.818,-21.669L194.759,-16.996L194.759,-16.687L197.409,-16.687ZM197.469,-16.996L195.038,-16.996L197.469,-20.712L197.469,-16.996Z"/>
    </g>
    <g id="path14024" transform="matrix(3.85022,0,0,3.85022,-546.144,153.506)">
        <path d="M147.079,-6.326C147.079,-6.526 146.939,-6.685 146.71,-6.685C146.441,-6.685 146.172,-6.426 146.172,-6.157C146.172,-5.968 146.312,-5.798 146.551,-5.798C146.78,-5.798 147.079,-6.027 147.079,-6.326ZM146.322,-2.58C146.441,-2.869 146.441,-2.889 146.541,-3.158C146.621,-3.357 146.67,-3.497 146.67,-3.686C146.67,-4.135 146.352,-4.503 145.853,-4.503C144.917,-4.503 144.538,-3.059 144.538,-2.969C144.538,-2.869 144.638,-2.869 144.658,-2.869C144.758,-2.869 144.768,-2.889 144.817,-3.049C145.086,-3.985 145.485,-4.284 145.824,-4.284C145.903,-4.284 146.073,-4.284 146.073,-3.965C146.073,-3.756 146.003,-3.547 145.963,-3.447C145.883,-3.188 145.435,-2.032 145.276,-1.604C145.176,-1.345 145.046,-1.016 145.046,-0.807C145.046,-0.339 145.385,0.01 145.863,0.01C146.8,0.01 147.169,-1.435 147.169,-1.524C147.169,-1.624 147.079,-1.624 147.049,-1.624C146.949,-1.624 146.949,-1.594 146.9,-1.445C146.72,-0.817 146.391,-0.209 145.883,-0.209C145.714,-0.209 145.644,-0.309 145.644,-0.538C145.644,-0.787 145.704,-0.927 145.933,-1.534L146.322,-2.58Z"/>
    </g>
    <g id="path14026" transform="matrix(3.85022,0,0,3.85022,-546.144,153.506)">
        <path d="M151.392,-1.179C151.42,-1.283 151.42,-1.318 151.42,-1.325C151.42,-1.479 151.294,-1.548 151.183,-1.548C151.022,-1.548 150.89,-1.416 150.862,-1.283C150.743,-1.472 150.506,-1.681 150.144,-1.681C149.272,-1.681 148.358,-0.746 148.358,0.251C148.358,0.969 148.846,1.395 149.418,1.395C149.739,1.395 150.046,1.234 150.29,1.018L150.137,1.646C150.06,1.939 150.011,2.127 149.746,2.364C149.439,2.622 149.139,2.622 148.965,2.622C148.644,2.622 148.553,2.601 148.428,2.573C148.602,2.49 148.651,2.322 148.651,2.225C148.651,2.057 148.519,1.967 148.379,1.967C148.184,1.967 147.982,2.127 147.982,2.392C147.982,2.81 148.581,2.817 148.972,2.817C150.067,2.817 150.534,2.259 150.632,1.862L151.392,-1.179ZM150.429,0.467C150.402,0.572 150.402,0.586 150.283,0.725C150.039,1.018 149.704,1.199 149.439,1.199C149.083,1.199 148.916,0.9 148.916,0.537C148.916,0.23 149.104,-0.551 149.286,-0.858C149.579,-1.346 149.906,-1.485 150.144,-1.485C150.632,-1.485 150.764,-0.962 150.764,-0.893C150.764,-0.879 150.764,-0.865 150.743,-0.788L150.429,0.467Z"/>
    </g>
    <g id="path14028" transform="matrix(3.85022,0,0,3.85022,-546.144,153.506)">
        <path d="M156.69,-7.193C156.74,-7.323 156.74,-7.362 156.74,-7.372C156.74,-7.482 156.651,-7.572 156.541,-7.572C156.471,-7.572 156.401,-7.542 156.372,-7.482L152.915,2.012C152.865,2.142 152.865,2.182 152.865,2.192C152.865,2.301 152.954,2.391 153.064,2.391C153.194,2.391 153.223,2.321 153.283,2.152L156.69,-7.193Z"/>
    </g>
    <g id="path14030" transform="matrix(3.85022,0,0,3.85022,-546.144,153.506)">
        <path d="M158.351,-7.193C158.401,-7.323 158.401,-7.362 158.401,-7.372C158.401,-7.482 158.311,-7.572 158.201,-7.572C158.132,-7.572 158.062,-7.542 158.032,-7.482L154.575,2.012C154.525,2.142 154.525,2.182 154.525,2.192C154.525,2.301 154.615,2.391 154.725,2.391C154.854,2.391 154.884,2.321 154.944,2.152L158.351,-7.193Z"/>
    </g>
    <g id="path14032" transform="matrix(3.85022,0,0,3.85022,-546.144,153.506)">
        <path d="M159.835,-0.687C159.805,-0.538 159.746,-0.309 159.746,-0.259C159.746,-0.08 159.885,0.01 160.035,0.01C160.154,0.01 160.333,-0.07 160.403,-0.269C160.413,-0.289 160.533,-0.757 160.593,-1.006L160.812,-1.903C160.871,-2.122 160.931,-2.341 160.981,-2.57C161.021,-2.74 161.101,-3.029 161.111,-3.069C161.26,-3.377 161.788,-4.284 162.734,-4.284C163.183,-4.284 163.272,-3.915 163.272,-3.587C163.272,-2.969 162.784,-1.694 162.625,-1.265C162.535,-1.036 162.525,-0.917 162.525,-0.807C162.525,-0.339 162.874,0.01 163.342,0.01C164.279,0.01 164.647,-1.445 164.647,-1.524C164.647,-1.624 164.558,-1.624 164.528,-1.624C164.428,-1.624 164.428,-1.594 164.378,-1.445C164.179,-0.767 163.85,-0.209 163.362,-0.209C163.193,-0.209 163.123,-0.309 163.123,-0.538C163.123,-0.787 163.213,-1.026 163.302,-1.245C163.492,-1.773 163.91,-2.869 163.91,-3.437C163.91,-4.105 163.482,-4.503 162.764,-4.503C161.868,-4.503 161.38,-3.866 161.21,-3.636C161.16,-4.194 160.752,-4.503 160.294,-4.503C159.835,-4.503 159.646,-4.115 159.546,-3.935C159.387,-3.597 159.248,-3.009 159.248,-2.969C159.248,-2.869 159.347,-2.869 159.367,-2.869C159.467,-2.869 159.477,-2.879 159.537,-3.098C159.706,-3.806 159.905,-4.284 160.264,-4.284C160.463,-4.284 160.573,-4.154 160.573,-3.826C160.573,-3.616 160.543,-3.507 160.413,-2.989L159.835,-0.687Z"/>
    </g>
    <g id="path14034" transform="matrix(3.85022,0,0,3.85022,-546.144,153.506)">
        <path d="M168.649,-1.179C168.677,-1.283 168.677,-1.318 168.677,-1.325C168.677,-1.479 168.551,-1.548 168.439,-1.548C168.279,-1.548 168.147,-1.416 168.119,-1.283C168,-1.472 167.763,-1.681 167.4,-1.681C166.529,-1.681 165.615,-0.746 165.615,0.251C165.615,0.969 166.103,1.395 166.675,1.395C166.996,1.395 167.303,1.234 167.547,1.018L167.393,1.646C167.317,1.939 167.268,2.127 167.003,2.364C166.696,2.622 166.396,2.622 166.222,2.622C165.901,2.622 165.81,2.601 165.685,2.573C165.859,2.49 165.908,2.322 165.908,2.225C165.908,2.057 165.775,1.967 165.636,1.967C165.441,1.967 165.238,2.127 165.238,2.392C165.238,2.81 165.838,2.817 166.229,2.817C167.324,2.817 167.791,2.259 167.889,1.862L168.649,-1.179ZM167.686,0.467C167.658,0.572 167.658,0.586 167.54,0.725C167.296,1.018 166.961,1.199 166.696,1.199C166.34,1.199 166.173,0.9 166.173,0.537C166.173,0.23 166.361,-0.551 166.543,-0.858C166.835,-1.346 167.163,-1.485 167.4,-1.485C167.889,-1.485 168.021,-0.962 168.021,-0.893C168.021,-0.879 168.021,-0.865 168,-0.788L167.686,0.467Z"/>
    </g>
    <g id="path14036" transform="matrix(3.85022,0,0,3.85022,-546.144,153.506)">
        <path d="M179.185,-3.357C179.335,-3.357 179.524,-3.357 179.524,-3.557C179.524,-3.756 179.335,-3.756 179.195,-3.756L173.228,-3.756C173.088,-3.756 172.899,-3.756 172.899,-3.557C172.899,-3.357 173.088,-3.357 173.238,-3.357L179.185,-3.357ZM179.195,-1.425C179.335,-1.425 179.524,-1.425 179.524,-1.624C179.524,-1.823 179.335,-1.823 179.185,-1.823L173.238,-1.823C173.088,-1.823 172.899,-1.823 172.899,-1.624C172.899,-1.425 173.088,-1.425 173.228,-1.425L179.195,-1.425Z"/>
    </g>
    <g id="path14038" transform="matrix(3.85022,0,0,3.85022,-546.144,153.506)">
        <path d="M185.786,-1.743L185.786,-0.877C185.786,-0.518 185.766,-0.409 185.029,-0.409L184.82,-0.409L184.82,-0.1C185.228,-0.13 185.746,-0.13 186.165,-0.13C186.583,-0.13 187.111,-0.13 187.52,-0.1L187.52,-0.409L187.31,-0.409C186.573,-0.409 186.553,-0.518 186.553,-0.877L186.553,-1.743L187.549,-1.743L187.549,-2.052L186.553,-2.052L186.553,-6.585C186.553,-6.785 186.553,-6.844 186.394,-6.844C186.304,-6.844 186.274,-6.844 186.195,-6.725L183.136,-2.052L183.136,-1.743L185.786,-1.743ZM185.846,-2.052L183.415,-2.052L185.846,-5.768L185.846,-2.052Z"/>
    </g>
    <g id="path14040" transform="matrix(3.85022,0,0,3.85022,-546.144,153.506)">
        <path d="M192.212,-7.193C192.262,-7.323 192.262,-7.362 192.262,-7.372C192.262,-7.482 192.172,-7.572 192.063,-7.572C191.993,-7.572 191.923,-7.542 191.893,-7.482L188.436,2.012C188.386,2.142 188.386,2.182 188.386,2.192C188.386,2.301 188.476,2.391 188.586,2.391C188.715,2.391 188.745,2.321 188.805,2.152L192.212,-7.193Z"/>
    </g>
    <g id="path14042" transform="matrix(3.85022,0,0,3.85022,-546.144,153.506)">
        <path d="M193.873,-7.193C193.922,-7.323 193.922,-7.362 193.922,-7.372C193.922,-7.482 193.833,-7.572 193.723,-7.572C193.653,-7.572 193.584,-7.542 193.554,-7.482L190.097,2.012C190.047,2.142 190.047,2.182 190.047,2.192C190.047,2.301 190.137,2.391 190.246,2.391C190.376,2.391 190.406,2.321 190.465,2.152L193.873,-7.193Z"/>
    </g>
    <g id="path14044" transform="matrix(3.85022,0,0,3.85022,-546.144,153.506)">
        <path d="M195.795,-3.367L195.795,-3.607C195.795,-6.127 197.031,-6.486 197.539,-6.486C197.778,-6.486 198.196,-6.426 198.416,-6.087C198.266,-6.087 197.868,-6.087 197.868,-5.639C197.868,-5.33 198.107,-5.181 198.326,-5.181C198.485,-5.181 198.784,-5.27 198.784,-5.659C198.784,-6.257 198.346,-6.735 197.519,-6.735C196.244,-6.735 194.899,-5.45 194.899,-3.248C194.899,-0.588 196.054,0.12 196.981,0.12C198.087,0.12 199.033,-0.817 199.033,-2.132C199.033,-3.397 198.147,-4.354 197.041,-4.354C196.363,-4.354 195.995,-3.846 195.795,-3.367ZM196.981,-0.159C196.353,-0.159 196.054,-0.757 195.995,-0.907C195.815,-1.375 195.815,-2.172 195.815,-2.351C195.815,-3.128 196.134,-4.125 197.031,-4.125C197.19,-4.125 197.648,-4.125 197.957,-3.507C198.137,-3.138 198.137,-2.63 198.137,-2.142C198.137,-1.664 198.137,-1.166 197.967,-0.807C197.668,-0.209 197.21,-0.159 196.981,-0.159Z"/>
    </g>
    <g id="path14048" transform="matrix(4.015,0,0,4.015,-574.236,176.018)">
        <path d="M147.488,8.618C147.488,8.418 147.348,8.259 147.119,8.259C146.85,8.259 146.581,8.518 146.581,8.787C146.581,8.976 146.721,9.146 146.96,9.146C147.189,9.146 147.488,8.917 147.488,8.618ZM146.731,12.364C146.85,12.075 146.85,12.055 146.95,11.786C147.029,11.587 147.079,11.447 147.079,11.258C147.079,10.809 146.761,10.441 146.262,10.441C145.326,10.441 144.947,11.885 144.947,11.975C144.947,12.075 145.047,12.075 145.067,12.075C145.166,12.075 145.176,12.055 145.226,11.895C145.495,10.959 145.894,10.66 146.232,10.66C146.312,10.66 146.482,10.66 146.482,10.979C146.482,11.188 146.412,11.397 146.372,11.497C146.292,11.756 145.844,12.912 145.685,13.34C145.585,13.599 145.455,13.928 145.455,14.137C145.455,14.605 145.794,14.954 146.272,14.954C147.209,14.954 147.577,13.509 147.577,13.42C147.577,13.32 147.488,13.32 147.458,13.32C147.358,13.32 147.358,13.35 147.308,13.499C147.129,14.127 146.8,14.735 146.292,14.735C146.123,14.735 146.053,14.635 146.053,14.406C146.053,14.157 146.113,14.017 146.342,13.41L146.731,12.364Z"/>
    </g>
    <g id="path14050" transform="matrix(4.015,0,0,4.015,-574.236,176.018)">
        <path d="M151.794,14.484C151.794,13.71 151.215,13.263 150.532,13.263C149.499,13.263 148.523,14.233 148.523,15.188C148.523,15.885 149.032,16.408 149.792,16.408C150.79,16.408 151.794,15.488 151.794,14.484ZM149.799,16.213C149.451,16.213 149.102,15.99 149.102,15.439C149.102,15.153 149.234,14.47 149.506,14.072C149.806,13.64 150.211,13.458 150.525,13.458C150.901,13.458 151.222,13.717 151.222,14.233C151.222,14.4 151.138,15.09 150.831,15.579C150.566,15.99 150.148,16.213 149.799,16.213Z"/>
    </g>
    <g id="path14052" transform="matrix(4.015,0,0,4.015,-574.236,176.018)">
        <path d="M156.895,7.751C156.945,7.621 156.945,7.582 156.945,7.572C156.945,7.462 156.855,7.372 156.745,7.372C156.676,7.372 156.606,7.402 156.576,7.462L153.119,16.956C153.069,17.086 153.069,17.126 153.069,17.136C153.069,17.245 153.159,17.335 153.268,17.335C153.398,17.335 153.428,17.265 153.488,17.096L156.895,7.751Z"/>
    </g>
    <g id="path14054" transform="matrix(4.015,0,0,4.015,-574.236,176.018)">
        <path d="M158.555,7.751C158.605,7.621 158.605,7.582 158.605,7.572C158.605,7.462 158.516,7.372 158.406,7.372C158.336,7.372 158.266,7.402 158.237,7.462L154.78,16.956C154.73,17.086 154.73,17.126 154.73,17.136C154.73,17.245 154.819,17.335 154.929,17.335C155.059,17.335 155.088,17.265 155.148,17.096L158.555,7.751Z"/>
    </g>
    <g id="path14056" transform="matrix(4.015,0,0,4.015,-574.236,176.018)">
        <path d="M160.04,14.257C160.01,14.406 159.95,14.635 159.95,14.685C159.95,14.864 160.09,14.954 160.239,14.954C160.359,14.954 160.538,14.874 160.608,14.675C160.618,14.655 160.737,14.187 160.797,13.938L161.016,13.041C161.076,12.822 161.136,12.603 161.186,12.374C161.225,12.204 161.305,11.915 161.315,11.875C161.464,11.567 161.992,10.66 162.939,10.66C163.387,10.66 163.477,11.029 163.477,11.357C163.477,11.975 162.989,13.25 162.829,13.679C162.74,13.908 162.73,14.027 162.73,14.137C162.73,14.605 163.078,14.954 163.547,14.954C164.483,14.954 164.852,13.499 164.852,13.42C164.852,13.32 164.762,13.32 164.732,13.32C164.633,13.32 164.633,13.35 164.583,13.499C164.384,14.177 164.055,14.735 163.567,14.735C163.397,14.735 163.327,14.635 163.327,14.406C163.327,14.157 163.417,13.918 163.507,13.699C163.696,13.171 164.115,12.075 164.115,11.507C164.115,10.839 163.686,10.441 162.969,10.441C162.072,10.441 161.584,11.078 161.415,11.308C161.365,10.75 160.956,10.441 160.498,10.441C160.04,10.441 159.851,10.829 159.751,11.009C159.592,11.347 159.452,11.935 159.452,11.975C159.452,12.075 159.552,12.075 159.572,12.075C159.671,12.075 159.681,12.065 159.741,11.846C159.91,11.138 160.11,10.66 160.468,10.66C160.667,10.66 160.777,10.79 160.777,11.118C160.777,11.327 160.747,11.437 160.618,11.955L160.04,14.257Z"/>
    </g>
    <g id="path14058" transform="matrix(4.015,0,0,4.015,-574.236,176.018)">
        <path d="M168.846,14.484C168.846,13.71 168.267,13.263 167.584,13.263C166.552,13.263 165.575,14.233 165.575,15.188C165.575,15.885 166.085,16.408 166.845,16.408C167.842,16.408 168.846,15.488 168.846,14.484ZM166.852,16.213C166.503,16.213 166.154,15.99 166.154,15.439C166.154,15.153 166.287,14.47 166.559,14.072C166.859,13.64 167.263,13.458 167.577,13.458C167.954,13.458 168.274,13.717 168.274,14.233C168.274,14.4 168.191,15.09 167.884,15.579C167.619,15.99 167.2,16.213 166.852,16.213Z"/>
    </g>
    <g id="path14060" transform="matrix(4.015,0,0,4.015,-574.236,176.018)">
        <path d="M179.185,11.587C179.335,11.587 179.524,11.587 179.524,11.387C179.524,11.188 179.335,11.188 179.195,11.188L173.228,11.188C173.088,11.188 172.899,11.188 172.899,11.387C172.899,11.587 173.088,11.587 173.238,11.587L179.185,11.587ZM179.195,13.519C179.335,13.519 179.524,13.519 179.524,13.32C179.524,13.121 179.335,13.121 179.185,13.121L173.238,13.121C173.088,13.121 172.899,13.121 172.899,13.32C172.899,13.519 173.088,13.519 173.228,13.519L179.195,13.519Z"/>
    </g>
    <g id="path14062" transform="matrix(4.015,0,0,4.015,-574.236,176.018)">
        <path d="M185.746,11.337C186.563,11.068 187.141,10.371 187.141,9.584C187.141,8.767 186.264,8.209 185.308,8.209C184.302,8.209 183.544,8.807 183.544,9.564C183.544,9.893 183.764,10.082 184.053,10.082C184.361,10.082 184.561,9.863 184.561,9.574C184.561,9.076 184.092,9.076 183.943,9.076C184.252,8.588 184.909,8.458 185.268,8.458C185.676,8.458 186.224,8.677 186.224,9.574C186.224,9.694 186.205,10.271 185.945,10.71C185.647,11.188 185.308,11.218 185.059,11.228C184.979,11.238 184.74,11.258 184.67,11.258C184.591,11.268 184.521,11.278 184.521,11.377C184.521,11.487 184.591,11.487 184.76,11.487L185.198,11.487C186.015,11.487 186.384,12.164 186.384,13.141C186.384,14.496 185.696,14.785 185.258,14.785C184.83,14.785 184.082,14.615 183.734,14.027C184.082,14.077 184.391,13.858 184.391,13.479C184.391,13.121 184.122,12.922 183.833,12.922C183.594,12.922 183.276,13.061 183.276,13.499C183.276,14.406 184.202,15.063 185.288,15.063C186.503,15.063 187.41,14.157 187.41,13.141C187.41,12.324 186.782,11.547 185.746,11.337L185.746,11.337Z"/>
    </g>
    <g id="path14064" transform="matrix(4.015,0,0,4.015,-574.236,176.018)">
        <path d="M192.212,7.751C192.262,7.621 192.262,7.582 192.262,7.572C192.262,7.462 192.172,7.372 192.063,7.372C191.993,7.372 191.923,7.402 191.893,7.462L188.436,16.956C188.386,17.086 188.386,17.126 188.386,17.136C188.386,17.245 188.476,17.335 188.586,17.335C188.715,17.335 188.745,17.265 188.805,17.096L192.212,7.751Z"/>
    </g>
    <g id="path14066" transform="matrix(4.015,0,0,4.015,-574.236,176.018)">
        <path d="M193.873,7.751C193.922,7.621 193.922,7.582 193.922,7.572C193.922,7.462 193.833,7.372 193.723,7.372C193.653,7.372 193.584,7.402 193.554,7.462L190.097,16.956C190.047,17.086 190.047,17.126 190.047,17.136C190.047,17.245 190.137,17.335 190.246,17.335C190.376,17.335 190.406,17.265 190.465,17.096L193.873,7.751Z"/>
    </g>
    <g id="path14068" transform="matrix(4.015,0,0,4.015,-574.236,176.018)">
        <path d="M198.954,12.842C198.954,11.656 198.137,10.66 197.061,10.66C196.582,10.66 196.154,10.819 195.795,11.168L195.795,9.225C195.995,9.285 196.323,9.355 196.642,9.355C197.868,9.355 198.565,8.448 198.565,8.319C198.565,8.259 198.535,8.209 198.465,8.209C198.455,8.209 198.435,8.209 198.386,8.239C198.186,8.329 197.698,8.528 197.031,8.528C196.632,8.528 196.174,8.458 195.706,8.249C195.626,8.219 195.606,8.219 195.586,8.219C195.487,8.219 195.487,8.299 195.487,8.458L195.487,11.407C195.487,11.587 195.487,11.666 195.626,11.666C195.696,11.666 195.716,11.636 195.756,11.577C195.865,11.417 196.234,10.879 197.041,10.879C197.559,10.879 197.808,11.337 197.888,11.517C198.047,11.885 198.067,12.274 198.067,12.772C198.067,13.121 198.067,13.719 197.828,14.137C197.589,14.525 197.22,14.785 196.762,14.785C196.035,14.785 195.467,14.257 195.297,13.669C195.327,13.679 195.357,13.689 195.467,13.689C195.795,13.689 195.965,13.44 195.965,13.2C195.965,12.961 195.795,12.712 195.467,12.712C195.327,12.712 194.978,12.782 194.978,13.24C194.978,14.097 195.666,15.063 196.782,15.063C197.937,15.063 198.954,14.107 198.954,12.842L198.954,12.842Z"/>
    </g>
</svg>
